<svg xmlns="http://www.w3.org/2000/svg" style="display: none">
  <symbol id="material-solid-add-circle" viewBox="0 0 24 24">
    <path
      d="M11 13V16C11 16.2833 11.0958 16.5208 11.2875 16.7125C11.4792 16.9042 11.7167 17 12 17C12.2833 17 12.5208 16.9042 12.7125 16.7125C12.9042 16.5208 13 16.2833 13 16V13H16C16.2833 13 16.5208 12.9042 16.7125 12.7125C16.9042 12.5208 17 12.2833 17 12C17 11.7167 16.9042 11.4792 16.7125 11.2875C16.5208 11.0958 16.2833 11 16 11H13V8C13 7.71667 12.9042 7.47917 12.7125 7.2875C12.5208 7.09583 12.2833 7 12 7C11.7167 7 11.4792 7.09583 11.2875 7.2875C11.0958 7.47917 11 7.71667 11 8V11H8C7.71667 11 7.47917 11.0958 7.2875 11.2875C7.09583 11.4792 7 11.7167 7 12C7 12.2833 7.09583 12.5208 7.2875 12.7125C7.47917 12.9042 7.71667 13 8 13H11ZM12 22C10.6167 22 9.31667 21.7375 8.1 21.2125C6.88333 20.6875 5.825 19.975 4.925 19.075C4.025 18.175 3.3125 17.1167 2.7875 15.9C2.2625 14.6833 2 13.3833 2 12C2 10.6167 2.2625 9.31667 2.7875 8.1C3.3125 6.88333 4.025 5.825 4.925 4.925C5.825 4.025 6.88333 3.3125 8.1 2.7875C9.31667 2.2625 10.6167 2 12 2C13.3833 2 14.6833 2.2625 15.9 2.7875C17.1167 3.3125 18.175 4.025 19.075 4.925C19.975 5.825 20.6875 6.88333 21.2125 8.1C21.7375 9.31667 22 10.6167 22 12C22 13.3833 21.7375 14.6833 21.2125 15.9C20.6875 17.1167 19.975 18.175 19.075 19.075C18.175 19.975 17.1167 20.6875 15.9 21.2125C14.6833 21.7375 13.3833 22 12 22Z"
    />
  </symbol>
  <symbol id="material-solid-add" viewBox="0 0 24 24">
    <path
      d="M11 13H6C5.71667 13 5.47917 12.9042 5.2875 12.7125C5.09583 12.5208 5 12.2833 5 12C5 11.7167 5.09583 11.4792 5.2875 11.2875C5.47917 11.0958 5.71667 11 6 11H11V6C11 5.71667 11.0958 5.47917 11.2875 5.2875C11.4792 5.09583 11.7167 5 12 5C12.2833 5 12.5208 5.09583 12.7125 5.2875C12.9042 5.47917 13 5.71667 13 6V11H18C18.2833 11 18.5208 11.0958 18.7125 11.2875C18.9042 11.4792 19 11.7167 19 12C19 12.2833 18.9042 12.5208 18.7125 12.7125C18.5208 12.9042 18.2833 13 18 13H13V18C13 18.2833 12.9042 18.5208 12.7125 18.7125C12.5208 18.9042 12.2833 19 12 19C11.7167 19 11.4792 18.9042 11.2875 18.7125C11.0958 18.5208 11 18.2833 11 18V13Z"
    />
  </symbol>
  <symbol id="material-solid-arrow-down" viewBox="0 0 24 24">
    <path
      d="M10.9998 16.175V5C10.9998 4.71667 11.0956 4.47917 11.2873 4.2875C11.479 4.09583 11.7165 4 11.9998 4C12.2831 4 12.5206 4.09583 12.7123 4.2875C12.904 4.47917 12.9998 4.71667 12.9998 5V16.175L17.8998 11.275C18.0998 11.075 18.3331 10.9792 18.5998 10.9875C18.8665 10.9958 19.0998 11.1 19.2998 11.3C19.4831 11.5 19.579 11.7333 19.5873 12C19.5956 12.2667 19.4998 12.5 19.2998 12.7L12.6998 19.3C12.5998 19.4 12.4915 19.4708 12.3748 19.5125C12.2581 19.5542 12.1331 19.575 11.9998 19.575C11.8665 19.575 11.7415 19.5542 11.6248 19.5125C11.5081 19.4708 11.3998 19.4 11.2998 19.3L4.6998 12.7C4.51647 12.5167 4.4248 12.2875 4.4248 12.0125C4.4248 11.7375 4.51647 11.5 4.6998 11.3C4.8998 11.1 5.1373 11 5.4123 11C5.6873 11 5.9248 11.1 6.1248 11.3L10.9998 16.175Z"
    />
  </symbol>
  <symbol id="material-solid-arrow-left" viewBox="0 0 24 24">
    <path
      d="M7.85039 13L10.7004 15.85C10.9004 16.05 10.9962 16.2833 10.9879 16.55C10.9796 16.8167 10.8837 17.05 10.7004 17.25C10.5004 17.45 10.2629 17.5542 9.98789 17.5625C9.71289 17.5708 9.47539 17.475 9.27539 17.275L4.70039 12.7C4.50039 12.5 4.40039 12.2667 4.40039 12C4.40039 11.7333 4.50039 11.5 4.70039 11.3L9.27539 6.72501C9.47539 6.52501 9.71289 6.42918 9.98789 6.43751C10.2629 6.44585 10.5004 6.55001 10.7004 6.75001C10.8837 6.95001 10.9796 7.18335 10.9879 7.45001C10.9962 7.71668 10.9004 7.95001 10.7004 8.15001L7.85039 11H19.0004C19.2837 11 19.5212 11.0958 19.7129 11.2875C19.9046 11.4792 20.0004 11.7167 20.0004 12C20.0004 12.2833 19.9046 12.5208 19.7129 12.7125C19.5212 12.9042 19.2837 13 19.0004 13H7.85039Z"
    />
  </symbol>
  <symbol id="material-solid-arrow-right" viewBox="0 0 24 24">
    <path
      d="M16.15 13H5C4.71667 13 4.47917 12.9042 4.2875 12.7125C4.09583 12.5208 4 12.2833 4 12C4 11.7167 4.09583 11.4792 4.2875 11.2875C4.47917 11.0958 4.71667 11 5 11H16.15L13.3 8.15001C13.1 7.95001 13.0042 7.71668 13.0125 7.45001C13.0208 7.18335 13.1167 6.95001 13.3 6.75001C13.5 6.55001 13.7375 6.44585 14.0125 6.43751C14.2875 6.42918 14.525 6.52501 14.725 6.72501L19.3 11.3C19.4 11.4 19.4708 11.5083 19.5125 11.625C19.5542 11.7417 19.575 11.8667 19.575 12C19.575 12.1333 19.5542 12.2583 19.5125 12.375C19.4708 12.4917 19.4 12.6 19.3 12.7L14.725 17.275C14.525 17.475 14.2875 17.5708 14.0125 17.5625C13.7375 17.5542 13.5 17.45 13.3 17.25C13.1167 17.05 13.0208 16.8167 13.0125 16.55C13.0042 16.2833 13.1 16.05 13.3 15.85L16.15 13Z"
    />
  </symbol>
  <symbol id="material-solid-arrow-up" viewBox="0 0 24 24">
    <path
      d="M11.0001 7.8248L6.10011 12.7248C5.90011 12.9248 5.66678 13.0206 5.40011 13.0123C5.13344 13.004 4.90011 12.8998 4.70011 12.6998C4.51678 12.4998 4.42094 12.2665 4.41261 11.9998C4.40428 11.7331 4.50011 11.4998 4.70011 11.2998L11.3001 4.6998C11.4001 4.5998 11.5084 4.52897 11.6251 4.4873C11.7418 4.44564 11.8668 4.4248 12.0001 4.4248C12.1334 4.4248 12.2584 4.44564 12.3751 4.4873C12.4918 4.52897 12.6001 4.5998 12.7001 4.6998L19.3001 11.2998C19.4834 11.4831 19.5751 11.7123 19.5751 11.9873C19.5751 12.2623 19.4834 12.4998 19.3001 12.6998C19.1001 12.8998 18.8626 12.9998 18.5876 12.9998C18.3126 12.9998 18.0751 12.8998 17.8751 12.6998L13.0001 7.8248V18.9998C13.0001 19.2831 12.9043 19.5206 12.7126 19.7123C12.5209 19.904 12.2834 19.9998 12.0001 19.9998C11.7168 19.9998 11.4793 19.904 11.2876 19.7123C11.0959 19.5206 11.0001 19.2831 11.0001 18.9998V7.8248Z"
    />
  </symbol>
  <symbol id="material-solid-audio-file" viewBox="0 0 24 24">
    <path
      d="M6 22C5.45 22 4.97917 21.8042 4.5875 21.4125C4.19583 21.0208 4 20.55 4 20V4C4 3.45 4.19583 2.97917 4.5875 2.5875C4.97917 2.19583 5.45 2 6 2H13.175C13.4417 2 13.6958 2.05 13.9375 2.15C14.1792 2.25 14.3917 2.39167 14.575 2.575L19.425 7.425C19.6083 7.60833 19.75 7.82083 19.85 8.0625C19.95 8.30417 20 8.55833 20 8.825V20C20 20.55 19.8042 21.0208 19.4125 21.4125C19.0208 21.8042 18.55 22 18 22H6ZM13 8C13 8.28333 13.0958 8.52083 13.2875 8.7125C13.4792 8.90417 13.7167 9 14 9H18L13 4V8ZM10.75 19C11.3833 19 11.9167 18.7833 12.35 18.35C12.7833 17.9167 13 17.3833 13 16.75V13H15C15.2833 13 15.5208 12.9042 15.7125 12.7125C15.9042 12.5208 16 12.2833 16 12C16 11.7167 15.9042 11.4792 15.7125 11.2875C15.5208 11.0958 15.2833 11 15 11H13C12.7167 11 12.4792 11.0958 12.2875 11.2875C12.0958 11.4792 12 11.7167 12 12V14.875C11.8167 14.7417 11.6208 14.6458 11.4125 14.5875C11.2042 14.5292 10.9833 14.5 10.75 14.5C10.1167 14.5 9.58333 14.7167 9.15 15.15C8.71667 15.5833 8.5 16.1167 8.5 16.75C8.5 17.3833 8.71667 17.9167 9.15 18.35C9.58333 18.7833 10.1167 19 10.75 19Z"
    />
  </symbol>
  <symbol id="material-solid-award" viewBox="0 0 24 24">
    <path
      d="M11.9996 21L8.62461 22.125C8.50794 22.1583 8.39961 22.1833 8.29961 22.2C8.19961 22.2167 8.09961 22.225 7.99961 22.225C7.46628 22.225 6.99961 22.0375 6.59961 21.6625C6.19961 21.2875 5.99961 20.8083 5.99961 20.225V14.775L3.39961 10.55C3.29961 10.3833 3.22461 10.2125 3.17461 10.0375C3.12461 9.8625 3.09961 9.68333 3.09961 9.5C3.09961 9.31667 3.12461 9.1375 3.17461 8.9625C3.22461 8.7875 3.29961 8.61667 3.39961 8.45L6.79961 2.95C6.98294 2.65 7.22461 2.41667 7.52461 2.25C7.82461 2.08333 8.14961 2 8.49961 2H15.4996C15.8496 2 16.1746 2.08333 16.4746 2.25C16.7746 2.41667 17.0163 2.65 17.1996 2.95L20.5996 8.45C20.6996 8.61667 20.7746 8.7875 20.8246 8.9625C20.8746 9.1375 20.8996 9.31667 20.8996 9.5C20.8996 9.68333 20.8746 9.8625 20.8246 10.0375C20.7746 10.2125 20.6996 10.3833 20.5996 10.55L17.9996 14.775V20.225C17.9996 20.8083 17.7996 21.2875 17.3996 21.6625C16.9996 22.0375 16.5329 22.225 15.9996 22.225C15.8996 22.225 15.7996 22.2167 15.6996 22.2C15.5996 22.1833 15.4913 22.1583 15.3746 22.125L11.9996 21ZM8.49961 15H15.4996L18.8996 9.5L15.4996 4H8.49961L5.09961 9.5L8.49961 15ZM10.9496 10.75L14.4746 7.2C14.6579 7 14.8871 6.90417 15.1621 6.9125C15.4371 6.92083 15.6746 7.01667 15.8746 7.2C16.0746 7.4 16.1788 7.6375 16.1871 7.9125C16.1954 8.1875 16.0996 8.425 15.8996 8.625L11.6496 12.875C11.4496 13.075 11.2163 13.175 10.9496 13.175C10.6829 13.175 10.4496 13.075 10.2496 12.875L8.12461 10.75C7.92461 10.55 7.82461 10.3125 7.82461 10.0375C7.82461 9.7625 7.92461 9.525 8.12461 9.325C8.32461 9.125 8.56211 9.025 8.83711 9.025C9.11211 9.025 9.34961 9.125 9.54961 9.325L10.9496 10.75Z"
    />
  </symbol>
  <symbol id="material-solid-book" viewBox="0 0 24 24">
    <path
      d="M7.5 22C6.53333 22 5.70833 21.6583 5.025 20.975C4.34167 20.2917 4 19.4667 4 18.5V5.5C4 4.53333 4.34167 3.70833 5.025 3.025C5.70833 2.34167 6.53333 2 7.5 2H18C18.55 2 19.0208 2.19583 19.4125 2.5875C19.8042 2.97917 20 3.45 20 4V16.525C20 16.6583 19.9458 16.7792 19.8375 16.8875C19.7292 16.9958 19.5333 17.1167 19.25 17.25C19.0167 17.3667 18.8333 17.5333 18.7 17.75C18.5667 17.9667 18.5 18.2167 18.5 18.5C18.5 18.7833 18.5667 19.0375 18.7 19.2625C18.8333 19.4875 19.0167 19.65 19.25 19.75C19.4833 19.85 19.6667 19.9875 19.8 20.1625C19.9333 20.3375 20 20.525 20 20.725V20.975C20 21.2583 19.9042 21.5 19.7125 21.7C19.5208 21.9 19.2833 22 19 22H7.5ZM9 15C9.28333 15 9.52083 14.9042 9.7125 14.7125C9.90417 14.5208 10 14.2833 10 14V5C10 4.71667 9.90417 4.47917 9.7125 4.2875C9.52083 4.09583 9.28333 4 9 4C8.71667 4 8.47917 4.09583 8.2875 4.2875C8.09583 4.47917 8 4.71667 8 5V14C8 14.2833 8.09583 14.5208 8.2875 14.7125C8.47917 14.9042 8.71667 15 9 15ZM7.5 20H16.825C16.725 19.7667 16.6458 19.5292 16.5875 19.2875C16.5292 19.0458 16.5 18.7833 16.5 18.5C16.5 18.2333 16.525 17.975 16.575 17.725C16.625 17.475 16.7083 17.2333 16.825 17H7.5C7.06667 17 6.70833 17.1458 6.425 17.4375C6.14167 17.7292 6 18.0833 6 18.5C6 18.9333 6.14167 19.2917 6.425 19.575C6.70833 19.8583 7.06667 20 7.5 20Z"
    />
  </symbol>
  <symbol id="material-solid-bookmark" viewBox="0 0 24 24">
    <path
      d="M12 18L7.8 19.8C7.13333 20.0833 6.5 20.0292 5.9 19.6375C5.3 19.2458 5 18.6917 5 17.975V5C5 4.45 5.19583 3.97917 5.5875 3.5875C5.97917 3.19583 6.45 3 7 3H17C17.55 3 18.0208 3.19583 18.4125 3.5875C18.8042 3.97917 19 4.45 19 5V17.975C19 18.6917 18.7 19.2458 18.1 19.6375C17.5 20.0292 16.8667 20.0833 16.2 19.8L12 18Z"
    />
  </symbol>
  <symbol id="material-solid-box" viewBox="0 0 24 24">
    <path
      d="M5 22C4.45 22 3.97917 21.8042 3.5875 21.4125C3.19583 21.0208 3 20.55 3 20V8.725C2.7 8.54167 2.45833 8.30417 2.275 8.0125C2.09167 7.72083 2 7.38333 2 7V4C2 3.45 2.19583 2.97917 2.5875 2.5875C2.97917 2.19583 3.45 2 4 2H20C20.55 2 21.0208 2.19583 21.4125 2.5875C21.8042 2.97917 22 3.45 22 4V7C22 7.38333 21.9083 7.72083 21.725 8.0125C21.5417 8.30417 21.3 8.54167 21 8.725V20C21 20.55 20.8042 21.0208 20.4125 21.4125C20.0208 21.8042 19.55 22 19 22H5ZM4 7H20V4H4V7ZM10 14H14C14.2833 14 14.5208 13.9042 14.7125 13.7125C14.9042 13.5208 15 13.2833 15 13C15 12.7167 14.9042 12.4792 14.7125 12.2875C14.5208 12.0958 14.2833 12 14 12H10C9.71667 12 9.47917 12.0958 9.2875 12.2875C9.09583 12.4792 9 12.7167 9 13C9 13.2833 9.09583 13.5208 9.2875 13.7125C9.47917 13.9042 9.71667 14 10 14Z"
    />
  </symbol>
  <symbol id="material-solid-chat" viewBox="0 0 24 24">
    <path
      d="M6 18L3.7 20.3C3.38333 20.6167 3.02083 20.6875 2.6125 20.5125C2.20417 20.3375 2 20.025 2 19.575V4C2 3.45 2.19583 2.97917 2.5875 2.5875C2.97917 2.19583 3.45 2 4 2H20C20.55 2 21.0208 2.19583 21.4125 2.5875C21.8042 2.97917 22 3.45 22 4V16C22 16.55 21.8042 17.0208 21.4125 17.4125C21.0208 17.8042 20.55 18 20 18H6ZM8 11C8.28333 11 8.52083 10.9042 8.7125 10.7125C8.90417 10.5208 9 10.2833 9 10C9 9.71667 8.90417 9.47917 8.7125 9.2875C8.52083 9.09583 8.28333 9 8 9C7.71667 9 7.47917 9.09583 7.2875 9.2875C7.09583 9.47917 7 9.71667 7 10C7 10.2833 7.09583 10.5208 7.2875 10.7125C7.47917 10.9042 7.71667 11 8 11ZM12 11C12.2833 11 12.5208 10.9042 12.7125 10.7125C12.9042 10.5208 13 10.2833 13 10C13 9.71667 12.9042 9.47917 12.7125 9.2875C12.5208 9.09583 12.2833 9 12 9C11.7167 9 11.4792 9.09583 11.2875 9.2875C11.0958 9.47917 11 9.71667 11 10C11 10.2833 11.0958 10.5208 11.2875 10.7125C11.4792 10.9042 11.7167 11 12 11ZM16 11C16.2833 11 16.5208 10.9042 16.7125 10.7125C16.9042 10.5208 17 10.2833 17 10C17 9.71667 16.9042 9.47917 16.7125 9.2875C16.5208 9.09583 16.2833 9 16 9C15.7167 9 15.4792 9.09583 15.2875 9.2875C15.0958 9.47917 15 9.71667 15 10C15 10.2833 15.0958 10.5208 15.2875 10.7125C15.4792 10.9042 15.7167 11 16 11Z"
    />
  </symbol>
  <symbol id="material-solid-check-circle" viewBox="0 0 24 24">
    <path
      d="M10.6 13.8L8.45 11.65C8.26667 11.4667 8.03333 11.375 7.75 11.375C7.46667 11.375 7.23333 11.4667 7.05 11.65C6.86667 11.8333 6.775 12.0667 6.775 12.35C6.775 12.6333 6.86667 12.8667 7.05 13.05L9.9 15.9C10.1 16.1 10.3333 16.2 10.6 16.2C10.8667 16.2 11.1 16.1 11.3 15.9L16.95 10.25C17.1333 10.0667 17.225 9.83333 17.225 9.55C17.225 9.26667 17.1333 9.03333 16.95 8.85C16.7667 8.66667 16.5333 8.575 16.25 8.575C15.9667 8.575 15.7333 8.66667 15.55 8.85L10.6 13.8ZM12 22C10.6167 22 9.31667 21.7375 8.1 21.2125C6.88333 20.6875 5.825 19.975 4.925 19.075C4.025 18.175 3.3125 17.1167 2.7875 15.9C2.2625 14.6833 2 13.3833 2 12C2 10.6167 2.2625 9.31667 2.7875 8.1C3.3125 6.88333 4.025 5.825 4.925 4.925C5.825 4.025 6.88333 3.3125 8.1 2.7875C9.31667 2.2625 10.6167 2 12 2C13.3833 2 14.6833 2.2625 15.9 2.7875C17.1167 3.3125 18.175 4.025 19.075 4.925C19.975 5.825 20.6875 6.88333 21.2125 8.1C21.7375 9.31667 22 10.6167 22 12C22 13.3833 21.7375 14.6833 21.2125 15.9C20.6875 17.1167 19.975 18.175 19.075 19.075C18.175 19.975 17.1167 20.6875 15.9 21.2125C14.6833 21.7375 13.3833 22 12 22Z"
    />
  </symbol>
  <symbol id="material-solid-check" viewBox="0 0 24 24">
    <path
      d="M9.54972 15.15L18.0247 6.675C18.2247 6.475 18.4581 6.375 18.7247 6.375C18.9914 6.375 19.2247 6.475 19.4247 6.675C19.6247 6.875 19.7247 7.1125 19.7247 7.3875C19.7247 7.6625 19.6247 7.9 19.4247 8.1L10.2497 17.3C10.0497 17.5 9.81639 17.6 9.54972 17.6C9.28305 17.6 9.04972 17.5 8.84972 17.3L4.54972 13C4.34972 12.8 4.25389 12.5625 4.26222 12.2875C4.27055 12.0125 4.37472 11.775 4.57472 11.575C4.77472 11.375 5.01222 11.275 5.28722 11.275C5.56222 11.275 5.79972 11.375 5.99972 11.575L9.54972 15.15Z"
    />
  </symbol>
  <symbol id="material-solid-checkbox-checked" viewBox="0 0 24 24">
    <path
      d="M10.6 13.4L8.45 11.25C8.26667 11.0667 8.03333 10.975 7.75 10.975C7.46667 10.975 7.23333 11.0667 7.05 11.25C6.86667 11.4333 6.775 11.6667 6.775 11.95C6.775 12.2333 6.86667 12.4667 7.05 12.65L9.9 15.5C10.1 15.7 10.3333 15.8 10.6 15.8C10.8667 15.8 11.1 15.7 11.3 15.5L16.95 9.85C17.1333 9.66667 17.225 9.43333 17.225 9.15C17.225 8.86667 17.1333 8.63333 16.95 8.45C16.7667 8.26667 16.5333 8.175 16.25 8.175C15.9667 8.175 15.7333 8.26667 15.55 8.45L10.6 13.4ZM5 21C4.45 21 3.97917 20.8042 3.5875 20.4125C3.19583 20.0208 3 19.55 3 19V5C3 4.45 3.19583 3.97917 3.5875 3.5875C3.97917 3.19583 4.45 3 5 3H19C19.55 3 20.0208 3.19583 20.4125 3.5875C20.8042 3.97917 21 4.45 21 5V19C21 19.55 20.8042 20.0208 20.4125 20.4125C20.0208 20.8042 19.55 21 19 21H5Z"
    />
  </symbol>
  <symbol id="material-solid-checkbox-unchecked" viewBox="0 0 24 24">
    <path
      d="M5 21C4.45 21 3.97917 20.8042 3.5875 20.4125C3.19583 20.0208 3 19.55 3 19V5C3 4.45 3.19583 3.97917 3.5875 3.5875C3.97917 3.19583 4.45 3 5 3H19C19.55 3 20.0208 3.19583 20.4125 3.5875C20.8042 3.97917 21 4.45 21 5V19C21 19.55 20.8042 20.0208 20.4125 20.4125C20.0208 20.8042 19.55 21 19 21H5ZM5 19H19V5H5V19Z"
    />
  </symbol>
  <symbol id="material-solid-checklist" viewBox="0 0 24 24">
    <path
      d="M5.5248 16.1749L9.0748 12.6249C9.2748 12.4249 9.50814 12.3291 9.7748 12.3374C10.0415 12.3457 10.2748 12.4499 10.4748 12.6499C10.6581 12.8499 10.7498 13.0832 10.7498 13.3499C10.7498 13.6166 10.6581 13.8499 10.4748 14.0499L6.2498 18.2999C6.0498 18.4999 5.81647 18.5999 5.5498 18.5999C5.28314 18.5999 5.0498 18.4999 4.8498 18.2999L2.6998 16.1499C2.51647 15.9666 2.4248 15.7332 2.4248 15.4499C2.4248 15.1666 2.51647 14.9332 2.6998 14.7499C2.88314 14.5666 3.11647 14.4749 3.3998 14.4749C3.68314 14.4749 3.91647 14.5666 4.0998 14.7499L5.5248 16.1749ZM5.5248 8.17491L9.0748 4.62491C9.2748 4.42491 9.50814 4.32908 9.7748 4.33741C10.0415 4.34575 10.2748 4.44991 10.4748 4.64991C10.6581 4.84991 10.7498 5.08325 10.7498 5.34991C10.7498 5.61658 10.6581 5.84991 10.4748 6.04991L6.2498 10.2999C6.0498 10.4999 5.81647 10.5999 5.5498 10.5999C5.28314 10.5999 5.0498 10.4999 4.8498 10.2999L2.6998 8.14991C2.51647 7.96658 2.4248 7.73325 2.4248 7.44991C2.4248 7.16658 2.51647 6.93325 2.6998 6.74991C2.88314 6.56658 3.11647 6.47491 3.3998 6.47491C3.68314 6.47491 3.91647 6.56658 4.0998 6.74991L5.5248 8.17491ZM13.9998 16.9999C13.7165 16.9999 13.479 16.9041 13.2873 16.7124C13.0956 16.5207 12.9998 16.2832 12.9998 15.9999C12.9998 15.7166 13.0956 15.4791 13.2873 15.2874C13.479 15.0957 13.7165 14.9999 13.9998 14.9999H20.9998C21.2831 14.9999 21.5206 15.0957 21.7123 15.2874C21.904 15.4791 21.9998 15.7166 21.9998 15.9999C21.9998 16.2832 21.904 16.5207 21.7123 16.7124C21.5206 16.9041 21.2831 16.9999 20.9998 16.9999H13.9998ZM13.9998 8.99991C13.7165 8.99991 13.479 8.90408 13.2873 8.71241C13.0956 8.52075 12.9998 8.28325 12.9998 7.99991C12.9998 7.71658 13.0956 7.47908 13.2873 7.28741C13.479 7.09575 13.7165 6.99991 13.9998 6.99991H20.9998C21.2831 6.99991 21.5206 7.09575 21.7123 7.28741C21.904 7.47908 21.9998 7.71658 21.9998 7.99991C21.9998 8.28325 21.904 8.52075 21.7123 8.71241C21.5206 8.90408 21.2831 8.99991 20.9998 8.99991H13.9998Z"
    />
  </symbol>
  <symbol id="material-solid-chevron-down" viewBox="0 0 24 24">
    <path
      d="M11.9998 14.9748C11.8665 14.9748 11.7415 14.954 11.6248 14.9123C11.5081 14.8706 11.3998 14.7998 11.2998 14.6998L6.6998 10.0998C6.51647 9.91647 6.4248 9.68314 6.4248 9.3998C6.4248 9.11647 6.51647 8.88314 6.6998 8.6998C6.88314 8.51647 7.11647 8.4248 7.3998 8.4248C7.68314 8.4248 7.91647 8.51647 8.0998 8.6998L11.9998 12.5998L15.8998 8.6998C16.0831 8.51647 16.3165 8.4248 16.5998 8.4248C16.8831 8.4248 17.1165 8.51647 17.2998 8.6998C17.4831 8.88314 17.5748 9.11647 17.5748 9.3998C17.5748 9.68314 17.4831 9.91647 17.2998 10.0998L12.6998 14.6998C12.5998 14.7998 12.4915 14.8706 12.3748 14.9123C12.2581 14.954 12.1331 14.9748 11.9998 14.9748Z"
    />
  </symbol>
  <symbol id="material-solid-chevron-left" viewBox="0 0 24 24">
    <path
      d="M10.7998 11.9998L14.6998 15.8998C14.8831 16.0831 14.9748 16.3165 14.9748 16.5998C14.9748 16.8831 14.8831 17.1165 14.6998 17.2998C14.5165 17.4831 14.2831 17.5748 13.9998 17.5748C13.7165 17.5748 13.4831 17.4831 13.2998 17.2998L8.6998 12.6998C8.5998 12.5998 8.52897 12.4915 8.4873 12.3748C8.44564 12.2581 8.4248 12.1331 8.4248 11.9998C8.4248 11.8665 8.44564 11.7415 8.4873 11.6248C8.52897 11.5081 8.5998 11.3998 8.6998 11.2998L13.2998 6.6998C13.4831 6.51647 13.7165 6.4248 13.9998 6.4248C14.2831 6.4248 14.5165 6.51647 14.6998 6.6998C14.8831 6.88314 14.9748 7.11647 14.9748 7.3998C14.9748 7.68314 14.8831 7.91647 14.6998 8.0998L10.7998 11.9998Z"
    />
  </symbol>
  <symbol id="material-solid-chevron-right" viewBox="0 0 24 24">
    <path
      d="M12.5998 11.9998L8.6998 8.0998C8.51647 7.91647 8.4248 7.68314 8.4248 7.3998C8.4248 7.11647 8.51647 6.88314 8.6998 6.6998C8.88314 6.51647 9.11647 6.4248 9.3998 6.4248C9.68314 6.4248 9.91647 6.51647 10.0998 6.6998L14.6998 11.2998C14.7998 11.3998 14.8706 11.5081 14.9123 11.6248C14.954 11.7415 14.9748 11.8665 14.9748 11.9998C14.9748 12.1331 14.954 12.2581 14.9123 12.3748C14.8706 12.4915 14.7998 12.5998 14.6998 12.6998L10.0998 17.2998C9.91647 17.4831 9.68314 17.5748 9.3998 17.5748C9.11647 17.5748 8.88314 17.4831 8.6998 17.2998C8.51647 17.1165 8.4248 16.8831 8.4248 16.5998C8.4248 16.3165 8.51647 16.0831 8.6998 15.8998L12.5998 11.9998Z"
    />
  </symbol>
  <symbol id="material-solid-chevron-up" viewBox="0 0 24 24">
    <path
      d="M11.9998 10.7999L8.0998 14.6999C7.91647 14.8832 7.68314 14.9749 7.3998 14.9749C7.11647 14.9749 6.88314 14.8832 6.6998 14.6999C6.51647 14.5166 6.4248 14.2832 6.4248 13.9999C6.4248 13.7166 6.51647 13.4832 6.6998 13.2999L11.2998 8.6999C11.4998 8.4999 11.7331 8.3999 11.9998 8.3999C12.2665 8.3999 12.4998 8.4999 12.6998 8.6999L17.2998 13.2999C17.4831 13.4832 17.5748 13.7166 17.5748 13.9999C17.5748 14.2832 17.4831 14.5166 17.2998 14.6999C17.1165 14.8832 16.8831 14.9749 16.5998 14.9749C16.3165 14.9749 16.0831 14.8832 15.8998 14.6999L11.9998 10.7999Z"
    />
  </symbol>
  <symbol id="material-solid-clapboard" viewBox="0 0 24 24">
    <path
      d="M4 4L5.625 7.25C5.74167 7.48333 5.90833 7.66667 6.125 7.8C6.34167 7.93333 6.575 8 6.825 8C7.325 8 7.70833 7.7875 7.975 7.3625C8.24167 6.9375 8.25833 6.5 8.025 6.05L7 4H9L10.625 7.25C10.7417 7.48333 10.9083 7.66667 11.125 7.8C11.3417 7.93333 11.575 8 11.825 8C12.325 8 12.7083 7.7875 12.975 7.3625C13.2417 6.9375 13.2583 6.5 13.025 6.05L12 4H14L15.625 7.25C15.7417 7.48333 15.9083 7.66667 16.125 7.8C16.3417 7.93333 16.575 8 16.825 8C17.325 8 17.7083 7.7875 17.975 7.3625C18.2417 6.9375 18.2583 6.5 18.025 6.05L17 4H20C20.55 4 21.0208 4.19583 21.4125 4.5875C21.8042 4.97917 22 5.45 22 6V18C22 18.55 21.8042 19.0208 21.4125 19.4125C21.0208 19.8042 20.55 20 20 20H4C3.45 20 2.97917 19.8042 2.5875 19.4125C2.19583 19.0208 2 18.55 2 18V6C2 5.45 2.19583 4.97917 2.5875 4.5875C2.97917 4.19583 3.45 4 4 4Z"
    />
  </symbol>
  <symbol id="material-solid-clock" viewBox="0 0 24 24">
    <path
      d="M13.0004 12.5999V8.9999C13.0004 8.71657 12.9046 8.47907 12.7129 8.2874C12.5212 8.09574 12.2837 7.9999 12.0004 7.9999C11.7171 7.9999 11.4796 8.09574 11.2879 8.2874C11.0962 8.47907 11.0004 8.71657 11.0004 8.9999V12.9749C11.0004 13.1082 11.0254 13.2374 11.0754 13.3624C11.1254 13.4874 11.2004 13.5999 11.3004 13.6999L14.1004 16.4999C14.2837 16.6832 14.5171 16.7749 14.8004 16.7749C15.0837 16.7749 15.3171 16.6832 15.5004 16.4999C15.6837 16.3166 15.7754 16.0832 15.7754 15.7999C15.7754 15.5166 15.6837 15.2832 15.5004 15.0999L13.0004 12.5999ZM12.0004 21.9999C10.7504 21.9999 9.57956 21.7624 8.48789 21.2874C7.39622 20.8124 6.44622 20.1707 5.63789 19.3624C4.82956 18.5541 4.18789 17.6041 3.71289 16.5124C3.23789 15.4207 3.00039 14.2499 3.00039 12.9999C3.00039 11.7499 3.23789 10.5791 3.71289 9.4874C4.18789 8.39574 4.82956 7.44574 5.63789 6.6374C6.44622 5.82907 7.39622 5.1874 8.48789 4.7124C9.57956 4.2374 10.7504 3.9999 12.0004 3.9999C13.2504 3.9999 14.4212 4.2374 15.5129 4.7124C16.6046 5.1874 17.5546 5.82907 18.3629 6.6374C19.1712 7.44574 19.8129 8.39574 20.2879 9.4874C20.7629 10.5791 21.0004 11.7499 21.0004 12.9999C21.0004 14.2499 20.7629 15.4207 20.2879 16.5124C19.8129 17.6041 19.1712 18.5541 18.3629 19.3624C17.5546 20.1707 16.6046 20.8124 15.5129 21.2874C14.4212 21.7624 13.2504 21.9999 12.0004 21.9999ZM2.05039 7.2999C1.86706 7.11657 1.77539 6.88324 1.77539 6.5999C1.77539 6.31657 1.86706 6.08324 2.05039 5.8999L4.90039 3.0499C5.08372 2.86657 5.31706 2.7749 5.60039 2.7749C5.88372 2.7749 6.11706 2.86657 6.30039 3.0499C6.48372 3.23324 6.57539 3.46657 6.57539 3.7499C6.57539 4.03324 6.48372 4.26657 6.30039 4.4499L3.45039 7.2999C3.26706 7.48324 3.03372 7.5749 2.75039 7.5749C2.46706 7.5749 2.23372 7.48324 2.05039 7.2999ZM21.9504 7.2999C21.7671 7.48324 21.5337 7.5749 21.2504 7.5749C20.9671 7.5749 20.7337 7.48324 20.5504 7.2999L17.7004 4.4499C17.5171 4.26657 17.4254 4.03324 17.4254 3.7499C17.4254 3.46657 17.5171 3.23324 17.7004 3.0499C17.8837 2.86657 18.1171 2.7749 18.4004 2.7749C18.6837 2.7749 18.9171 2.86657 19.1004 3.0499L21.9504 5.8999C22.1337 6.08324 22.2254 6.31657 22.2254 6.5999C22.2254 6.88324 22.1337 7.11657 21.9504 7.2999Z"
    />
  </symbol>
  <symbol id="material-solid-contract" viewBox="0 0 24 24">
    <path
      d="M9 15H6C5.71667 15 5.47917 14.9042 5.2875 14.7125C5.09583 14.5208 5 14.2833 5 14C5 13.7167 5.09583 13.4792 5.2875 13.2875C5.47917 13.0958 5.71667 13 6 13H10C10.2833 13 10.5208 13.0958 10.7125 13.2875C10.9042 13.4792 11 13.7167 11 14V18C11 18.2833 10.9042 18.5208 10.7125 18.7125C10.5208 18.9042 10.2833 19 10 19C9.71667 19 9.47917 18.9042 9.2875 18.7125C9.09583 18.5208 9 18.2833 9 18V15ZM15 9H18C18.2833 9 18.5208 9.09583 18.7125 9.2875C18.9042 9.47917 19 9.71667 19 10C19 10.2833 18.9042 10.5208 18.7125 10.7125C18.5208 10.9042 18.2833 11 18 11H14C13.7167 11 13.4792 10.9042 13.2875 10.7125C13.0958 10.5208 13 10.2833 13 10V6C13 5.71667 13.0958 5.47917 13.2875 5.2875C13.4792 5.09583 13.7167 5 14 5C14.2833 5 14.5208 5.09583 14.7125 5.2875C14.9042 5.47917 15 5.71667 15 6V9Z"
    />
  </symbol>
  <symbol id="material-solid-document" viewBox="0 0 24 24">
    <path
      d="M9 18H15C15.2833 18 15.5208 17.9042 15.7125 17.7125C15.9042 17.5208 16 17.2833 16 17C16 16.7167 15.9042 16.4792 15.7125 16.2875C15.5208 16.0958 15.2833 16 15 16H9C8.71667 16 8.47917 16.0958 8.2875 16.2875C8.09583 16.4792 8 16.7167 8 17C8 17.2833 8.09583 17.5208 8.2875 17.7125C8.47917 17.9042 8.71667 18 9 18ZM9 14H15C15.2833 14 15.5208 13.9042 15.7125 13.7125C15.9042 13.5208 16 13.2833 16 13C16 12.7167 15.9042 12.4792 15.7125 12.2875C15.5208 12.0958 15.2833 12 15 12H9C8.71667 12 8.47917 12.0958 8.2875 12.2875C8.09583 12.4792 8 12.7167 8 13C8 13.2833 8.09583 13.5208 8.2875 13.7125C8.47917 13.9042 8.71667 14 9 14ZM6 22C5.45 22 4.97917 21.8042 4.5875 21.4125C4.19583 21.0208 4 20.55 4 20V4C4 3.45 4.19583 2.97917 4.5875 2.5875C4.97917 2.19583 5.45 2 6 2H13.175C13.4417 2 13.6958 2.05 13.9375 2.15C14.1792 2.25 14.3917 2.39167 14.575 2.575L19.425 7.425C19.6083 7.60833 19.75 7.82083 19.85 8.0625C19.95 8.30417 20 8.55833 20 8.825V20C20 20.55 19.8042 21.0208 19.4125 21.4125C19.0208 21.8042 18.55 22 18 22H6ZM13 8C13 8.28333 13.0958 8.52083 13.2875 8.7125C13.4792 8.90417 13.7167 9 14 9H18L13 4V8Z"
    />
  </symbol>
  <symbol id="material-solid-down-circle" viewBox="0 0 24 24">
    <path
      d="M11 12.2L10.1 11.3C9.91667 11.1167 9.68333 11.025 9.4 11.025C9.11667 11.025 8.88333 11.1167 8.7 11.3C8.51667 11.4833 8.425 11.7167 8.425 12C8.425 12.2833 8.51667 12.5167 8.7 12.7L11.3 15.3C11.5 15.5 11.7333 15.6 12 15.6C12.2667 15.6 12.5 15.5 12.7 15.3L15.3 12.7C15.4833 12.5167 15.575 12.2833 15.575 12C15.575 11.7167 15.4833 11.4833 15.3 11.3C15.1167 11.1167 14.8833 11.025 14.6 11.025C14.3167 11.025 14.0833 11.1167 13.9 11.3L13 12.2V9C13 8.71667 12.9042 8.47917 12.7125 8.2875C12.5208 8.09583 12.2833 8 12 8C11.7167 8 11.4792 8.09583 11.2875 8.2875C11.0958 8.47917 11 8.71667 11 9V12.2ZM12 22C10.6167 22 9.31667 21.7375 8.1 21.2125C6.88333 20.6875 5.825 19.975 4.925 19.075C4.025 18.175 3.3125 17.1167 2.7875 15.9C2.2625 14.6833 2 13.3833 2 12C2 10.6167 2.2625 9.31667 2.7875 8.1C3.3125 6.88333 4.025 5.825 4.925 4.925C5.825 4.025 6.88333 3.3125 8.1 2.7875C9.31667 2.2625 10.6167 2 12 2C13.3833 2 14.6833 2.2625 15.9 2.7875C17.1167 3.3125 18.175 4.025 19.075 4.925C19.975 5.825 20.6875 6.88333 21.2125 8.1C21.7375 9.31667 22 10.6167 22 12C22 13.3833 21.7375 14.6833 21.2125 15.9C20.6875 17.1167 19.975 18.175 19.075 19.075C18.175 19.975 17.1167 20.6875 15.9 21.2125C14.6833 21.7375 13.3833 22 12 22Z"
    />
  </symbol>
  <symbol id="material-solid-download" viewBox="0 0 24 24">
    <path
      d="M12 15.575C11.8667 15.575 11.7417 15.5542 11.625 15.5125C11.5083 15.4708 11.4 15.4 11.3 15.3L7.7 11.7C7.5 11.5 7.40417 11.2667 7.4125 11C7.42083 10.7333 7.51667 10.5 7.7 10.3C7.9 10.1 8.1375 9.99583 8.4125 9.9875C8.6875 9.97917 8.925 10.075 9.125 10.275L11 12.15V5C11 4.71667 11.0958 4.47917 11.2875 4.2875C11.4792 4.09583 11.7167 4 12 4C12.2833 4 12.5208 4.09583 12.7125 4.2875C12.9042 4.47917 13 4.71667 13 5V12.15L14.875 10.275C15.075 10.075 15.3125 9.97917 15.5875 9.9875C15.8625 9.99583 16.1 10.1 16.3 10.3C16.4833 10.5 16.5792 10.7333 16.5875 11C16.5958 11.2667 16.5 11.5 16.3 11.7L12.7 15.3C12.6 15.4 12.4917 15.4708 12.375 15.5125C12.2583 15.5542 12.1333 15.575 12 15.575ZM6 20C5.45 20 4.97917 19.8042 4.5875 19.4125C4.19583 19.0208 4 18.55 4 18V16C4 15.7167 4.09583 15.4792 4.2875 15.2875C4.47917 15.0958 4.71667 15 5 15C5.28333 15 5.52083 15.0958 5.7125 15.2875C5.90417 15.4792 6 15.7167 6 16V18H18V16C18 15.7167 18.0958 15.4792 18.2875 15.2875C18.4792 15.0958 18.7167 15 19 15C19.2833 15 19.5208 15.0958 19.7125 15.2875C19.9042 15.4792 20 15.7167 20 16V18C20 18.55 19.8042 19.0208 19.4125 19.4125C19.0208 19.8042 18.55 20 18 20H6Z"
    />
  </symbol>
  <symbol id="material-solid-drag" viewBox="0 0 24 24">
    <path
      d="M5 15C4.71667 15 4.47917 14.9042 4.2875 14.7125C4.09583 14.5208 4 14.2833 4 14C4 13.7167 4.09583 13.4792 4.2875 13.2875C4.47917 13.0958 4.71667 13 5 13H19C19.2833 13 19.5208 13.0958 19.7125 13.2875C19.9042 13.4792 20 13.7167 20 14C20 14.2833 19.9042 14.5208 19.7125 14.7125C19.5208 14.9042 19.2833 15 19 15H5ZM5 11C4.71667 11 4.47917 10.9042 4.2875 10.7125C4.09583 10.5208 4 10.2833 4 10C4 9.71667 4.09583 9.47917 4.2875 9.2875C4.47917 9.09583 4.71667 9 5 9H19C19.2833 9 19.5208 9.09583 19.7125 9.2875C19.9042 9.47917 20 9.71667 20 10C20 10.2833 19.9042 10.5208 19.7125 10.7125C19.5208 10.9042 19.2833 11 19 11H5Z"
    />
  </symbol>
  <symbol id="material-solid-exclamation-circle" viewBox="0 0 24 24">
    <path
      d="M12 17C12.2833 17 12.5208 16.9042 12.7125 16.7125C12.9042 16.5208 13 16.2833 13 16C13 15.7167 12.9042 15.4792 12.7125 15.2875C12.5208 15.0958 12.2833 15 12 15C11.7167 15 11.4792 15.0958 11.2875 15.2875C11.0958 15.4792 11 15.7167 11 16C11 16.2833 11.0958 16.5208 11.2875 16.7125C11.4792 16.9042 11.7167 17 12 17ZM12 13C12.2833 13 12.5208 12.9042 12.7125 12.7125C12.9042 12.5208 13 12.2833 13 12V8C13 7.71667 12.9042 7.47917 12.7125 7.2875C12.5208 7.09583 12.2833 7 12 7C11.7167 7 11.4792 7.09583 11.2875 7.2875C11.0958 7.47917 11 7.71667 11 8V12C11 12.2833 11.0958 12.5208 11.2875 12.7125C11.4792 12.9042 11.7167 13 12 13ZM12 22C10.6167 22 9.31667 21.7375 8.1 21.2125C6.88333 20.6875 5.825 19.975 4.925 19.075C4.025 18.175 3.3125 17.1167 2.7875 15.9C2.2625 14.6833 2 13.3833 2 12C2 10.6167 2.2625 9.31667 2.7875 8.1C3.3125 6.88333 4.025 5.825 4.925 4.925C5.825 4.025 6.88333 3.3125 8.1 2.7875C9.31667 2.2625 10.6167 2 12 2C13.3833 2 14.6833 2.2625 15.9 2.7875C17.1167 3.3125 18.175 4.025 19.075 4.925C19.975 5.825 20.6875 6.88333 21.2125 8.1C21.7375 9.31667 22 10.6167 22 12C22 13.3833 21.7375 14.6833 21.2125 15.9C20.6875 17.1167 19.975 18.175 19.075 19.075C18.175 19.975 17.1167 20.6875 15.9 21.2125C14.6833 21.7375 13.3833 22 12 22Z"
    />
  </symbol>
  <symbol id="material-solid-exclamation" viewBox="0 0 24 24">
    <path
      d="M12 21C11.45 21 10.9792 20.8042 10.5875 20.4125C10.1958 20.0208 10 19.55 10 19C10 18.45 10.1958 17.9792 10.5875 17.5875C10.9792 17.1958 11.45 17 12 17C12.55 17 13.0208 17.1958 13.4125 17.5875C13.8042 17.9792 14 18.45 14 19C14 19.55 13.8042 20.0208 13.4125 20.4125C13.0208 20.8042 12.55 21 12 21ZM12 15C11.45 15 10.9792 14.8042 10.5875 14.4125C10.1958 14.0208 10 13.55 10 13V5C10 4.45 10.1958 3.97917 10.5875 3.5875C10.9792 3.19583 11.45 3 12 3C12.55 3 13.0208 3.19583 13.4125 3.5875C13.8042 3.97917 14 4.45 14 5V13C14 13.55 13.8042 14.0208 13.4125 14.4125C13.0208 14.8042 12.55 15 12 15Z"
    />
  </symbol>
  <symbol id="material-solid-expand" viewBox="0 0 24 24">
    <path
      d="M7 17H10C10.2833 17 10.5208 17.0958 10.7125 17.2875C10.9042 17.4792 11 17.7167 11 18C11 18.2833 10.9042 18.5208 10.7125 18.7125C10.5208 18.9042 10.2833 19 10 19H6C5.71667 19 5.47917 18.9042 5.2875 18.7125C5.09583 18.5208 5 18.2833 5 18V14C5 13.7167 5.09583 13.4792 5.2875 13.2875C5.47917 13.0958 5.71667 13 6 13C6.28333 13 6.52083 13.0958 6.7125 13.2875C6.90417 13.4792 7 13.7167 7 14V17ZM17 7H14C13.7167 7 13.4792 6.90417 13.2875 6.7125C13.0958 6.52083 13 6.28333 13 6C13 5.71667 13.0958 5.47917 13.2875 5.2875C13.4792 5.09583 13.7167 5 14 5H18C18.2833 5 18.5208 5.09583 18.7125 5.2875C18.9042 5.47917 19 5.71667 19 6V10C19 10.2833 18.9042 10.5208 18.7125 10.7125C18.5208 10.9042 18.2833 11 18 11C17.7167 11 17.4792 10.9042 17.2875 10.7125C17.0958 10.5208 17 10.2833 17 10V7Z"
    />
  </symbol>
  <symbol id="material-solid-eye" viewBox="0 0 24 24">
    <path
      d="M12.0004 16C13.2504 16 14.3129 15.5625 15.1879 14.6875C16.0629 13.8125 16.5004 12.75 16.5004 11.5C16.5004 10.25 16.0629 9.1875 15.1879 8.3125C14.3129 7.4375 13.2504 7 12.0004 7C10.7504 7 9.68789 7.4375 8.81289 8.3125C7.93789 9.1875 7.50039 10.25 7.50039 11.5C7.50039 12.75 7.93789 13.8125 8.81289 14.6875C9.68789 15.5625 10.7504 16 12.0004 16ZM12.0004 14.2C11.2504 14.2 10.6129 13.9375 10.0879 13.4125C9.56289 12.8875 9.30039 12.25 9.30039 11.5C9.30039 10.75 9.56289 10.1125 10.0879 9.5875C10.6129 9.0625 11.2504 8.8 12.0004 8.8C12.7504 8.8 13.3879 9.0625 13.9129 9.5875C14.4379 10.1125 14.7004 10.75 14.7004 11.5C14.7004 12.25 14.4379 12.8875 13.9129 13.4125C13.3879 13.9375 12.7504 14.2 12.0004 14.2ZM12.0004 19C9.76706 19 7.72956 18.4 5.88789 17.2C4.04622 16 2.59206 14.4167 1.52539 12.45C1.44206 12.3 1.37956 12.1458 1.33789 11.9875C1.29622 11.8292 1.27539 11.6667 1.27539 11.5C1.27539 11.3333 1.29622 11.1708 1.33789 11.0125C1.37956 10.8542 1.44206 10.7 1.52539 10.55C2.59206 8.58333 4.04622 7 5.88789 5.8C7.72956 4.6 9.76706 4 12.0004 4C14.2337 4 16.2712 4.6 18.1129 5.8C19.9546 7 21.4087 8.58333 22.4754 10.55C22.5587 10.7 22.6212 10.8542 22.6629 11.0125C22.7046 11.1708 22.7254 11.3333 22.7254 11.5C22.7254 11.6667 22.7046 11.8292 22.6629 11.9875C22.6212 12.1458 22.5587 12.3 22.4754 12.45C21.4087 14.4167 19.9546 16 18.1129 17.2C16.2712 18.4 14.2337 19 12.0004 19Z"
    />
  </symbol>
  <symbol id="material-solid-file" viewBox="0 0 24 24">
    <path
      d="M6 22C5.45 22 4.97917 21.8042 4.5875 21.4125C4.19583 21.0208 4 20.55 4 20V4C4 3.45 4.19583 2.97917 4.5875 2.5875C4.97917 2.19583 5.45 2 6 2H13.175C13.4417 2 13.6958 2.05 13.9375 2.15C14.1792 2.25 14.3917 2.39167 14.575 2.575L19.425 7.425C19.6083 7.60833 19.75 7.82083 19.85 8.0625C19.95 8.30417 20 8.55833 20 8.825V20C20 20.55 19.8042 21.0208 19.4125 21.4125C19.0208 21.8042 18.55 22 18 22H6ZM13 8C13 8.28333 13.0958 8.52083 13.2875 8.7125C13.4792 8.90417 13.7167 9 14 9H18L13 4V8Z"
    />
  </symbol>
  <symbol id="material-solid-flag" viewBox="0 0 24 24">
    <path
      d="M7 14V20C7 20.2833 6.90417 20.5208 6.7125 20.7125C6.52083 20.9042 6.28333 21 6 21C5.71667 21 5.47917 20.9042 5.2875 20.7125C5.09583 20.5208 5 20.2833 5 20V5C5 4.71667 5.09583 4.47917 5.2875 4.2875C5.47917 4.09583 5.71667 4 6 4H13.175C13.4083 4 13.6167 4.075 13.8 4.225C13.9833 4.375 14.1 4.56667 14.15 4.8L14.4 6H19C19.2833 6 19.5208 6.09583 19.7125 6.2875C19.9042 6.47917 20 6.71667 20 7V15C20 15.2833 19.9042 15.5208 19.7125 15.7125C19.5208 15.9042 19.2833 16 19 16H13.825C13.5917 16 13.3833 15.925 13.2 15.775C13.0167 15.625 12.9 15.4333 12.85 15.2L12.6 14H7Z"
    />
  </symbol>
  <symbol id="material-solid-graduation-hat" viewBox="0 0 24 24">
    <path
      d="M20.9996 15.9999V10.0999L12.9496 14.4749C12.6496 14.6416 12.3329 14.7249 11.9996 14.7249C11.6663 14.7249 11.3496 14.6416 11.0496 14.4749L2.59961 9.8749C2.41628 9.7749 2.28711 9.6499 2.21211 9.4999C2.13711 9.3499 2.09961 9.18324 2.09961 8.9999C2.09961 8.81657 2.13711 8.6499 2.21211 8.4999C2.28711 8.3499 2.41628 8.2249 2.59961 8.1249L11.0496 3.5249C11.1996 3.44157 11.3538 3.37907 11.5121 3.3374C11.6704 3.29574 11.8329 3.2749 11.9996 3.2749C12.1663 3.2749 12.3288 3.29574 12.4871 3.3374C12.6454 3.37907 12.7996 3.44157 12.9496 3.5249L22.4746 8.7249C22.6413 8.80824 22.7704 8.92907 22.8621 9.0874C22.9538 9.24574 22.9996 9.41657 22.9996 9.5999V15.9999C22.9996 16.2832 22.9038 16.5207 22.7121 16.7124C22.5204 16.9041 22.2829 16.9999 21.9996 16.9999C21.7163 16.9999 21.4788 16.9041 21.2871 16.7124C21.0954 16.5207 20.9996 16.2832 20.9996 15.9999ZM11.0496 20.4749L6.04961 17.7749C5.71628 17.5916 5.45794 17.3416 5.27461 17.0249C5.09128 16.7082 4.99961 16.3666 4.99961 15.9999V12.1999L11.0496 15.4749C11.3496 15.6416 11.6663 15.7249 11.9996 15.7249C12.3329 15.7249 12.6496 15.6416 12.9496 15.4749L18.9996 12.1999V15.9999C18.9996 16.3666 18.9079 16.7082 18.7246 17.0249C18.5413 17.3416 18.2829 17.5916 17.9496 17.7749L12.9496 20.4749C12.7996 20.5582 12.6454 20.6207 12.4871 20.6624C12.3288 20.7041 12.1663 20.7249 11.9996 20.7249C11.8329 20.7249 11.6704 20.7041 11.5121 20.6624C11.3538 20.6207 11.1996 20.5582 11.0496 20.4749Z"
    />
  </symbol>
  <symbol id="material-solid-heart" viewBox="0 0 24 24">
    <path
      d="M12 20.3249C11.7667 20.3249 11.5292 20.2832 11.2875 20.1999C11.0458 20.1166 10.8333 19.9832 10.65 19.7999L8.925 18.2249C7.15833 16.6082 5.5625 15.0041 4.1375 13.4124C2.7125 11.8207 2 10.0666 2 8.1499C2 6.58324 2.525 5.2749 3.575 4.2249C4.625 3.1749 5.93333 2.6499 7.5 2.6499C8.38333 2.6499 9.21667 2.8374 10 3.2124C10.7833 3.5874 11.45 4.0999 12 4.7499C12.55 4.0999 13.2167 3.5874 14 3.2124C14.7833 2.8374 15.6167 2.6499 16.5 2.6499C18.0667 2.6499 19.375 3.1749 20.425 4.2249C21.475 5.2749 22 6.58324 22 8.1499C22 10.0666 21.2917 11.8249 19.875 13.4249C18.4583 15.0249 16.85 16.6332 15.05 18.2499L13.35 19.7999C13.1667 19.9832 12.9542 20.1166 12.7125 20.1999C12.4708 20.2832 12.2333 20.3249 12 20.3249Z"
    />
  </symbol>
  <symbol id="material-solid-highlighter" viewBox="0 0 24 24">
    <path
      d="M4 24C3.45 24 2.97917 23.8042 2.5875 23.4125C2.19583 23.0208 2 22.55 2 22C2 21.45 2.19583 20.9792 2.5875 20.5875C2.97917 20.1958 3.45 20 4 20H20C20.55 20 21.0208 20.1958 21.4125 20.5875C21.8042 20.9792 22 21.45 22 22C22 22.55 21.8042 23.0208 21.4125 23.4125C21.0208 23.8042 20.55 24 20 24H4ZM10.6 8L16 13.425L12 17.425C11.6 17.825 11.1292 18.025 10.5875 18.025C10.0458 18.025 9.575 17.825 9.175 17.425L9.05 17.525C8.86667 17.675 8.66667 17.7917 8.45 17.875C8.23333 17.9583 8.00833 18 7.775 18H4.725C4.49167 18 4.32917 17.9 4.2375 17.7C4.14583 17.5 4.18333 17.3167 4.35 17.15L6.65 14.875C6.25 14.475 6.04167 13.9958 6.025 13.4375C6.00833 12.8792 6.2 12.4 6.6 12L10.6 8ZM12 6.575L16 2.6C16.4 2.2 16.8708 2 17.4125 2C17.9542 2 18.425 2.2 18.825 2.6L21.425 5.175C21.825 5.575 22.025 6.04583 22.025 6.5875C22.025 7.12917 21.825 7.6 21.425 8L17.425 12L12 6.575Z"
    />
  </symbol>
  <symbol id="material-solid-home" viewBox="0 0 24 24">
    <path
      d="M4 19V10C4 9.68333 4.07083 9.38333 4.2125 9.1C4.35417 8.81667 4.55 8.58333 4.8 8.4L10.8 3.9C11.15 3.63333 11.55 3.5 12 3.5C12.45 3.5 12.85 3.63333 13.2 3.9L19.2 8.4C19.45 8.58333 19.6458 8.81667 19.7875 9.1C19.9292 9.38333 20 9.68333 20 10V19C20 19.55 19.8042 20.0208 19.4125 20.4125C19.0208 20.8042 18.55 21 18 21H15C14.7167 21 14.4792 20.9042 14.2875 20.7125C14.0958 20.5208 14 20.2833 14 20V15C14 14.7167 13.9042 14.4792 13.7125 14.2875C13.5208 14.0958 13.2833 14 13 14H11C10.7167 14 10.4792 14.0958 10.2875 14.2875C10.0958 14.4792 10 14.7167 10 15V20C10 20.2833 9.90417 20.5208 9.7125 20.7125C9.52083 20.9042 9.28333 21 9 21H6C5.45 21 4.97917 20.8042 4.5875 20.4125C4.19583 20.0208 4 19.55 4 19Z"
    />
  </symbol>
  <symbol id="material-solid-key" viewBox="0 0 24 24">
    <path
      d="M7 15C6.16667 15 5.45833 14.7083 4.875 14.125C4.29167 13.5417 4 12.8333 4 12C4 11.1667 4.29167 10.4583 4.875 9.875C5.45833 9.29167 6.16667 9 7 9C7.83333 9 8.54167 9.29167 9.125 9.875C9.70833 10.4583 10 11.1667 10 12C10 12.8333 9.70833 13.5417 9.125 14.125C8.54167 14.7083 7.83333 15 7 15ZM7 18C8.28333 18 9.44167 17.6333 10.475 16.9C11.5083 16.1667 12.2333 15.2 12.65 14H13L14.3 15.3C14.4 15.4 14.5083 15.4708 14.625 15.5125C14.7417 15.5542 14.8667 15.575 15 15.575C15.1333 15.575 15.2583 15.5542 15.375 15.5125C15.4917 15.4708 15.6 15.4 15.7 15.3L17 14L18.75 15.375C18.85 15.4583 18.9625 15.5208 19.0875 15.5625C19.2125 15.6042 19.3417 15.6167 19.475 15.6C19.6083 15.5833 19.7292 15.5458 19.8375 15.4875C19.9458 15.4292 20.0417 15.35 20.125 15.25L22.375 12.675C22.4583 12.575 22.5208 12.4667 22.5625 12.35C22.6042 12.2333 22.625 12.1083 22.625 11.975C22.625 11.8417 22.6 11.7208 22.55 11.6125C22.5 11.5042 22.4333 11.4083 22.35 11.325L21.325 10.3C21.225 10.2 21.1125 10.125 20.9875 10.075C20.8625 10.025 20.7333 10 20.6 10H12.65C12.25 8.86667 11.5458 7.91667 10.5375 7.15C9.52917 6.38333 8.35 6 7 6C5.33333 6 3.91667 6.58333 2.75 7.75C1.58333 8.91667 1 10.3333 1 12C1 13.6667 1.58333 15.0833 2.75 16.25C3.91667 17.4167 5.33333 18 7 18Z"
    />
  </symbol>
  <symbol id="material-solid-keyboard" viewBox="0 0 24 24">
    <path
      d="M4 19C3.45 19 2.97917 18.8042 2.5875 18.4125C2.19583 18.0208 2 17.55 2 17V7C2 6.45 2.19583 5.97917 2.5875 5.5875C2.97917 5.19583 3.45 5 4 5H20C20.55 5 21.0208 5.19583 21.4125 5.5875C21.8042 5.97917 22 6.45 22 7V17C22 17.55 21.8042 18.0208 21.4125 18.4125C21.0208 18.8042 20.55 19 20 19H4ZM9 16H15C15.2833 16 15.5208 15.9042 15.7125 15.7125C15.9042 15.5208 16 15.2833 16 15C16 14.7167 15.9042 14.4792 15.7125 14.2875C15.5208 14.0958 15.2833 14 15 14H9C8.71667 14 8.47917 14.0958 8.2875 14.2875C8.09583 14.4792 8 14.7167 8 15C8 15.2833 8.09583 15.5208 8.2875 15.7125C8.47917 15.9042 8.71667 16 9 16ZM6 10C6.28333 10 6.52083 9.90417 6.7125 9.7125C6.90417 9.52083 7 9.28333 7 9C7 8.71667 6.90417 8.47917 6.7125 8.2875C6.52083 8.09583 6.28333 8 6 8C5.71667 8 5.47917 8.09583 5.2875 8.2875C5.09583 8.47917 5 8.71667 5 9C5 9.28333 5.09583 9.52083 5.2875 9.7125C5.47917 9.90417 5.71667 10 6 10ZM9 10C9.28333 10 9.52083 9.90417 9.7125 9.7125C9.90417 9.52083 10 9.28333 10 9C10 8.71667 9.90417 8.47917 9.7125 8.2875C9.52083 8.09583 9.28333 8 9 8C8.71667 8 8.47917 8.09583 8.2875 8.2875C8.09583 8.47917 8 8.71667 8 9C8 9.28333 8.09583 9.52083 8.2875 9.7125C8.47917 9.90417 8.71667 10 9 10ZM12 10C12.2833 10 12.5208 9.90417 12.7125 9.7125C12.9042 9.52083 13 9.28333 13 9C13 8.71667 12.9042 8.47917 12.7125 8.2875C12.5208 8.09583 12.2833 8 12 8C11.7167 8 11.4792 8.09583 11.2875 8.2875C11.0958 8.47917 11 8.71667 11 9C11 9.28333 11.0958 9.52083 11.2875 9.7125C11.4792 9.90417 11.7167 10 12 10ZM15 10C15.2833 10 15.5208 9.90417 15.7125 9.7125C15.9042 9.52083 16 9.28333 16 9C16 8.71667 15.9042 8.47917 15.7125 8.2875C15.5208 8.09583 15.2833 8 15 8C14.7167 8 14.4792 8.09583 14.2875 8.2875C14.0958 8.47917 14 8.71667 14 9C14 9.28333 14.0958 9.52083 14.2875 9.7125C14.4792 9.90417 14.7167 10 15 10ZM18 10C18.2833 10 18.5208 9.90417 18.7125 9.7125C18.9042 9.52083 19 9.28333 19 9C19 8.71667 18.9042 8.47917 18.7125 8.2875C18.5208 8.09583 18.2833 8 18 8C17.7167 8 17.4792 8.09583 17.2875 8.2875C17.0958 8.47917 17 8.71667 17 9C17 9.28333 17.0958 9.52083 17.2875 9.7125C17.4792 9.90417 17.7167 10 18 10ZM6 13C6.28333 13 6.52083 12.9042 6.7125 12.7125C6.90417 12.5208 7 12.2833 7 12C7 11.7167 6.90417 11.4792 6.7125 11.2875C6.52083 11.0958 6.28333 11 6 11C5.71667 11 5.47917 11.0958 5.2875 11.2875C5.09583 11.4792 5 11.7167 5 12C5 12.2833 5.09583 12.5208 5.2875 12.7125C5.47917 12.9042 5.71667 13 6 13ZM9 13C9.28333 13 9.52083 12.9042 9.7125 12.7125C9.90417 12.5208 10 12.2833 10 12C10 11.7167 9.90417 11.4792 9.7125 11.2875C9.52083 11.0958 9.28333 11 9 11C8.71667 11 8.47917 11.0958 8.2875 11.2875C8.09583 11.4792 8 11.7167 8 12C8 12.2833 8.09583 12.5208 8.2875 12.7125C8.47917 12.9042 8.71667 13 9 13ZM12 13C12.2833 13 12.5208 12.9042 12.7125 12.7125C12.9042 12.5208 13 12.2833 13 12C13 11.7167 12.9042 11.4792 12.7125 11.2875C12.5208 11.0958 12.2833 11 12 11C11.7167 11 11.4792 11.0958 11.2875 11.2875C11.0958 11.4792 11 11.7167 11 12C11 12.2833 11.0958 12.5208 11.2875 12.7125C11.4792 12.9042 11.7167 13 12 13ZM15 13C15.2833 13 15.5208 12.9042 15.7125 12.7125C15.9042 12.5208 16 12.2833 16 12C16 11.7167 15.9042 11.4792 15.7125 11.2875C15.5208 11.0958 15.2833 11 15 11C14.7167 11 14.4792 11.0958 14.2875 11.2875C14.0958 11.4792 14 11.7167 14 12C14 12.2833 14.0958 12.5208 14.2875 12.7125C14.4792 12.9042 14.7167 13 15 13ZM18 13C18.2833 13 18.5208 12.9042 18.7125 12.7125C18.9042 12.5208 19 12.2833 19 12C19 11.7167 18.9042 11.4792 18.7125 11.2875C18.5208 11.0958 18.2833 11 18 11C17.7167 11 17.4792 11.0958 17.2875 11.2875C17.0958 11.4792 17 11.7167 17 12C17 12.2833 17.0958 12.5208 17.2875 12.7125C17.4792 12.9042 17.7167 13 18 13Z"
    />
  </symbol>
  <symbol id="material-solid-left-circle" viewBox="0 0 24 24">
    <path
      d="M11.8 13H15C15.2833 13 15.5208 12.9042 15.7125 12.7125C15.9042 12.5208 16 12.2833 16 12C16 11.7167 15.9042 11.4792 15.7125 11.2875C15.5208 11.0958 15.2833 11 15 11H11.8L12.7 10.1C12.8833 9.91667 12.975 9.68333 12.975 9.4C12.975 9.11667 12.8833 8.88333 12.7 8.7C12.5167 8.51667 12.2833 8.425 12 8.425C11.7167 8.425 11.4833 8.51667 11.3 8.7L8.7 11.3C8.5 11.5 8.4 11.7333 8.4 12C8.4 12.2667 8.5 12.5 8.7 12.7L11.3 15.3C11.4833 15.4833 11.7167 15.575 12 15.575C12.2833 15.575 12.5167 15.4833 12.7 15.3C12.8833 15.1167 12.975 14.8833 12.975 14.6C12.975 14.3167 12.8833 14.0833 12.7 13.9L11.8 13ZM12 22C10.6167 22 9.31667 21.7375 8.1 21.2125C6.88333 20.6875 5.825 19.975 4.925 19.075C4.025 18.175 3.3125 17.1167 2.7875 15.9C2.2625 14.6833 2 13.3833 2 12C2 10.6167 2.2625 9.31667 2.7875 8.1C3.3125 6.88333 4.025 5.825 4.925 4.925C5.825 4.025 6.88333 3.3125 8.1 2.7875C9.31667 2.2625 10.6167 2 12 2C13.3833 2 14.6833 2.2625 15.9 2.7875C17.1167 3.3125 18.175 4.025 19.075 4.925C19.975 5.825 20.6875 6.88333 21.2125 8.1C21.7375 9.31667 22 10.6167 22 12C22 13.3833 21.7375 14.6833 21.2125 15.9C20.6875 17.1167 19.975 18.175 19.075 19.075C18.175 19.975 17.1167 20.6875 15.9 21.2125C14.6833 21.7375 13.3833 22 12 22Z"
    />
  </symbol>
  <symbol id="material-solid-license" viewBox="0 0 24 24">
    <path
      d="M18 13C18.2833 13 18.5208 12.9042 18.7125 12.7125C18.9042 12.5208 19 12.2833 19 12C19 11.7167 18.9042 11.4792 18.7125 11.2875C18.5208 11.0958 18.2833 11 18 11H15C14.7167 11 14.4792 11.0958 14.2875 11.2875C14.0958 11.4792 14 11.7167 14 12C14 12.2833 14.0958 12.5208 14.2875 12.7125C14.4792 12.9042 14.7167 13 15 13H18ZM18 10C18.2833 10 18.5208 9.90417 18.7125 9.7125C18.9042 9.52083 19 9.28333 19 9C19 8.71667 18.9042 8.47917 18.7125 8.2875C18.5208 8.09583 18.2833 8 18 8H15C14.7167 8 14.4792 8.09583 14.2875 8.2875C14.0958 8.47917 14 8.71667 14 9C14 9.28333 14.0958 9.52083 14.2875 9.7125C14.4792 9.90417 14.7167 10 15 10H18ZM9 13C8.4 13 7.85833 13.0542 7.375 13.1625C6.89167 13.2708 6.46667 13.4417 6.1 13.675C5.75 13.8917 5.48333 14.1375 5.3 14.4125C5.11667 14.6875 5.025 14.9833 5.025 15.3C5.025 15.5 5.1 15.6667 5.25 15.8C5.4 15.9333 5.58333 16 5.8 16H12.2C12.4167 16 12.6 15.9292 12.75 15.7875C12.9 15.6458 12.975 15.4667 12.975 15.25C12.975 14.9667 12.8833 14.6917 12.7 14.425C12.5167 14.1583 12.25 13.9083 11.9 13.675C11.5333 13.4417 11.1083 13.2708 10.625 13.1625C10.1417 13.0542 9.6 13 9 13ZM9 12C9.55 12 10.0208 11.8042 10.4125 11.4125C10.8042 11.0208 11 10.55 11 10C11 9.45 10.8042 8.97917 10.4125 8.5875C10.0208 8.19583 9.55 8 9 8C8.45 8 7.97917 8.19583 7.5875 8.5875C7.19583 8.97917 7 9.45 7 10C7 10.55 7.19583 11.0208 7.5875 11.4125C7.97917 11.8042 8.45 12 9 12ZM4 20C3.45 20 2.97917 19.8042 2.5875 19.4125C2.19583 19.0208 2 18.55 2 18V6C2 5.45 2.19583 4.97917 2.5875 4.5875C2.97917 4.19583 3.45 4 4 4H20C20.55 4 21.0208 4.19583 21.4125 4.5875C21.8042 4.97917 22 5.45 22 6V18C22 18.55 21.8042 19.0208 21.4125 19.4125C21.0208 19.8042 20.55 20 20 20H4Z"
    />
  </symbol>
  <symbol id="material-solid-lightbulb" viewBox="0 0 24 24">
    <path
      d="M12 22C11.45 22 10.9792 21.8042 10.5875 21.4125C10.1958 21.0208 10 20.55 10 20H14C14 20.55 13.8042 21.0208 13.4125 21.4125C13.0208 21.8042 12.55 22 12 22ZM9 19C8.71667 19 8.47917 18.9042 8.2875 18.7125C8.09583 18.5208 8 18.2833 8 18C8 17.7167 8.09583 17.4792 8.2875 17.2875C8.47917 17.0958 8.71667 17 9 17H15C15.2833 17 15.5208 17.0958 15.7125 17.2875C15.9042 17.4792 16 17.7167 16 18C16 18.2833 15.9042 18.5208 15.7125 18.7125C15.5208 18.9042 15.2833 19 15 19H9ZM8.25 16C7.1 15.3167 6.1875 14.4 5.5125 13.25C4.8375 12.1 4.5 10.85 4.5 9.5C4.5 7.41667 5.22917 5.64583 6.6875 4.1875C8.14583 2.72917 9.91667 2 12 2C14.0833 2 15.8542 2.72917 17.3125 4.1875C18.7708 5.64583 19.5 7.41667 19.5 9.5C19.5 10.85 19.1625 12.1 18.4875 13.25C17.8125 14.4 16.9 15.3167 15.75 16H8.25Z"
    />
  </symbol>
  <symbol id="material-solid-line-graph" viewBox="0 0 24 24">
    <path
      d="M4 21.0001C3.71667 21.0001 3.47917 20.9043 3.2875 20.7126C3.09583 20.5209 3 20.2834 3 20.0001V19.0001C3 18.7168 3.09583 18.4793 3.2875 18.2876C3.47917 18.0959 3.71667 18.0001 4 18.0001C4.28333 18.0001 4.52083 18.0959 4.7125 18.2876C4.90417 18.4793 5 18.7168 5 19.0001V20.0001C5 20.2834 4.90417 20.5209 4.7125 20.7126C4.52083 20.9043 4.28333 21.0001 4 21.0001ZM8 21.0001C7.71667 21.0001 7.47917 20.9043 7.2875 20.7126C7.09583 20.5209 7 20.2834 7 20.0001V14.5001C7 14.2168 7.09583 13.9793 7.2875 13.7876C7.47917 13.5959 7.71667 13.5001 8 13.5001C8.28333 13.5001 8.52083 13.5959 8.7125 13.7876C8.90417 13.9793 9 14.2168 9 14.5001V20.0001C9 20.2834 8.90417 20.5209 8.7125 20.7126C8.52083 20.9043 8.28333 21.0001 8 21.0001ZM12 21.0001C11.7167 21.0001 11.4792 20.9043 11.2875 20.7126C11.0958 20.5209 11 20.2834 11 20.0001V16.5001C11 16.2168 11.0958 15.9793 11.2875 15.7876C11.4792 15.5959 11.7167 15.5001 12 15.5001C12.2833 15.5001 12.5208 15.5959 12.7125 15.7876C12.9042 15.9793 13 16.2168 13 16.5001V20.0001C13 20.2834 12.9042 20.5209 12.7125 20.7126C12.5208 20.9043 12.2833 21.0001 12 21.0001ZM16 21.0001C15.7167 21.0001 15.4792 20.9043 15.2875 20.7126C15.0958 20.5209 15 20.2834 15 20.0001V15.0001C15 14.7168 15.0958 14.4793 15.2875 14.2876C15.4792 14.0959 15.7167 14.0001 16 14.0001C16.2833 14.0001 16.5208 14.0959 16.7125 14.2876C16.9042 14.4793 17 14.7168 17 15.0001V20.0001C17 20.2834 16.9042 20.5209 16.7125 20.7126C16.5208 20.9043 16.2833 21.0001 16 21.0001ZM20 21.0001C19.7167 21.0001 19.4792 20.9043 19.2875 20.7126C19.0958 20.5209 19 20.2834 19 20.0001V11.0001C19 10.7168 19.0958 10.4793 19.2875 10.2876C19.4792 10.0959 19.7167 10.0001 20 10.0001C20.2833 10.0001 20.5208 10.0959 20.7125 10.2876C20.9042 10.4793 21 10.7168 21 11.0001V20.0001C21 20.2834 20.9042 20.5209 20.7125 20.7126C20.5208 20.9043 20.2833 21.0001 20 21.0001ZM14 11.9751C13.7333 11.9751 13.4792 11.9251 13.2375 11.8251C12.9958 11.7251 12.775 11.5834 12.575 11.4001L10 8.82511L4.7 14.1251C4.5 14.3251 4.2625 14.4209 3.9875 14.4126C3.7125 14.4043 3.475 14.3001 3.275 14.1001C3.09167 13.9001 3.00417 13.6626 3.0125 13.3876C3.02083 13.1126 3.11667 12.8834 3.3 12.7001L8.575 7.42511C8.775 7.22511 8.99583 7.07928 9.2375 6.98761C9.47917 6.89594 9.73333 6.85011 10 6.85011C10.2667 6.85011 10.525 6.89594 10.775 6.98761C11.025 7.07928 11.2417 7.22511 11.425 7.42511L14 10.0001L19.3 4.70011C19.5 4.50011 19.7375 4.40428 20.0125 4.41261C20.2875 4.42094 20.525 4.52511 20.725 4.72511C20.9083 4.92511 20.9958 5.16261 20.9875 5.43761C20.9792 5.71261 20.8833 5.94178 20.7 6.12511L15.425 11.4001C15.2417 11.5834 15.025 11.7251 14.775 11.8251C14.525 11.9251 14.2667 11.9751 14 11.9751Z"
    />
  </symbol>
  <symbol id="material-solid-lock" viewBox="0 0 24 24">
    <path
      d="M6 22C5.45 22 4.97917 21.8042 4.5875 21.4125C4.19583 21.0208 4 20.55 4 20V10C4 9.45 4.19583 8.97917 4.5875 8.5875C4.97917 8.19583 5.45 8 6 8H7V6C7 4.61667 7.4875 3.4375 8.4625 2.4625C9.4375 1.4875 10.6167 1 12 1C13.3833 1 14.5625 1.4875 15.5375 2.4625C16.5125 3.4375 17 4.61667 17 6V8H18C18.55 8 19.0208 8.19583 19.4125 8.5875C19.8042 8.97917 20 9.45 20 10V20C20 20.55 19.8042 21.0208 19.4125 21.4125C19.0208 21.8042 18.55 22 18 22H6ZM12 17C12.55 17 13.0208 16.8042 13.4125 16.4125C13.8042 16.0208 14 15.55 14 15C14 14.45 13.8042 13.9792 13.4125 13.5875C13.0208 13.1958 12.55 13 12 13C11.45 13 10.9792 13.1958 10.5875 13.5875C10.1958 13.9792 10 14.45 10 15C10 15.55 10.1958 16.0208 10.5875 16.4125C10.9792 16.8042 11.45 17 12 17ZM9 8H15V6C15 5.16667 14.7083 4.45833 14.125 3.875C13.5417 3.29167 12.8333 3 12 3C11.1667 3 10.4583 3.29167 9.875 3.875C9.29167 4.45833 9 5.16667 9 6V8Z"
    />
  </symbol>
  <symbol id="material-solid-medal" viewBox="0 0 24 24">
    <path
      d="M7.475 21C5.95833 21 4.66667 20.4667 3.6 19.4C2.53333 18.3333 2 17.0417 2 15.525C2 14.0917 2.47917 12.8542 3.4375 11.8125C4.39583 10.7708 5.59167 10.1917 7.025 10.075L3.725 3.45C3.55833 3.11667 3.57083 2.79167 3.7625 2.475C3.95417 2.15833 4.24167 2 4.625 2H8.775C9.15833 2 9.50417 2.1 9.8125 2.3C10.1208 2.5 10.3667 2.76667 10.55 3.1L12 6L13.45 3.1C13.6333 2.76667 13.8792 2.5 14.1875 2.3C14.4958 2.1 14.8417 2 15.225 2H19.375C19.7583 2 20.0458 2.15833 20.2375 2.475C20.4292 2.79167 20.4417 3.11667 20.275 3.45L17 10.025C18.4167 10.1583 19.6042 10.7458 20.5625 11.7875C21.5208 12.8292 22 14.0667 22 15.5C22 17.0333 21.4667 18.3333 20.4 19.4C19.3333 20.4667 18.0333 21 16.5 21C16.35 21 16.1958 20.9958 16.0375 20.9875C15.8792 20.9792 15.725 20.9583 15.575 20.925C16.4917 20.325 17.2083 19.5458 17.725 18.5875C18.2417 17.6292 18.5 16.6 18.5 15.5C18.5 13.6833 17.8708 12.1458 16.6125 10.8875C15.3542 9.62917 13.8167 9 12 9C10.1833 9 8.64583 9.62917 7.3875 10.8875C6.12917 12.1458 5.5 13.6833 5.5 15.5C5.5 16.6333 5.73333 17.7 6.2 18.7C6.66667 19.7 7.4 20.4417 8.4 20.925C8.25 20.9583 8.09583 20.9792 7.9375 20.9875C7.77917 20.9958 7.625 21 7.475 21ZM12 20C10.75 20 9.6875 19.5625 8.8125 18.6875C7.9375 17.8125 7.5 16.75 7.5 15.5C7.5 14.25 7.9375 13.1875 8.8125 12.3125C9.6875 11.4375 10.75 11 12 11C13.25 11 14.3125 11.4375 15.1875 12.3125C16.0625 13.1875 16.5 14.25 16.5 15.5C16.5 16.75 16.0625 17.8125 15.1875 18.6875C14.3125 19.5625 13.25 20 12 20ZM12 16.85L13.225 17.775C13.325 17.8583 13.425 17.8625 13.525 17.7875C13.625 17.7125 13.6583 17.6167 13.625 17.5L13.15 15.975L14.375 15.1C14.475 15.0167 14.5083 14.9208 14.475 14.8125C14.4417 14.7042 14.3583 14.65 14.225 14.65H12.725L12.25 13.025C12.2167 12.9083 12.1333 12.85 12 12.85C11.8667 12.85 11.7833 12.9083 11.75 13.025L11.275 14.65H9.775C9.64167 14.65 9.55833 14.7042 9.525 14.8125C9.49167 14.9208 9.525 15.0167 9.625 15.1L10.85 15.975L10.375 17.5C10.3417 17.6167 10.375 17.7125 10.475 17.7875C10.575 17.8625 10.675 17.8583 10.775 17.775L12 16.85Z"
    />
  </symbol>
  <symbol id="material-solid-megaphone" viewBox="0 0 24 24">
    <path
      d="M21 12.9999H19C18.7167 12.9999 18.4792 12.9041 18.2875 12.7124C18.0958 12.5208 18 12.2833 18 11.9999C18 11.7166 18.0958 11.4791 18.2875 11.2874C18.4792 11.0958 18.7167 10.9999 19 10.9999H21C21.2833 10.9999 21.5208 11.0958 21.7125 11.2874C21.9042 11.4791 22 11.7166 22 11.9999C22 12.2833 21.9042 12.5208 21.7125 12.7124C21.5208 12.9041 21.2833 12.9999 21 12.9999ZM16.6 16.7999C16.7667 16.5666 16.9833 16.4333 17.25 16.3999C17.5167 16.3666 17.7667 16.4333 18 16.5999L19.6 17.7999C19.8333 17.9666 19.9667 18.1833 20 18.4499C20.0333 18.7166 19.9667 18.9666 19.8 19.1999C19.6333 19.4333 19.4167 19.5666 19.15 19.5999C18.8833 19.6333 18.6333 19.5666 18.4 19.3999L16.8 18.1999C16.5667 18.0333 16.4333 17.8166 16.4 17.5499C16.3667 17.2833 16.4333 17.0333 16.6 16.7999ZM19.6 6.19993L18 7.39994C17.7667 7.5666 17.5167 7.63327 17.25 7.59993C16.9833 7.5666 16.7667 7.43327 16.6 7.19993C16.4333 6.9666 16.3667 6.7166 16.4 6.44993C16.4333 6.18327 16.5667 5.9666 16.8 5.79993L18.4 4.59993C18.6333 4.43327 18.8833 4.3666 19.15 4.39993C19.4167 4.43327 19.6333 4.5666 19.8 4.79993C19.9667 5.03327 20.0333 5.28327 20 5.54993C19.9667 5.8166 19.8333 6.03327 19.6 6.19993ZM5 14.9999H4C3.45 14.9999 2.97917 14.8041 2.5875 14.4124C2.19583 14.0208 2 13.5499 2 12.9999V10.9999C2 10.4499 2.19583 9.9791 2.5875 9.58743C2.97917 9.19577 3.45 8.99993 4 8.99993H8L11.475 6.89994C11.8083 6.69993 12.1458 6.69993 12.4875 6.89994C12.8292 7.09994 13 7.3916 13 7.77493V16.2249C13 16.6083 12.8292 16.8999 12.4875 17.0999C12.1458 17.2999 11.8083 17.2999 11.475 17.0999L8 14.9999H7V17.9999C7 18.2833 6.90417 18.5208 6.7125 18.7124C6.52083 18.9041 6.28333 18.9999 6 18.9999C5.71667 18.9999 5.47917 18.9041 5.2875 18.7124C5.09583 18.5208 5 18.2833 5 17.9999V14.9999ZM14 15.3499V8.64993C14.45 9.04993 14.8125 9.53744 15.0875 10.1124C15.3625 10.6874 15.5 11.3166 15.5 11.9999C15.5 12.6833 15.3625 13.3124 15.0875 13.8874C14.8125 14.4624 14.45 14.9499 14 15.3499Z"
    />
  </symbol>
  <symbol id="material-solid-menu" viewBox="0 0 24 24">
    <path
      d="M4 18C3.71667 18 3.47917 17.9042 3.2875 17.7125C3.09583 17.5208 3 17.2833 3 17C3 16.7167 3.09583 16.4792 3.2875 16.2875C3.47917 16.0958 3.71667 16 4 16H20C20.2833 16 20.5208 16.0958 20.7125 16.2875C20.9042 16.4792 21 16.7167 21 17C21 17.2833 20.9042 17.5208 20.7125 17.7125C20.5208 17.9042 20.2833 18 20 18H4ZM4 13C3.71667 13 3.47917 12.9042 3.2875 12.7125C3.09583 12.5208 3 12.2833 3 12C3 11.7167 3.09583 11.4792 3.2875 11.2875C3.47917 11.0958 3.71667 11 4 11H20C20.2833 11 20.5208 11.0958 20.7125 11.2875C20.9042 11.4792 21 11.7167 21 12C21 12.2833 20.9042 12.5208 20.7125 12.7125C20.5208 12.9042 20.2833 13 20 13H4ZM4 8C3.71667 8 3.47917 7.90417 3.2875 7.7125C3.09583 7.52083 3 7.28333 3 7C3 6.71667 3.09583 6.47917 3.2875 6.2875C3.47917 6.09583 3.71667 6 4 6H20C20.2833 6 20.5208 6.09583 20.7125 6.2875C20.9042 6.47917 21 6.71667 21 7C21 7.28333 20.9042 7.52083 20.7125 7.7125C20.5208 7.90417 20.2833 8 20 8H4Z"
    />
  </symbol>
  <symbol id="material-solid-minus" viewBox="0 0 24 24">
    <path
      d="M6 13C5.71667 13 5.47917 12.9042 5.2875 12.7125C5.09583 12.5208 5 12.2833 5 12C5 11.7167 5.09583 11.4792 5.2875 11.2875C5.47917 11.0958 5.71667 11 6 11H18C18.2833 11 18.5208 11.0958 18.7125 11.2875C18.9042 11.4792 19 11.7167 19 12C19 12.2833 18.9042 12.5208 18.7125 12.7125C18.5208 12.9042 18.2833 13 18 13H6Z"
    />
  </symbol>
  <symbol id="material-solid-mouse" viewBox="0 0 24 24">
    <path
      d="M12 22.0002C10.05 22.0002 8.39583 21.321 7.0375 19.9627C5.67917 18.6044 5 16.9502 5 15.0002V11.0002H19V15.0002C19 16.9502 18.3208 18.6044 16.9625 19.9627C15.6042 21.321 13.95 22.0002 12 22.0002ZM5 9.0002C5 7.2502 5.56667 5.72103 6.7 4.4127C7.83333 3.10436 9.26667 2.3252 11 2.0752V9.0002H5ZM13 9.0002V2.0752C14.7333 2.3252 16.1667 3.10436 17.3 4.4127C18.4333 5.72103 19 7.2502 19 9.0002H13Z"
    />
  </symbol>
  <symbol id="material-solid-mute" viewBox="0 0 24 24">
    <path
      d="M18 13.4L16.1 15.3C15.9167 15.4833 15.6833 15.575 15.4 15.575C15.1167 15.575 14.8833 15.4833 14.7 15.3C14.5167 15.1166 14.425 14.8833 14.425 14.6C14.425 14.3166 14.5167 14.0833 14.7 13.9L16.6 12L14.7 10.1C14.5167 9.91664 14.425 9.68331 14.425 9.39998C14.425 9.11664 14.5167 8.88331 14.7 8.69998C14.8833 8.51664 15.1167 8.42498 15.4 8.42498C15.6833 8.42498 15.9167 8.51664 16.1 8.69998L18 10.6L19.9 8.69998C20.0833 8.51664 20.3167 8.42498 20.6 8.42498C20.8833 8.42498 21.1167 8.51664 21.3 8.69998C21.4833 8.88331 21.575 9.11664 21.575 9.39998C21.575 9.68331 21.4833 9.91664 21.3 10.1L19.4 12L21.3 13.9C21.4833 14.0833 21.575 14.3166 21.575 14.6C21.575 14.8833 21.4833 15.1166 21.3 15.3C21.1167 15.4833 20.8833 15.575 20.6 15.575C20.3167 15.575 20.0833 15.4833 19.9 15.3L18 13.4ZM7 15H4C3.71667 15 3.47917 14.9041 3.2875 14.7125C3.09583 14.5208 3 14.2833 3 14V9.99998C3 9.71664 3.09583 9.47914 3.2875 9.28748C3.47917 9.09581 3.71667 8.99998 4 8.99998H7L10.3 5.69998C10.6167 5.38331 10.9792 5.31248 11.3875 5.48748C11.7958 5.66248 12 5.97498 12 6.42498V17.575C12 18.025 11.7958 18.3375 11.3875 18.5125C10.9792 18.6875 10.6167 18.6166 10.3 18.3L7 15Z"
    />
  </symbol>
  <symbol id="material-solid-notification" viewBox="0 0 24 24">
    <path
      d="M5 19C4.71667 19 4.47917 18.9042 4.2875 18.7125C4.09583 18.5208 4 18.2833 4 18C4 17.7167 4.09583 17.4792 4.2875 17.2875C4.47917 17.0958 4.71667 17 5 17H6V10C6 8.61667 6.41667 7.3875 7.25 6.3125C8.08333 5.2375 9.16667 4.53333 10.5 4.2V3.5C10.5 3.08333 10.6458 2.72917 10.9375 2.4375C11.2292 2.14583 11.5833 2 12 2C12.4167 2 12.7708 2.14583 13.0625 2.4375C13.3542 2.72917 13.5 3.08333 13.5 3.5V4.2C14.8333 4.53333 15.9167 5.2375 16.75 6.3125C17.5833 7.3875 18 8.61667 18 10V17H19C19.2833 17 19.5208 17.0958 19.7125 17.2875C19.9042 17.4792 20 17.7167 20 18C20 18.2833 19.9042 18.5208 19.7125 18.7125C19.5208 18.9042 19.2833 19 19 19H5ZM12 22C11.45 22 10.9792 21.8042 10.5875 21.4125C10.1958 21.0208 10 20.55 10 20H14C14 20.55 13.8042 21.0208 13.4125 21.4125C13.0208 21.8042 12.55 22 12 22Z"
    />
  </symbol>
  <symbol id="material-solid-open-book" viewBox="0 0 24 24">
    <path
      d="M4 20C3.45 20 2.97917 19.8042 2.5875 19.4125C2.19583 19.0208 2 18.55 2 18V6C2 5.45 2.19583 4.97917 2.5875 4.5875C2.97917 4.19583 3.45 4 4 4H20C20.55 4 21.0208 4.19583 21.4125 4.5875C21.8042 4.97917 22 5.45 22 6V18C22 18.55 21.8042 19.0208 21.4125 19.4125C21.0208 19.8042 20.55 20 20 20H4ZM13 18H20V6H13V18ZM6 16H9C9.28333 16 9.52083 15.9042 9.7125 15.7125C9.90417 15.5208 10 15.2833 10 15C10 14.7167 9.90417 14.4792 9.7125 14.2875C9.52083 14.0958 9.28333 14 9 14H6C5.71667 14 5.47917 14.0958 5.2875 14.2875C5.09583 14.4792 5 14.7167 5 15C5 15.2833 5.09583 15.5208 5.2875 15.7125C5.47917 15.9042 5.71667 16 6 16ZM6 13H9C9.28333 13 9.52083 12.9042 9.7125 12.7125C9.90417 12.5208 10 12.2833 10 12C10 11.7167 9.90417 11.4792 9.7125 11.2875C9.52083 11.0958 9.28333 11 9 11H6C5.71667 11 5.47917 11.0958 5.2875 11.2875C5.09583 11.4792 5 11.7167 5 12C5 12.2833 5.09583 12.5208 5.2875 12.7125C5.47917 12.9042 5.71667 13 6 13ZM6 10H9C9.28333 10 9.52083 9.90417 9.7125 9.7125C9.90417 9.52083 10 9.28333 10 9C10 8.71667 9.90417 8.47917 9.7125 8.2875C9.52083 8.09583 9.28333 8 9 8H6C5.71667 8 5.47917 8.09583 5.2875 8.2875C5.09583 8.47917 5 8.71667 5 9C5 9.28333 5.09583 9.52083 5.2875 9.7125C5.47917 9.90417 5.71667 10 6 10ZM15 16H18C18.2833 16 18.5208 15.9042 18.7125 15.7125C18.9042 15.5208 19 15.2833 19 15C19 14.7167 18.9042 14.4792 18.7125 14.2875C18.5208 14.0958 18.2833 14 18 14H15C14.7167 14 14.4792 14.0958 14.2875 14.2875C14.0958 14.4792 14 14.7167 14 15C14 15.2833 14.0958 15.5208 14.2875 15.7125C14.4792 15.9042 14.7167 16 15 16ZM15 13H18C18.2833 13 18.5208 12.9042 18.7125 12.7125C18.9042 12.5208 19 12.2833 19 12C19 11.7167 18.9042 11.4792 18.7125 11.2875C18.5208 11.0958 18.2833 11 18 11H15C14.7167 11 14.4792 11.0958 14.2875 11.2875C14.0958 11.4792 14 11.7167 14 12C14 12.2833 14.0958 12.5208 14.2875 12.7125C14.4792 12.9042 14.7167 13 15 13ZM15 10H18C18.2833 10 18.5208 9.90417 18.7125 9.7125C18.9042 9.52083 19 9.28333 19 9C19 8.71667 18.9042 8.47917 18.7125 8.2875C18.5208 8.09583 18.2833 8 18 8H15C14.7167 8 14.4792 8.09583 14.2875 8.2875C14.0958 8.47917 14 8.71667 14 9C14 9.28333 14.0958 9.52083 14.2875 9.7125C14.4792 9.90417 14.7167 10 15 10Z"
    />
  </symbol>
  <symbol id="material-solid-page" viewBox="0 0 24 24">
    <path
      d="M4 21C3.45 21 2.97917 20.8042 2.5875 20.4125C2.19583 20.0208 2 19.55 2 19V5C2 4.45 2.19583 3.97917 2.5875 3.5875C2.97917 3.19583 3.45 3 4 3H20C20.55 3 21.0208 3.19583 21.4125 3.5875C21.8042 3.97917 22 4.45 22 5V19C22 19.55 21.8042 20.0208 21.4125 20.4125C21.0208 20.8042 20.55 21 20 21H4ZM7 17H17C17.2833 17 17.5208 16.9042 17.7125 16.7125C17.9042 16.5208 18 16.2833 18 16C18 15.7167 17.9042 15.4792 17.7125 15.2875C17.5208 15.0958 17.2833 15 17 15H7C6.71667 15 6.47917 15.0958 6.2875 15.2875C6.09583 15.4792 6 15.7167 6 16C6 16.2833 6.09583 16.5208 6.2875 16.7125C6.47917 16.9042 6.71667 17 7 17ZM7 13H9C9.28333 13 9.52083 12.9042 9.7125 12.7125C9.90417 12.5208 10 12.2833 10 12V8C10 7.71667 9.90417 7.47917 9.7125 7.2875C9.52083 7.09583 9.28333 7 9 7H7C6.71667 7 6.47917 7.09583 6.2875 7.2875C6.09583 7.47917 6 7.71667 6 8V12C6 12.2833 6.09583 12.5208 6.2875 12.7125C6.47917 12.9042 6.71667 13 7 13ZM13 13H17C17.2833 13 17.5208 12.9042 17.7125 12.7125C17.9042 12.5208 18 12.2833 18 12C18 11.7167 17.9042 11.4792 17.7125 11.2875C17.5208 11.0958 17.2833 11 17 11H13C12.7167 11 12.4792 11.0958 12.2875 11.2875C12.0958 11.4792 12 11.7167 12 12C12 12.2833 12.0958 12.5208 12.2875 12.7125C12.4792 12.9042 12.7167 13 13 13ZM13 9H17C17.2833 9 17.5208 8.90417 17.7125 8.7125C17.9042 8.52083 18 8.28333 18 8C18 7.71667 17.9042 7.47917 17.7125 7.2875C17.5208 7.09583 17.2833 7 17 7H13C12.7167 7 12.4792 7.09583 12.2875 7.2875C12.0958 7.47917 12 7.71667 12 8C12 8.28333 12.0958 8.52083 12.2875 8.7125C12.4792 8.90417 12.7167 9 13 9Z"
    />
  </symbol>
  <symbol id="material-solid-paper-plane" viewBox="0 0 24 24">
    <path
      d="M4.4 19.425C4.06667 19.5583 3.75 19.5291 3.45 19.3375C3.15 19.1458 3 18.8666 3 18.5V14L11 12L3 9.99997V5.49997C3 5.1333 3.15 4.85414 3.45 4.66247C3.75 4.4708 4.06667 4.44164 4.4 4.57497L19.8 11.075C20.2167 11.2583 20.425 11.5666 20.425 12C20.425 12.4333 20.2167 12.7416 19.8 12.925L4.4 19.425Z"
    />
  </symbol>
  <symbol id="material-solid-pause" viewBox="0 0 24 24">
    <path
      d="M10 16C10.2833 16 10.5208 15.9042 10.7125 15.7125C10.9042 15.5208 11 15.2833 11 15V9C11 8.71667 10.9042 8.47917 10.7125 8.2875C10.5208 8.09583 10.2833 8 10 8C9.71667 8 9.47917 8.09583 9.2875 8.2875C9.09583 8.47917 9 8.71667 9 9V15C9 15.2833 9.09583 15.5208 9.2875 15.7125C9.47917 15.9042 9.71667 16 10 16ZM14 16C14.2833 16 14.5208 15.9042 14.7125 15.7125C14.9042 15.5208 15 15.2833 15 15V9C15 8.71667 14.9042 8.47917 14.7125 8.2875C14.5208 8.09583 14.2833 8 14 8C13.7167 8 13.4792 8.09583 13.2875 8.2875C13.0958 8.47917 13 8.71667 13 9V15C13 15.2833 13.0958 15.5208 13.2875 15.7125C13.4792 15.9042 13.7167 16 14 16ZM12 22C10.6167 22 9.31667 21.7375 8.1 21.2125C6.88333 20.6875 5.825 19.975 4.925 19.075C4.025 18.175 3.3125 17.1167 2.7875 15.9C2.2625 14.6833 2 13.3833 2 12C2 10.6167 2.2625 9.31667 2.7875 8.1C3.3125 6.88333 4.025 5.825 4.925 4.925C5.825 4.025 6.88333 3.3125 8.1 2.7875C9.31667 2.2625 10.6167 2 12 2C13.3833 2 14.6833 2.2625 15.9 2.7875C17.1167 3.3125 18.175 4.025 19.075 4.925C19.975 5.825 20.6875 6.88333 21.2125 8.1C21.7375 9.31667 22 10.6167 22 12C22 13.3833 21.7375 14.6833 21.2125 15.9C20.6875 17.1167 19.975 18.175 19.075 19.075C18.175 19.975 17.1167 20.6875 15.9 21.2125C14.6833 21.7375 13.3833 22 12 22Z"
    />
  </symbol>
  <symbol id="material-solid-pen" viewBox="0 0 24 24">
    <path
      d="M4 21C3.71667 21 3.47917 20.9042 3.2875 20.7125C3.09583 20.5208 3 20.2833 3 20V17.575C3 17.3083 3.05 17.0542 3.15 16.8125C3.25 16.5708 3.39167 16.3583 3.575 16.175L16.2 3.575C16.4 3.39167 16.6208 3.25 16.8625 3.15C17.1042 3.05 17.3583 3 17.625 3C17.8917 3 18.15 3.05 18.4 3.15C18.65 3.25 18.8667 3.4 19.05 3.6L20.425 5C20.625 5.18333 20.7708 5.4 20.8625 5.65C20.9542 5.9 21 6.15 21 6.4C21 6.66667 20.9542 6.92083 20.8625 7.1625C20.7708 7.40417 20.625 7.625 20.425 7.825L7.825 20.425C7.64167 20.6083 7.42917 20.75 7.1875 20.85C6.94583 20.95 6.69167 21 6.425 21H4ZM17.6 7.8L19 6.4L17.6 5L16.2 6.4L17.6 7.8Z"
    />
  </symbol>
  <symbol id="material-solid-person" viewBox="0 0 24 24">
    <path
      d="M5.85 17.1C6.7 16.45 7.65 15.9375 8.7 15.5625C9.75 15.1875 10.85 15 12 15C13.15 15 14.25 15.1875 15.3 15.5625C16.35 15.9375 17.3 16.45 18.15 17.1C18.7333 16.4167 19.1875 15.6417 19.5125 14.775C19.8375 13.9083 20 12.9833 20 12C20 9.78333 19.2208 7.89583 17.6625 6.3375C16.1042 4.77917 14.2167 4 12 4C9.78333 4 7.89583 4.77917 6.3375 6.3375C4.77917 7.89583 4 9.78333 4 12C4 12.9833 4.1625 13.9083 4.4875 14.775C4.8125 15.6417 5.26667 16.4167 5.85 17.1ZM12 13C11.0167 13 10.1875 12.6625 9.5125 11.9875C8.8375 11.3125 8.5 10.4833 8.5 9.5C8.5 8.51667 8.8375 7.6875 9.5125 7.0125C10.1875 6.3375 11.0167 6 12 6C12.9833 6 13.8125 6.3375 14.4875 7.0125C15.1625 7.6875 15.5 8.51667 15.5 9.5C15.5 10.4833 15.1625 11.3125 14.4875 11.9875C13.8125 12.6625 12.9833 13 12 13ZM12 22C10.6167 22 9.31667 21.7375 8.1 21.2125C6.88333 20.6875 5.825 19.975 4.925 19.075C4.025 18.175 3.3125 17.1167 2.7875 15.9C2.2625 14.6833 2 13.3833 2 12C2 10.6167 2.2625 9.31667 2.7875 8.1C3.3125 6.88333 4.025 5.825 4.925 4.925C5.825 4.025 6.88333 3.3125 8.1 2.7875C9.31667 2.2625 10.6167 2 12 2C13.3833 2 14.6833 2.2625 15.9 2.7875C17.1167 3.3125 18.175 4.025 19.075 4.925C19.975 5.825 20.6875 6.88333 21.2125 8.1C21.7375 9.31667 22 10.6167 22 12C22 13.3833 21.7375 14.6833 21.2125 15.9C20.6875 17.1167 19.975 18.175 19.075 19.075C18.175 19.975 17.1167 20.6875 15.9 21.2125C14.6833 21.7375 13.3833 22 12 22Z"
    />
  </symbol>
  <symbol id="material-solid-pie-chart" viewBox="0 0 24 24">
    <path
      d="M12.9996 11.0001V2.1001C15.3829 2.3501 17.3954 3.3001 19.0371 4.9501C20.6788 6.6001 21.6329 8.61677 21.8996 11.0001H12.9996ZM11.0246 21.8751C8.49128 21.6251 6.37044 20.5584 4.66211 18.6751C2.95378 16.7918 2.09961 14.5668 2.09961 12.0001C2.09961 9.41676 2.95378 7.18343 4.66211 5.3001C6.37044 3.41676 8.49128 2.3501 11.0246 2.1001V21.8751ZM12.9996 21.8751V12.9751H21.8996C21.6663 15.3584 20.7204 17.3793 19.0621 19.0376C17.4038 20.6959 15.3829 21.6418 12.9996 21.8751Z"
    />
  </symbol>
  <symbol id="material-solid-play-circle" viewBox="0 0 24 24">
    <path
      d="M10.65 15.75L15.525 12.625C15.7583 12.475 15.875 12.2667 15.875 12C15.875 11.7333 15.7583 11.525 15.525 11.375L10.65 8.25C10.4 8.08333 10.1458 8.07083 9.8875 8.2125C9.62917 8.35417 9.5 8.575 9.5 8.875V15.125C9.5 15.425 9.62917 15.6458 9.8875 15.7875C10.1458 15.9292 10.4 15.9167 10.65 15.75ZM12 22C10.6167 22 9.31667 21.7375 8.1 21.2125C6.88333 20.6875 5.825 19.975 4.925 19.075C4.025 18.175 3.3125 17.1167 2.7875 15.9C2.2625 14.6833 2 13.3833 2 12C2 10.6167 2.2625 9.31667 2.7875 8.1C3.3125 6.88333 4.025 5.825 4.925 4.925C5.825 4.025 6.88333 3.3125 8.1 2.7875C9.31667 2.2625 10.6167 2 12 2C13.3833 2 14.6833 2.2625 15.9 2.7875C17.1167 3.3125 18.175 4.025 19.075 4.925C19.975 5.825 20.6875 6.88333 21.2125 8.1C21.7375 9.31667 22 10.6167 22 12C22 13.3833 21.7375 14.6833 21.2125 15.9C20.6875 17.1167 19.975 18.175 19.075 19.075C18.175 19.975 17.1167 20.6875 15.9 21.2125C14.6833 21.7375 13.3833 22 12 22Z"
    />
  </symbol>
  <symbol id="material-solid-question-circle" viewBox="0 0 24 24">
    <path
      d="M11.95 18C12.3 18 12.5958 17.8792 12.8375 17.6375C13.0792 17.3958 13.2 17.1 13.2 16.75C13.2 16.4 13.0792 16.1042 12.8375 15.8625C12.5958 15.6208 12.3 15.5 11.95 15.5C11.6 15.5 11.3042 15.6208 11.0625 15.8625C10.8208 16.1042 10.7 16.4 10.7 16.75C10.7 17.1 10.8208 17.3958 11.0625 17.6375C11.3042 17.8792 11.6 18 11.95 18ZM12 22C10.6167 22 9.31667 21.7375 8.1 21.2125C6.88333 20.6875 5.825 19.975 4.925 19.075C4.025 18.175 3.3125 17.1167 2.7875 15.9C2.2625 14.6833 2 13.3833 2 12C2 10.6167 2.2625 9.31667 2.7875 8.1C3.3125 6.88333 4.025 5.825 4.925 4.925C5.825 4.025 6.88333 3.3125 8.1 2.7875C9.31667 2.2625 10.6167 2 12 2C13.3833 2 14.6833 2.2625 15.9 2.7875C17.1167 3.3125 18.175 4.025 19.075 4.925C19.975 5.825 20.6875 6.88333 21.2125 8.1C21.7375 9.31667 22 10.6167 22 12C22 13.3833 21.7375 14.6833 21.2125 15.9C20.6875 17.1167 19.975 18.175 19.075 19.075C18.175 19.975 17.1167 20.6875 15.9 21.2125C14.6833 21.7375 13.3833 22 12 22ZM12.1 7.7C12.5167 7.7 12.8792 7.83333 13.1875 8.1C13.4958 8.36667 13.65 8.7 13.65 9.1C13.65 9.46667 13.5375 9.79167 13.3125 10.075C13.0875 10.3583 12.8333 10.625 12.55 10.875C12.1667 11.2083 11.8292 11.575 11.5375 11.975C11.2458 12.375 11.1 12.825 11.1 13.325C11.1 13.5583 11.1875 13.7542 11.3625 13.9125C11.5375 14.0708 11.7417 14.15 11.975 14.15C12.225 14.15 12.4375 14.0667 12.6125 13.9C12.7875 13.7333 12.9 13.525 12.95 13.275C13.0167 12.925 13.1667 12.6125 13.4 12.3375C13.6333 12.0625 13.8833 11.8 14.15 11.55C14.5333 11.1833 14.8625 10.7833 15.1375 10.35C15.4125 9.91667 15.55 9.43333 15.55 8.9C15.55 8.05 15.2042 7.35417 14.5125 6.8125C13.8208 6.27083 13.0167 6 12.1 6C11.4667 6 10.8625 6.13333 10.2875 6.4C9.7125 6.66667 9.275 7.075 8.975 7.625C8.85833 7.825 8.82083 8.0375 8.8625 8.2625C8.90417 8.4875 9.01667 8.65833 9.2 8.775C9.43333 8.90833 9.675 8.95 9.925 8.9C10.175 8.85 10.3833 8.70833 10.55 8.475C10.7333 8.225 10.9625 8.03333 11.2375 7.9C11.5125 7.76667 11.8 7.7 12.1 7.7Z"
    />
  </symbol>
  <symbol id="material-solid-question" viewBox="0 0 24 24">
    <path
      d="M14.5998 8.075C14.5998 7.35833 14.3623 6.78333 13.8873 6.35C13.4123 5.91667 12.7831 5.7 11.9998 5.7C11.5165 5.7 11.079 5.80417 10.6873 6.0125C10.2956 6.22083 9.95815 6.525 9.67481 6.925C9.40815 7.30833 9.04565 7.52917 8.58731 7.5875C8.12898 7.64583 7.73315 7.525 7.39981 7.225C7.16648 7.00833 7.03731 6.74167 7.01231 6.425C6.98731 6.10833 7.06648 5.80833 7.24981 5.525C7.78315 4.725 8.46231 4.10417 9.28731 3.6625C10.1123 3.22083 11.0165 3 11.9998 3C13.6165 3 14.929 3.45833 15.9373 4.375C16.9456 5.29167 17.4498 6.49167 17.4498 7.975C17.4498 8.725 17.2915 9.4 16.9748 10C16.6581 10.6 16.0748 11.3083 15.2248 12.125C14.6081 12.7083 14.1915 13.1625 13.9748 13.4875C13.7581 13.8125 13.6165 14.1833 13.5498 14.6C13.4831 15 13.3123 15.3333 13.0373 15.6C12.7623 15.8667 12.4331 16 12.0498 16C11.6665 16 11.3373 15.8708 11.0623 15.6125C10.7873 15.3542 10.6498 15.0333 10.6498 14.65C10.6498 14 10.7915 13.4042 11.0748 12.8625C11.3581 12.3208 11.8331 11.75 12.4998 11.15C13.3498 10.4 13.9123 9.82083 14.1873 9.4125C14.4623 9.00417 14.5998 8.55833 14.5998 8.075ZM11.9998 22C11.4498 22 10.979 21.8042 10.5873 21.4125C10.1956 21.0208 9.99981 20.55 9.99981 20C9.99981 19.45 10.1956 18.9792 10.5873 18.5875C10.979 18.1958 11.4498 18 11.9998 18C12.5498 18 13.0206 18.1958 13.4123 18.5875C13.804 18.9792 13.9998 19.45 13.9998 20C13.9998 20.55 13.804 21.0208 13.4123 21.4125C13.0206 21.8042 12.5498 22 11.9998 22Z"
    />
  </symbol>
  <symbol id="material-solid-radio-checked" viewBox="0 0 24 24">
    <path
      d="M12 17C13.3833 17 14.5625 16.5125 15.5375 15.5375C16.5125 14.5625 17 13.3833 17 12C17 10.6167 16.5125 9.4375 15.5375 8.4625C14.5625 7.4875 13.3833 7 12 7C10.6167 7 9.4375 7.4875 8.4625 8.4625C7.4875 9.4375 7 10.6167 7 12C7 13.3833 7.4875 14.5625 8.4625 15.5375C9.4375 16.5125 10.6167 17 12 17ZM12 22C10.6167 22 9.31667 21.7375 8.1 21.2125C6.88333 20.6875 5.825 19.975 4.925 19.075C4.025 18.175 3.3125 17.1167 2.7875 15.9C2.2625 14.6833 2 13.3833 2 12C2 10.6167 2.2625 9.31667 2.7875 8.1C3.3125 6.88333 4.025 5.825 4.925 4.925C5.825 4.025 6.88333 3.3125 8.1 2.7875C9.31667 2.2625 10.6167 2 12 2C13.3833 2 14.6833 2.2625 15.9 2.7875C17.1167 3.3125 18.175 4.025 19.075 4.925C19.975 5.825 20.6875 6.88333 21.2125 8.1C21.7375 9.31667 22 10.6167 22 12C22 13.3833 21.7375 14.6833 21.2125 15.9C20.6875 17.1167 19.975 18.175 19.075 19.075C18.175 19.975 17.1167 20.6875 15.9 21.2125C14.6833 21.7375 13.3833 22 12 22Z"
    />
  </symbol>
  <symbol id="material-solid-radio-unchecked" viewBox="0 0 24 24">
    <path
      d="M12 22C10.6167 22 9.31667 21.7375 8.1 21.2125C6.88333 20.6875 5.825 19.975 4.925 19.075C4.025 18.175 3.3125 17.1167 2.7875 15.9C2.2625 14.6833 2 13.3833 2 12C2 10.6167 2.2625 9.31667 2.7875 8.1C3.3125 6.88333 4.025 5.825 4.925 4.925C5.825 4.025 6.88333 3.3125 8.1 2.7875C9.31667 2.2625 10.6167 2 12 2C13.3833 2 14.6833 2.2625 15.9 2.7875C17.1167 3.3125 18.175 4.025 19.075 4.925C19.975 5.825 20.6875 6.88333 21.2125 8.1C21.7375 9.31667 22 10.6167 22 12C22 13.3833 21.7375 14.6833 21.2125 15.9C20.6875 17.1167 19.975 18.175 19.075 19.075C18.175 19.975 17.1167 20.6875 15.9 21.2125C14.6833 21.7375 13.3833 22 12 22ZM12 20C14.2333 20 16.125 19.225 17.675 17.675C19.225 16.125 20 14.2333 20 12C20 9.76667 19.225 7.875 17.675 6.325C16.125 4.775 14.2333 4 12 4C9.76667 4 7.875 4.775 6.325 6.325C4.775 7.875 4 9.76667 4 12C4 14.2333 4.775 16.125 6.325 17.675C7.875 19.225 9.76667 20 12 20ZM12 20C9.76667 20 7.875 19.225 6.325 17.675C4.775 16.125 4 14.2333 4 12C4 9.76667 4.775 7.875 6.325 6.325C7.875 4.775 9.76667 4 12 4C14.2333 4 16.125 4.775 17.675 6.325C19.225 7.875 20 9.76667 20 12C20 14.2333 19.225 16.125 17.675 17.675C16.125 19.225 14.2333 20 12 20Z"
    />
  </symbol>
  <symbol id="material-solid-right-circle" viewBox="0 0 24 24">
    <path
      d="M12 22C10.6167 22 9.31667 21.7375 8.1 21.2125C6.88333 20.6875 5.825 19.975 4.925 19.075C4.025 18.175 3.3125 17.1167 2.7875 15.9C2.2625 14.6833 2 13.3833 2 12C2 10.6167 2.2625 9.31667 2.7875 8.1C3.3125 6.88333 4.025 5.825 4.925 4.925C5.825 4.025 6.88333 3.3125 8.1 2.7875C9.31667 2.2625 10.6167 2 12 2C13.3833 2 14.6833 2.2625 15.9 2.7875C17.1167 3.3125 18.175 4.025 19.075 4.925C19.975 5.825 20.6875 6.88333 21.2125 8.1C21.7375 9.31667 22 10.6167 22 12C22 13.3833 21.7375 14.6833 21.2125 15.9C20.6875 17.1167 19.975 18.175 19.075 19.075C18.175 19.975 17.1167 20.6875 15.9 21.2125C14.6833 21.7375 13.3833 22 12 22ZM12.2 13L11.3 13.9C11.1167 14.0833 11.025 14.3167 11.025 14.6C11.025 14.8833 11.1167 15.1167 11.3 15.3C11.4833 15.4833 11.7167 15.575 12 15.575C12.2833 15.575 12.5167 15.4833 12.7 15.3L15.3 12.7C15.5 12.5 15.6 12.2667 15.6 12C15.6 11.7333 15.5 11.5 15.3 11.3L12.7 8.7C12.5167 8.51667 12.2833 8.425 12 8.425C11.7167 8.425 11.4833 8.51667 11.3 8.7C11.1167 8.88333 11.025 9.11667 11.025 9.4C11.025 9.68333 11.1167 9.91667 11.3 10.1L12.2 11H9C8.71667 11 8.47917 11.0958 8.2875 11.2875C8.09583 11.4792 8 11.7167 8 12C8 12.2833 8.09583 12.5208 8.2875 12.7125C8.47917 12.9042 8.71667 13 9 13H12.2Z"
    />
  </symbol>
  <symbol id="material-solid-search" viewBox="0 0 24 24">
    <path
      d="M9.5 16C7.68333 16 6.14583 15.3708 4.8875 14.1125C3.62917 12.8542 3 11.3167 3 9.5C3 7.68333 3.62917 6.14583 4.8875 4.8875C6.14583 3.62917 7.68333 3 9.5 3C11.3167 3 12.8542 3.62917 14.1125 4.8875C15.3708 6.14583 16 7.68333 16 9.5C16 10.2333 15.8833 10.925 15.65 11.575C15.4167 12.225 15.1 12.8 14.7 13.3L20.3 18.9C20.4833 19.0833 20.575 19.3167 20.575 19.6C20.575 19.8833 20.4833 20.1167 20.3 20.3C20.1167 20.4833 19.8833 20.575 19.6 20.575C19.3167 20.575 19.0833 20.4833 18.9 20.3L13.3 14.7C12.8 15.1 12.225 15.4167 11.575 15.65C10.925 15.8833 10.2333 16 9.5 16ZM9.5 14C10.75 14 11.8125 13.5625 12.6875 12.6875C13.5625 11.8125 14 10.75 14 9.5C14 8.25 13.5625 7.1875 12.6875 6.3125C11.8125 5.4375 10.75 5 9.5 5C8.25 5 7.1875 5.4375 6.3125 6.3125C5.4375 7.1875 5 8.25 5 9.5C5 10.75 5.4375 11.8125 6.3125 12.6875C7.1875 13.5625 8.25 14 9.5 14Z"
    />
  </symbol>
  <symbol id="material-solid-speech" viewBox="0 0 24 24">
    <path
      d="M7 14H17C17.2833 14 17.5208 13.9042 17.7125 13.7125C17.9042 13.5208 18 13.2833 18 13C18 12.7167 17.9042 12.4792 17.7125 12.2875C17.5208 12.0958 17.2833 12 17 12H7C6.71667 12 6.47917 12.0958 6.2875 12.2875C6.09583 12.4792 6 12.7167 6 13C6 13.2833 6.09583 13.5208 6.2875 13.7125C6.47917 13.9042 6.71667 14 7 14ZM7 11H17C17.2833 11 17.5208 10.9042 17.7125 10.7125C17.9042 10.5208 18 10.2833 18 10C18 9.71667 17.9042 9.47917 17.7125 9.2875C17.5208 9.09583 17.2833 9 17 9H7C6.71667 9 6.47917 9.09583 6.2875 9.2875C6.09583 9.47917 6 9.71667 6 10C6 10.2833 6.09583 10.5208 6.2875 10.7125C6.47917 10.9042 6.71667 11 7 11ZM7 8H17C17.2833 8 17.5208 7.90417 17.7125 7.7125C17.9042 7.52083 18 7.28333 18 7C18 6.71667 17.9042 6.47917 17.7125 6.2875C17.5208 6.09583 17.2833 6 17 6H7C6.71667 6 6.47917 6.09583 6.2875 6.2875C6.09583 6.47917 6 6.71667 6 7C6 7.28333 6.09583 7.52083 6.2875 7.7125C6.47917 7.90417 6.71667 8 7 8ZM4 18C3.45 18 2.97917 17.8042 2.5875 17.4125C2.19583 17.0208 2 16.55 2 16V4C2 3.45 2.19583 2.97917 2.5875 2.5875C2.97917 2.19583 3.45 2 4 2H20C20.55 2 21.0208 2.19583 21.4125 2.5875C21.8042 2.97917 22 3.45 22 4V19.575C22 20.025 21.7958 20.3375 21.3875 20.5125C20.9792 20.6875 20.6167 20.6167 20.3 20.3L18 18H4Z"
    />
  </symbol>
  <symbol id="material-solid-speed" viewBox="0 0 24 24">
    <path
      d="M12 22C10.6333 22 9.34167 21.7375 8.125 21.2125C6.90833 20.6875 5.84583 19.9708 4.9375 19.0625C4.02917 18.1542 3.3125 17.0917 2.7875 15.875C2.2625 14.6583 2 13.3667 2 12C2 10.6167 2.2625 9.32083 2.7875 8.1125C3.3125 6.90417 4.02917 5.84583 4.9375 4.9375C5.84583 4.02917 6.90833 3.3125 8.125 2.7875C9.34167 2.2625 10.6333 2 12 2C13.3833 2 14.6792 2.2625 15.8875 2.7875C17.0958 3.3125 18.1542 4.02917 19.0625 4.9375C19.9708 5.84583 20.6875 6.90417 21.2125 8.1125C21.7375 9.32083 22 10.6167 22 12C22 13.3667 21.7375 14.6583 21.2125 15.875C20.6875 17.0917 19.9708 18.1542 19.0625 19.0625C18.1542 19.9708 17.0958 20.6875 15.8875 21.2125C14.6792 21.7375 13.3833 22 12 22ZM7 11C7.28333 11 7.52083 10.9042 7.7125 10.7125C7.90417 10.5208 8 10.2833 8 10C8 9.71667 7.90417 9.47917 7.7125 9.2875C7.52083 9.09583 7.28333 9 7 9C6.71667 9 6.47917 9.09583 6.2875 9.2875C6.09583 9.47917 6 9.71667 6 10C6 10.2833 6.09583 10.5208 6.2875 10.7125C6.47917 10.9042 6.71667 11 7 11ZM10 8C10.2833 8 10.5208 7.90417 10.7125 7.7125C10.9042 7.52083 11 7.28333 11 7C11 6.71667 10.9042 6.47917 10.7125 6.2875C10.5208 6.09583 10.2833 6 10 6C9.71667 6 9.47917 6.09583 9.2875 6.2875C9.09583 6.47917 9 6.71667 9 7C9 7.28333 9.09583 7.52083 9.2875 7.7125C9.47917 7.90417 9.71667 8 10 8ZM17 11C17.2833 11 17.5208 10.9042 17.7125 10.7125C17.9042 10.5208 18 10.2833 18 10C18 9.71667 17.9042 9.47917 17.7125 9.2875C17.5208 9.09583 17.2833 9 17 9C16.7167 9 16.4792 9.09583 16.2875 9.2875C16.0958 9.47917 16 9.71667 16 10C16 10.2833 16.0958 10.5208 16.2875 10.7125C16.4792 10.9042 16.7167 11 17 11ZM12 14C12.55 14 13.0208 13.8042 13.4125 13.4125C13.8042 13.0208 14 12.55 14 12C14 11.7833 13.9667 11.5708 13.9 11.3625C13.8333 11.1542 13.7333 10.9667 13.6 10.8L14.95 7.4C15.0667 7.13333 15.0708 6.87083 14.9625 6.6125C14.8542 6.35417 14.6667 6.16667 14.4 6.05C14.15 5.93333 13.8958 5.92917 13.6375 6.0375C13.3792 6.14583 13.2 6.33333 13.1 6.6L11.75 10C11.25 10.0833 10.8333 10.3125 10.5 10.6875C10.1667 11.0625 10 11.5 10 12C10 12.55 10.1958 13.0208 10.5875 13.4125C10.9792 13.8042 11.45 14 12 14ZM8.15 19C8.73333 18.6667 9.35 18.4167 10 18.25C10.65 18.0833 11.3167 18 12 18C12.6833 18 13.35 18.0833 14 18.25C14.65 18.4167 15.2667 18.6667 15.85 19L17.6 17.7C16.7667 17.15 15.875 16.7292 14.925 16.4375C13.975 16.1458 13 16 12 16C11 16 10.025 16.1458 9.075 16.4375C8.125 16.7292 7.23333 17.15 6.4 17.7L8.15 19Z"
    />
  </symbol>
  <symbol id="material-solid-star-empty" viewBox="0 0 24 24">
    <path
      d="M8.85002 16.825L12 14.925L15.15 16.85L14.325 13.25L17.1 10.85L13.45 10.525L12 7.12495L10.55 10.5L6.90001 10.825L9.67501 13.25L8.85002 16.825ZM12 17.275L7.85002 19.775C7.66668 19.8916 7.47501 19.9416 7.27501 19.9249C7.07501 19.9083 6.90002 19.8416 6.75002 19.725C6.60001 19.6083 6.48335 19.4625 6.40002 19.2874C6.31668 19.1124 6.30002 18.9166 6.35002 18.7L7.45002 13.975L3.77502 10.8C3.60835 10.65 3.50418 10.4791 3.46252 10.2875C3.42085 10.0958 3.43335 9.90828 3.50002 9.72495C3.56668 9.54162 3.66668 9.39162 3.80002 9.27495C3.93335 9.15828 4.11668 9.08328 4.35002 9.04995L9.20002 8.62495L11.075 4.17495C11.1583 3.97495 11.2875 3.82495 11.4625 3.72495C11.6375 3.62495 11.8167 3.57495 12 3.57495C12.1833 3.57495 12.3625 3.62495 12.5375 3.72495C12.7125 3.82495 12.8417 3.97495 12.925 4.17495L14.8 8.62495L19.65 9.04995C19.8833 9.08328 20.0667 9.15828 20.2 9.27495C20.3333 9.39162 20.4333 9.54162 20.5 9.72495C20.5667 9.90828 20.5792 10.0958 20.5375 10.2875C20.4958 10.4791 20.3917 10.65 20.225 10.8L16.55 13.975L17.65 18.7C17.7 18.9166 17.6833 19.1124 17.6 19.2874C17.5167 19.4625 17.4 19.6083 17.25 19.725C17.1 19.8416 16.925 19.9083 16.725 19.9249C16.525 19.9416 16.3333 19.8916 16.15 19.775L12 17.275Z"
    />
  </symbol>
  <symbol id="material-solid-star-half" viewBox="0 0 24 24">
    <path
      d="M12 7.12495V14.925L15.15 16.85L14.325 13.25L17.1 10.85L13.45 10.525L12 7.12495ZM12 17.275L7.85002 19.775C7.66668 19.8916 7.47501 19.9416 7.27501 19.9249C7.07501 19.9083 6.90002 19.8416 6.75002 19.725C6.60001 19.6083 6.48335 19.4625 6.40002 19.2874C6.31668 19.1124 6.30002 18.9166 6.35002 18.7L7.45002 13.975L3.77502 10.8C3.60835 10.65 3.50418 10.4791 3.46252 10.2875C3.42085 10.0958 3.43335 9.90828 3.50002 9.72495C3.56668 9.54162 3.66668 9.39162 3.80002 9.27495C3.93335 9.15828 4.11668 9.08328 4.35002 9.04995L9.20002 8.62495L11.075 4.17495C11.1583 3.97495 11.2875 3.82495 11.4625 3.72495C11.6375 3.62495 11.8167 3.57495 12 3.57495C12.1833 3.57495 12.3625 3.62495 12.5375 3.72495C12.7125 3.82495 12.8417 3.97495 12.925 4.17495L14.8 8.62495L19.65 9.04995C19.8833 9.08328 20.0667 9.15828 20.2 9.27495C20.3333 9.39162 20.4333 9.54162 20.5 9.72495C20.5667 9.90828 20.5792 10.0958 20.5375 10.2875C20.4958 10.4791 20.3917 10.65 20.225 10.8L16.55 13.975L17.65 18.7C17.7 18.9166 17.6833 19.1124 17.6 19.2874C17.5167 19.4625 17.4 19.6083 17.25 19.725C17.1 19.8416 16.925 19.9083 16.725 19.9249C16.525 19.9416 16.3333 19.8916 16.15 19.775L12 17.275Z"
    />
  </symbol>
  <symbol id="material-solid-star" viewBox="0 0 24 24">
    <path
      d="M12 17.275L7.85002 19.775C7.66668 19.8916 7.47501 19.9416 7.27501 19.9249C7.07501 19.9083 6.90002 19.8416 6.75002 19.725C6.60001 19.6083 6.48335 19.4625 6.40002 19.2874C6.31668 19.1124 6.30002 18.9166 6.35002 18.7L7.45002 13.975L3.77502 10.8C3.60835 10.65 3.50418 10.4791 3.46252 10.2875C3.42085 10.0958 3.43335 9.90828 3.50002 9.72495C3.56668 9.54162 3.66668 9.39162 3.80002 9.27495C3.93335 9.15828 4.11668 9.08328 4.35002 9.04995L9.20002 8.62495L11.075 4.17495C11.1583 3.97495 11.2875 3.82495 11.4625 3.72495C11.6375 3.62495 11.8167 3.57495 12 3.57495C12.1833 3.57495 12.3625 3.62495 12.5375 3.72495C12.7125 3.82495 12.8417 3.97495 12.925 4.17495L14.8 8.62495L19.65 9.04995C19.8833 9.08328 20.0667 9.15828 20.2 9.27495C20.3333 9.39162 20.4333 9.54162 20.5 9.72495C20.5667 9.90828 20.5792 10.0958 20.5375 10.2875C20.4958 10.4791 20.3917 10.65 20.225 10.8L16.55 13.975L17.65 18.7C17.7 18.9166 17.6833 19.1124 17.6 19.2874C17.5167 19.4625 17.4 19.6083 17.25 19.725C17.1 19.8416 16.925 19.9083 16.725 19.9249C16.525 19.9416 16.3333 19.8916 16.15 19.775L12 17.275Z"
    />
  </symbol>
  <symbol id="material-solid-tap-double" viewBox="0 0 24 24">
    <path
      d="M18 14V12C18 11.7167 18.0958 11.4792 18.2875 11.2875C18.4792 11.0958 18.7167 11 19 11C19.2833 11 19.5208 11.0958 19.7125 11.2875C19.9042 11.4792 20 11.7167 20 12V14H21C21 13.7167 21.0958 13.4792 21.2875 13.2875C21.4792 13.0958 21.7167 13 22 13C22.2833 13 22.5208 13.0958 22.7125 13.2875C22.9042 13.4792 23 13.7167 23 14V18C23 19.1 22.6083 20.0417 21.825 20.825C21.0417 21.6083 20.1 22 19 22H14.825C14.425 22 14.0417 21.925 13.675 21.775C13.3083 21.625 12.9833 21.4083 12.7 21.125L8.3 16.7C8.11667 16.5167 8.02083 16.2875 8.0125 16.0125C8.00417 15.7375 8.09167 15.5 8.275 15.3L8.425 15.15C8.65833 14.9167 8.94167 14.7583 9.275 14.675C9.60833 14.5917 9.94167 14.5917 10.275 14.675L12 15.175V8C12 7.71667 12.0958 7.47917 12.2875 7.2875C12.4792 7.09583 12.7167 7 13 7C13.2833 7 13.5208 7.09583 13.7125 7.2875C13.9042 7.47917 14 7.71667 14 8V14H15V7C15 6.71667 15.0958 6.47917 15.2875 6.2875C15.4792 6.09583 15.7167 6 16 6C16.2833 6 16.5208 6.09583 16.7125 6.2875C16.9042 6.47917 17 6.71667 17 7V14H18ZM4 19C3.45 19 2.97917 18.8042 2.5875 18.4125C2.19583 18.0208 2 17.55 2 17V5C2 4.45 2.19583 3.97917 2.5875 3.5875C2.97917 3.19583 3.45 3 4 3H19C19.55 3 20.0208 3.19583 20.4125 3.5875C20.8042 3.97917 21 4.45 21 5V8C21 8.28333 20.9042 8.52083 20.7125 8.7125C20.5208 8.90417 20.2833 9 20 9C19.7167 9 19.4792 8.90417 19.2875 8.7125C19.0958 8.52083 19 8.28333 19 8V5H4V17H5.8C6.08333 17 6.32083 17.0958 6.5125 17.2875C6.70417 17.4792 6.8 17.7167 6.8 18C6.8 18.2833 6.70417 18.5208 6.5125 18.7125C6.32083 18.9042 6.08333 19 5.8 19H4Z"
    />
  </symbol>
  <symbol id="material-solid-tap-single" viewBox="0 0 24 24">
    <path
      d="M10.4747 22C10.008 22 9.57049 21.9 9.16215 21.7C8.75382 21.5 8.40799 21.2167 8.12465 20.85L3.09965 14.475C2.96632 14.325 2.90799 14.1458 2.92465 13.9375C2.94132 13.7292 3.01632 13.5583 3.14965 13.425C3.48299 13.075 3.88299 12.8667 4.34965 12.8C4.81632 12.7333 5.24965 12.825 5.64965 13.075L7.49965 14.2V6C7.49965 5.71667 7.59549 5.47917 7.78715 5.2875C7.97882 5.09583 8.21632 5 8.49965 5C8.78299 5 9.02465 5.09583 9.22465 5.2875C9.42465 5.47917 9.52465 5.71667 9.52465 6V11H16.9997C17.833 11 18.5413 11.2917 19.1247 11.875C19.708 12.4583 19.9997 13.1667 19.9997 14V18C19.9997 19.1 19.608 20.0417 18.8247 20.825C18.0413 21.6083 17.0997 22 15.9997 22H10.4747ZM11.9747 9C11.6913 9 11.4538 8.90417 11.2622 8.7125C11.0705 8.52083 10.9747 8.28333 10.9747 8C10.9747 7.96667 11.0163 7.8 11.0997 7.5C11.233 7.26667 11.333 7.02917 11.3997 6.7875C11.4663 6.54583 11.4997 6.28333 11.4997 6C11.4997 5.16667 11.208 4.45833 10.6247 3.875C10.0413 3.29167 9.33299 3 8.49965 3C7.66632 3 6.95799 3.29167 6.37465 3.875C5.79132 4.45833 5.49965 5.16667 5.49965 6C5.49965 6.28333 5.53299 6.54583 5.59965 6.7875C5.66632 7.02917 5.76632 7.26667 5.89965 7.5C5.94965 7.58333 5.98299 7.66667 5.99965 7.75C6.01632 7.83333 6.02465 7.91667 6.02465 8C6.02465 8.28333 5.93299 8.52083 5.74965 8.7125C5.56632 8.90417 5.33299 9 5.04965 9C4.86632 9 4.69549 8.95 4.53715 8.85C4.37882 8.75 4.25799 8.625 4.17465 8.475C3.95799 8.10833 3.79132 7.71667 3.67465 7.3C3.55799 6.88333 3.49965 6.45 3.49965 6C3.49965 4.61667 3.98715 3.4375 4.96215 2.4625C5.93715 1.4875 7.11632 1 8.49965 1C9.88299 1 11.0622 1.4875 12.0372 2.4625C13.0122 3.4375 13.4997 4.61667 13.4997 6C13.4997 6.45 13.4413 6.88333 13.3247 7.3C13.208 7.71667 13.0413 8.10833 12.8247 8.475C12.7413 8.625 12.6247 8.75 12.4747 8.85C12.3247 8.95 12.158 9 11.9747 9Z"
    />
  </symbol>
  <symbol id="material-solid-thumbs-up" viewBox="0 0 24 24">
    <path
      d="M21 7.99983C21.5333 7.99983 22 8.19983 22.4 8.59983C22.8 8.99983 23 9.46649 23 9.99983V11.9998C23 12.1165 22.9875 12.2415 22.9625 12.3748C22.9375 12.5082 22.9 12.6332 22.85 12.7498L19.85 19.7998C19.7 20.1332 19.45 20.4165 19.1 20.6498C18.75 20.8832 18.3833 20.9998 18 20.9998H10C9.45 20.9998 8.97917 20.804 8.5875 20.4123C8.19583 20.0207 8 19.5498 8 18.9998V8.82483C8 8.55816 8.05417 8.30399 8.1625 8.06233C8.27083 7.82066 8.41667 7.60816 8.6 7.42483L14.025 2.02483C14.275 1.79149 14.5708 1.64983 14.9125 1.59983C15.2542 1.54983 15.5833 1.60816 15.9 1.77483C16.2167 1.94149 16.4458 2.17483 16.5875 2.47483C16.7292 2.77483 16.7583 3.08316 16.675 3.39983L15.55 7.99983H21ZM4 20.9998C3.45 20.9998 2.97917 20.804 2.5875 20.4123C2.19583 20.0207 2 19.5498 2 18.9998V9.99983C2 9.44983 2.19583 8.97899 2.5875 8.58733C2.97917 8.19566 3.45 7.99983 4 7.99983C4.55 7.99983 5.02083 8.19566 5.4125 8.58733C5.80417 8.97899 6 9.44983 6 9.99983V18.9998C6 19.5498 5.80417 20.0207 5.4125 20.4123C5.02083 20.804 4.55 20.9998 4 20.9998Z"
    />
  </symbol>
  <symbol id="material-solid-trophy" viewBox="0 0 24 24">
    <path
      d="M7 10.8V7H5V8C5 8.63333 5.18333 9.20417 5.55 9.7125C5.91667 10.2208 6.4 10.5833 7 10.8ZM17 10.8C17.6 10.5833 18.0833 10.2208 18.45 9.7125C18.8167 9.20417 19 8.63333 19 8V7H17V10.8ZM11 19V15.9C10.1833 15.7167 9.45417 15.3708 8.8125 14.8625C8.17083 14.3542 7.7 13.7167 7.4 12.95C6.15 12.8 5.10417 12.2542 4.2625 11.3125C3.42083 10.3708 3 9.26667 3 8V7C3 6.45 3.19583 5.97917 3.5875 5.5875C3.97917 5.19583 4.45 5 5 5H7C7 4.45 7.19583 3.97917 7.5875 3.5875C7.97917 3.19583 8.45 3 9 3H15C15.55 3 16.0208 3.19583 16.4125 3.5875C16.8042 3.97917 17 4.45 17 5H19C19.55 5 20.0208 5.19583 20.4125 5.5875C20.8042 5.97917 21 6.45 21 7V8C21 9.26667 20.5792 10.3708 19.7375 11.3125C18.8958 12.2542 17.85 12.8 16.6 12.95C16.3 13.7167 15.8292 14.3542 15.1875 14.8625C14.5458 15.3708 13.8167 15.7167 13 15.9V19H16C16.2833 19 16.5208 19.0958 16.7125 19.2875C16.9042 19.4792 17 19.7167 17 20C17 20.2833 16.9042 20.5208 16.7125 20.7125C16.5208 20.9042 16.2833 21 16 21H8C7.71667 21 7.47917 20.9042 7.2875 20.7125C7.09583 20.5208 7 20.2833 7 20C7 19.7167 7.09583 19.4792 7.2875 19.2875C7.47917 19.0958 7.71667 19 8 19H11Z"
    />
  </symbol>
  <symbol id="material-solid-unlock" viewBox="0 0 24 24">
    <path
      d="M6 22C5.45 22 4.97917 21.8042 4.5875 21.4125C4.19583 21.0208 4 20.55 4 20V10C4 9.45 4.19583 8.97917 4.5875 8.5875C4.97917 8.19583 5.45 8 6 8H15V6C15 5.16667 14.7083 4.45833 14.125 3.875C13.5417 3.29167 12.8333 3 12 3C11.3 3 10.6875 3.2125 10.1625 3.6375C9.6375 4.0625 9.28333 4.59167 9.1 5.225C9.03333 5.45833 8.89583 5.64583 8.6875 5.7875C8.47917 5.92917 8.25 6 8 6C7.71667 6 7.47917 5.90833 7.2875 5.725C7.09583 5.54167 7.025 5.325 7.075 5.075C7.25833 3.94167 7.8125 2.97917 8.7375 2.1875C9.6625 1.39583 10.75 1 12 1C13.3833 1 14.5625 1.4875 15.5375 2.4625C16.5125 3.4375 17 4.61667 17 6V8H18C18.55 8 19.0208 8.19583 19.4125 8.5875C19.8042 8.97917 20 9.45 20 10V20C20 20.55 19.8042 21.0208 19.4125 21.4125C19.0208 21.8042 18.55 22 18 22H6ZM12 17C12.55 17 13.0208 16.8042 13.4125 16.4125C13.8042 16.0208 14 15.55 14 15C14 14.45 13.8042 13.9792 13.4125 13.5875C13.0208 13.1958 12.55 13 12 13C11.45 13 10.9792 13.1958 10.5875 13.5875C10.1958 13.9792 10 14.45 10 15C10 15.55 10.1958 16.0208 10.5875 16.4125C10.9792 16.8042 11.45 17 12 17Z"
    />
  </symbol>
  <symbol id="material-solid-up-circle" viewBox="0 0 24 24">
    <path
      d="M11 11.8V15C11 15.2833 11.0958 15.5208 11.2875 15.7125C11.4792 15.9042 11.7167 16 12 16C12.2833 16 12.5208 15.9042 12.7125 15.7125C12.9042 15.5208 13 15.2833 13 15V11.8L13.9 12.7C14.0833 12.8833 14.3167 12.975 14.6 12.975C14.8833 12.975 15.1167 12.8833 15.3 12.7C15.4833 12.5167 15.575 12.2833 15.575 12C15.575 11.7167 15.4833 11.4833 15.3 11.3L12.7 8.7C12.5 8.5 12.2667 8.4 12 8.4C11.7333 8.4 11.5 8.5 11.3 8.7L8.7 11.3C8.51667 11.4833 8.425 11.7167 8.425 12C8.425 12.2833 8.51667 12.5167 8.7 12.7C8.88333 12.8833 9.11667 12.975 9.4 12.975C9.68333 12.975 9.91667 12.8833 10.1 12.7L11 11.8ZM12 22C10.6167 22 9.31667 21.7375 8.1 21.2125C6.88333 20.6875 5.825 19.975 4.925 19.075C4.025 18.175 3.3125 17.1167 2.7875 15.9C2.2625 14.6833 2 13.3833 2 12C2 10.6167 2.2625 9.31667 2.7875 8.1C3.3125 6.88333 4.025 5.825 4.925 4.925C5.825 4.025 6.88333 3.3125 8.1 2.7875C9.31667 2.2625 10.6167 2 12 2C13.3833 2 14.6833 2.2625 15.9 2.7875C17.1167 3.3125 18.175 4.025 19.075 4.925C19.975 5.825 20.6875 6.88333 21.2125 8.1C21.7375 9.31667 22 10.6167 22 12C22 13.3833 21.7375 14.6833 21.2125 15.9C20.6875 17.1167 19.975 18.175 19.075 19.075C18.175 19.975 17.1167 20.6875 15.9 21.2125C14.6833 21.7375 13.3833 22 12 22Z"
    />
  </symbol>
  <symbol id="material-solid-volume" viewBox="0 0 24 24">
    <path
      d="M19 11.975C19 10.5917 18.6333 9.32917 17.9 8.1875C17.1667 7.04583 16.1833 6.19167 14.95 5.625C14.7 5.50833 14.5167 5.32917 14.4 5.0875C14.2833 4.84583 14.2667 4.6 14.35 4.35C14.45 4.08333 14.6292 3.89167 14.8875 3.775C15.1458 3.65833 15.4083 3.65833 15.675 3.775C17.2917 4.49167 18.5833 5.5875 19.55 7.0625C20.5167 8.5375 21 10.175 21 11.975C21 13.775 20.5167 15.4125 19.55 16.8875C18.5833 18.3625 17.2917 19.4583 15.675 20.175C15.4083 20.2917 15.1458 20.2917 14.8875 20.175C14.6292 20.0583 14.45 19.8667 14.35 19.6C14.2667 19.35 14.2833 19.1042 14.4 18.8625C14.5167 18.6208 14.7 18.4417 14.95 18.325C16.1833 17.7583 17.1667 16.9042 17.9 15.7625C18.6333 14.6208 19 13.3583 19 11.975ZM7 15H4C3.71667 15 3.47917 14.9042 3.2875 14.7125C3.09583 14.5208 3 14.2833 3 14V10C3 9.71667 3.09583 9.47917 3.2875 9.2875C3.47917 9.09583 3.71667 9 4 9H7L10.3 5.7C10.6167 5.38333 10.9792 5.3125 11.3875 5.4875C11.7958 5.6625 12 5.975 12 6.425V17.575C12 18.025 11.7958 18.3375 11.3875 18.5125C10.9792 18.6875 10.6167 18.6167 10.3 18.3L7 15ZM16.5 12C16.5 12.7 16.3417 13.3625 16.025 13.9875C15.7083 14.6125 15.2917 15.125 14.775 15.525C14.6083 15.625 14.4375 15.6292 14.2625 15.5375C14.0875 15.4458 14 15.3 14 15.1V8.85C14 8.65 14.0875 8.50417 14.2625 8.4125C14.4375 8.32083 14.6083 8.325 14.775 8.425C15.2917 8.84167 15.7083 9.36667 16.025 10C16.3417 10.6333 16.5 11.3 16.5 12Z"
    />
  </symbol>
  <symbol id="material-solid-xmark-circle" viewBox="0 0 24 24">
    <path
      d="M12 13.4L14.9 16.3C15.0833 16.4833 15.3167 16.575 15.6 16.575C15.8833 16.575 16.1167 16.4833 16.3 16.3C16.4833 16.1167 16.575 15.8833 16.575 15.6C16.575 15.3167 16.4833 15.0833 16.3 14.9L13.4 12L16.3 9.1C16.4833 8.91667 16.575 8.68333 16.575 8.4C16.575 8.11667 16.4833 7.88333 16.3 7.7C16.1167 7.51667 15.8833 7.425 15.6 7.425C15.3167 7.425 15.0833 7.51667 14.9 7.7L12 10.6L9.1 7.7C8.91667 7.51667 8.68333 7.425 8.4 7.425C8.11667 7.425 7.88333 7.51667 7.7 7.7C7.51667 7.88333 7.425 8.11667 7.425 8.4C7.425 8.68333 7.51667 8.91667 7.7 9.1L10.6 12L7.7 14.9C7.51667 15.0833 7.425 15.3167 7.425 15.6C7.425 15.8833 7.51667 16.1167 7.7 16.3C7.88333 16.4833 8.11667 16.575 8.4 16.575C8.68333 16.575 8.91667 16.4833 9.1 16.3L12 13.4ZM12 22C10.6167 22 9.31667 21.7375 8.1 21.2125C6.88333 20.6875 5.825 19.975 4.925 19.075C4.025 18.175 3.3125 17.1167 2.7875 15.9C2.2625 14.6833 2 13.3833 2 12C2 10.6167 2.2625 9.31667 2.7875 8.1C3.3125 6.88333 4.025 5.825 4.925 4.925C5.825 4.025 6.88333 3.3125 8.1 2.7875C9.31667 2.2625 10.6167 2 12 2C13.3833 2 14.6833 2.2625 15.9 2.7875C17.1167 3.3125 18.175 4.025 19.075 4.925C19.975 5.825 20.6875 6.88333 21.2125 8.1C21.7375 9.31667 22 10.6167 22 12C22 13.3833 21.7375 14.6833 21.2125 15.9C20.6875 17.1167 19.975 18.175 19.075 19.075C18.175 19.975 17.1167 20.6875 15.9 21.2125C14.6833 21.7375 13.3833 22 12 22Z"
    />
  </symbol>
  <symbol id="material-solid-xmark" viewBox="0 0 24 24">
    <path
      d="M11.9998 13.3998L7.0998 18.2998C6.91647 18.4831 6.68314 18.5748 6.3998 18.5748C6.11647 18.5748 5.88314 18.4831 5.6998 18.2998C5.51647 18.1165 5.4248 17.8831 5.4248 17.5998C5.4248 17.3165 5.51647 17.0831 5.6998 16.8998L10.5998 11.9998L5.6998 7.0998C5.51647 6.91647 5.4248 6.68314 5.4248 6.3998C5.4248 6.11647 5.51647 5.88314 5.6998 5.6998C5.88314 5.51647 6.11647 5.4248 6.3998 5.4248C6.68314 5.4248 6.91647 5.51647 7.0998 5.6998L11.9998 10.5998L16.8998 5.6998C17.0831 5.51647 17.3165 5.4248 17.5998 5.4248C17.8831 5.4248 18.1165 5.51647 18.2998 5.6998C18.4831 5.88314 18.5748 6.11647 18.5748 6.3998C18.5748 6.68314 18.4831 6.91647 18.2998 7.0998L13.3998 11.9998L18.2998 16.8998C18.4831 17.0831 18.5748 17.3165 18.5748 17.5998C18.5748 17.8831 18.4831 18.1165 18.2998 18.2998C18.1165 18.4831 17.8831 18.5748 17.5998 18.5748C17.3165 18.5748 17.0831 18.4831 16.8998 18.2998L11.9998 13.3998Z"
    />
  </symbol>
  <symbol id="material-solid-zoom-in" viewBox="0 0 24 24">
    <path
      d="M8.5 10.5H7.5C7.21667 10.5 6.97917 10.4042 6.7875 10.2125C6.59583 10.0208 6.5 9.78333 6.5 9.5C6.5 9.21667 6.59583 8.97917 6.7875 8.7875C6.97917 8.59583 7.21667 8.5 7.5 8.5H8.5V7.5C8.5 7.21667 8.59583 6.97917 8.7875 6.7875C8.97917 6.59583 9.21667 6.5 9.5 6.5C9.78333 6.5 10.0208 6.59583 10.2125 6.7875C10.4042 6.97917 10.5 7.21667 10.5 7.5V8.5H11.5C11.7833 8.5 12.0208 8.59583 12.2125 8.7875C12.4042 8.97917 12.5 9.21667 12.5 9.5C12.5 9.78333 12.4042 10.0208 12.2125 10.2125C12.0208 10.4042 11.7833 10.5 11.5 10.5H10.5V11.5C10.5 11.7833 10.4042 12.0208 10.2125 12.2125C10.0208 12.4042 9.78333 12.5 9.5 12.5C9.21667 12.5 8.97917 12.4042 8.7875 12.2125C8.59583 12.0208 8.5 11.7833 8.5 11.5V10.5ZM9.5 16C7.68333 16 6.14583 15.3708 4.8875 14.1125C3.62917 12.8542 3 11.3167 3 9.5C3 7.68333 3.62917 6.14583 4.8875 4.8875C6.14583 3.62917 7.68333 3 9.5 3C11.3167 3 12.8542 3.62917 14.1125 4.8875C15.3708 6.14583 16 7.68333 16 9.5C16 10.2333 15.8833 10.925 15.65 11.575C15.4167 12.225 15.1 12.8 14.7 13.3L20.3 18.9C20.4833 19.0833 20.575 19.3167 20.575 19.6C20.575 19.8833 20.4833 20.1167 20.3 20.3C20.1167 20.4833 19.8833 20.575 19.6 20.575C19.3167 20.575 19.0833 20.4833 18.9 20.3L13.3 14.7C12.8 15.1 12.225 15.4167 11.575 15.65C10.925 15.8833 10.2333 16 9.5 16ZM9.5 14C10.75 14 11.8125 13.5625 12.6875 12.6875C13.5625 11.8125 14 10.75 14 9.5C14 8.25 13.5625 7.1875 12.6875 6.3125C11.8125 5.4375 10.75 5 9.5 5C8.25 5 7.1875 5.4375 6.3125 6.3125C5.4375 7.1875 5 8.25 5 9.5C5 10.75 5.4375 11.8125 6.3125 12.6875C7.1875 13.5625 8.25 14 9.5 14Z"
    />
  </symbol>
  <symbol id="material-solid-zoom-out" viewBox="0 0 24 24">
    <path
      d="M8 10.5C7.71667 10.5 7.47917 10.4042 7.2875 10.2125C7.09583 10.0208 7 9.78333 7 9.5C7 9.21667 7.09583 8.97917 7.2875 8.7875C7.47917 8.59583 7.71667 8.5 8 8.5H11C11.2833 8.5 11.5208 8.59583 11.7125 8.7875C11.9042 8.97917 12 9.21667 12 9.5C12 9.78333 11.9042 10.0208 11.7125 10.2125C11.5208 10.4042 11.2833 10.5 11 10.5H8ZM9.5 16C7.68333 16 6.14583 15.3708 4.8875 14.1125C3.62917 12.8542 3 11.3167 3 9.5C3 7.68333 3.62917 6.14583 4.8875 4.8875C6.14583 3.62917 7.68333 3 9.5 3C11.3167 3 12.8542 3.62917 14.1125 4.8875C15.3708 6.14583 16 7.68333 16 9.5C16 10.2333 15.8833 10.925 15.65 11.575C15.4167 12.225 15.1 12.8 14.7 13.3L20.3 18.9C20.4833 19.0833 20.575 19.3167 20.575 19.6C20.575 19.8833 20.4833 20.1167 20.3 20.3C20.1167 20.4833 19.8833 20.575 19.6 20.575C19.3167 20.575 19.0833 20.4833 18.9 20.3L13.3 14.7C12.8 15.1 12.225 15.4167 11.575 15.65C10.925 15.8833 10.2333 16 9.5 16ZM9.5 14C10.75 14 11.8125 13.5625 12.6875 12.6875C13.5625 11.8125 14 10.75 14 9.5C14 8.25 13.5625 7.1875 12.6875 6.3125C11.8125 5.4375 10.75 5 9.5 5C8.25 5 7.1875 5.4375 6.3125 6.3125C5.4375 7.1875 5 8.25 5 9.5C5 10.75 5.4375 11.8125 6.3125 12.6875C7.1875 13.5625 8.25 14 9.5 14Z"
    />
  </symbol>
</svg>
