<svg xmlns="http://www.w3.org/2000/svg" style="display: none">
  <symbol id="fontawesome-solid-add-circle" viewBox="0 0 24 24">
    <path
      d="M12.0195 22C8.42578 22 5.14453 20.125 3.34766 17C1.55078 13.9141 1.55078 10.125 3.34766 7C5.14453 3.91406 8.42578 2 12.0195 2C15.5742 2 18.8555 3.91406 20.6523 7C22.4492 10.125 22.4492 13.9141 20.6523 17C18.8555 20.125 15.5742 22 12.0195 22ZM11.082 15.4375C11.082 15.9844 11.4727 16.375 12.0195 16.375C12.5273 16.375 12.957 15.9844 12.957 15.4375V12.9375H15.457C15.9648 12.9375 16.3945 12.5469 16.3945 12C16.3945 11.4922 15.9648 11.0625 15.457 11.0625H12.957V8.5625C12.957 8.05469 12.5273 7.625 12.0195 7.625C11.4727 7.625 11.082 8.05469 11.082 8.5625V11.0625H8.58203C8.03516 11.0625 7.64453 11.4922 7.64453 12C7.64453 12.5469 8.03516 12.9375 8.58203 12.9375H11.082V15.4375Z"
    />
  </symbol>
  <symbol id="fontawesome-solid-add" viewBox="0 0 24 24">
    <path
      d="M13.25 5.125V10.75H18.875C19.5391 10.75 20.125 11.3359 20.125 12C20.125 12.7031 19.5391 13.25 18.875 13.25H13.25V18.875C13.25 19.5781 12.6641 20.125 12 20.125C11.2969 20.125 10.75 19.5781 10.75 18.875V13.25H5.125C4.42188 13.25 3.875 12.7031 3.875 12C3.875 11.3359 4.42188 10.75 5.125 10.75H10.75V5.125C10.75 4.46094 11.2969 3.875 12 3.875C12.6641 3.875 13.25 4.46094 13.25 5.125Z"
    />
  </symbol>
  <symbol id="fontawesome-solid-arrow-down" viewBox="0 0 24 24">
    <path
      d="M11.1211 20.3838L4.87109 14.1338C4.36328 13.665 4.36328 12.8447 4.87109 12.376C5.33984 11.8682 6.16016 11.8682 6.62891 12.376L10.7695 16.4775V4.48535C10.7695 3.82129 11.3164 3.23535 12.0195 3.23535C12.6836 3.23535 13.2695 3.82129 13.2695 4.48535V16.4775L17.3711 12.376C17.8398 11.8682 18.6602 11.8682 19.1289 12.376C19.6367 12.8447 19.6367 13.665 19.1289 14.1338L12.8789 20.3838C12.4102 20.8916 11.5898 20.8916 11.1211 20.3838Z"
    />
  </symbol>
  <symbol id="fontawesome-solid-arrow-left" viewBox="0 0 24 24">
    <path
      d="M3.61621 11.1211L9.86621 4.87109C10.335 4.36328 11.1553 4.36328 11.624 4.87109C12.1318 5.33984 12.1318 6.16016 11.624 6.62891L7.52246 10.7305H19.5146C20.1787 10.7305 20.7646 11.3164 20.7646 11.9805C20.7646 12.6836 20.1787 13.2305 19.5146 13.2305H7.52246L11.624 17.3711C12.1318 17.8398 12.1318 18.6602 11.624 19.1289C11.1553 19.6367 10.335 19.6367 9.86621 19.1289L3.61621 12.8789C3.1084 12.4102 3.1084 11.5898 3.61621 11.1211Z"
    />
  </symbol>
  <symbol id="fontawesome-solid-arrow-right" viewBox="0 0 24 24">
    <path
      d="M20.3643 12.8789L14.1143 19.1289C13.6455 19.6367 12.8252 19.6367 12.3564 19.1289C11.8486 18.6602 11.8486 17.8398 12.3564 17.3711L16.458 13.2305H4.50488C3.80176 13.2305 3.25488 12.6836 3.25488 11.9805C3.25488 11.3164 3.80176 10.7305 4.50488 10.7305H16.458L12.3564 6.62891C11.8486 6.16016 11.8486 5.33984 12.3564 4.87109C12.8252 4.36328 13.6455 4.36328 14.1143 4.87109L20.3643 11.1211C20.8721 11.5898 20.8721 12.4102 20.3643 12.8789Z"
    />
  </symbol>
  <symbol id="fontawesome-solid-arrow-up" viewBox="0 0 24 24">
    <path
      d="M12.8789 3.63574L19.1289 9.88574C19.6367 10.3545 19.6367 11.1748 19.1289 11.6436C18.6602 12.1514 17.8398 12.1514 17.3711 11.6436L13.2695 7.54199V19.4951C13.2695 20.1982 12.6836 20.7451 12.0195 20.7451C11.3164 20.7451 10.7695 20.1982 10.7695 19.4951V7.54199L6.62891 11.6436C6.16016 12.1514 5.33984 12.1514 4.87109 11.6436C4.36328 11.1748 4.36328 10.3545 4.87109 9.88574L11.1211 3.63574C11.5898 3.12793 12.4102 3.12793 12.8789 3.63574Z"
    />
  </symbol>
  <symbol id="fontawesome-solid-audio-file" viewBox="0 0 24 24">
    <path
      d="M7 2H13.25V7C13.25 7.70312 13.7969 8.25 14.5 8.25H19.5V19.5C19.5 20.9062 18.3672 22 17 22H7C5.59375 22 4.5 20.9062 4.5 19.5V4.5C4.5 3.13281 5.59375 2 7 2ZM14.5 2L19.5 7H14.5V2ZM14.5781 10.8672C14.2656 10.6719 13.875 10.7891 13.7188 11.0625C13.5234 11.375 13.6016 11.7656 13.9141 11.9219C15.0078 12.5859 15.75 13.7969 15.75 15.125C15.75 16.4922 15.0078 17.7031 13.9141 18.3672C13.6016 18.5234 13.5234 18.9141 13.7188 19.2266C13.875 19.5 14.2656 19.6172 14.5781 19.4219C16.0234 18.5625 17 16.9609 17 15.125C17 13.3281 16.0234 11.7266 14.5781 10.8672ZM10.9844 12.0781C10.75 11.9609 10.4766 12.0391 10.2812 12.1953L8.91406 13.5625H7.625C7.27344 13.5625 7 13.875 7 14.1875V16.0625C7 16.4141 7.27344 16.6875 7.625 16.6875H8.91406L10.2812 18.0938C10.4766 18.25 10.75 18.3281 10.9844 18.2109C11.2188 18.1328 11.375 17.8984 11.375 17.625V12.625C11.375 12.3906 11.2188 12.1562 10.9844 12.0781ZM12.9766 13.4453C12.7031 13.6797 12.6641 14.0703 12.8984 14.3047C13.0938 14.5391 13.2109 14.8125 13.2109 15.1641C13.2109 15.4766 13.0938 15.75 12.8984 15.9844C12.7031 16.2188 12.7031 16.6484 12.9766 16.8438C13.2109 17.0781 13.6016 17.0781 13.8359 16.8047C14.2266 16.375 14.5 15.7891 14.5 15.125C14.5 14.5 14.2266 13.9141 13.8359 13.4844C13.6016 13.2109 13.2109 13.2109 12.9766 13.4453Z"
    />
  </symbol>
  <symbol id="fontawesome-solid-award" viewBox="0 0 24 24">
    <path
      d="M11.2691 2.21582C11.6988 1.94238 12.2847 1.94238 12.7144 2.21582L13.4175 2.68457C13.6519 2.84082 13.9253 2.87988 14.1988 2.87988L15.0191 2.84082C15.5269 2.80176 16.0347 3.0752 16.23 3.54395L16.6207 4.28613C16.7378 4.52051 16.9332 4.75488 17.2066 4.87207L17.9488 5.22363C18.4175 5.45801 18.691 5.96582 18.6519 6.47363L18.6128 7.29395C18.6128 7.56738 18.6519 7.84082 18.8082 8.0752L19.2769 8.77832C19.5503 9.20801 19.5503 9.79395 19.2769 10.2236L18.8082 10.8877C18.6519 11.1221 18.6128 11.3955 18.6128 11.708L18.6519 12.5283C18.691 13.0361 18.4175 13.5049 17.9488 13.7393L17.2066 14.1299C16.9722 14.2471 16.7378 14.4424 16.6207 14.7158L16.2691 15.458C16.0347 15.9268 15.5269 16.2002 15.0191 16.1611L14.1988 16.1221C13.9253 16.083 13.6519 16.1611 13.4175 16.3174L12.7144 16.7861C12.2847 17.0596 11.6988 17.0596 11.2691 16.7861L10.605 16.3174C10.3707 16.1611 10.0972 16.083 9.78472 16.1221L8.9644 16.1611C8.45659 16.2002 7.98784 15.9268 7.75347 15.458L7.36284 14.7158C7.24565 14.4424 7.05034 14.2471 6.7769 14.1299L6.03472 13.7393C5.56597 13.5439 5.29253 13.0361 5.33159 12.5283L5.37065 11.708C5.40972 11.4346 5.33159 11.1221 5.17534 10.9268L4.70659 10.2236C4.43315 9.79395 4.43315 9.20801 4.70659 8.77832L5.17534 8.0752C5.33159 7.84082 5.40972 7.56738 5.37065 7.29395L5.33159 6.47363C5.29253 5.96582 5.56597 5.45801 6.03472 5.2627L6.7769 4.87207C7.05034 4.75488 7.24565 4.52051 7.36284 4.28613L7.75347 3.54395C7.94878 3.0752 8.45659 2.80176 8.9644 2.84082L9.78472 2.87988C10.0582 2.87988 10.3707 2.84082 10.566 2.68457L11.2691 2.21582ZM15.1363 9.48145C15.1363 8.3877 14.5113 7.37207 13.5738 6.78613C12.5972 6.23926 11.3863 6.23926 10.4488 6.78613C9.47222 7.37207 8.88628 8.3877 8.88628 9.48145C8.88628 10.6143 9.47222 11.6299 10.4488 12.2158C11.3863 12.7627 12.5972 12.7627 13.5738 12.2158C14.5113 11.6299 15.1363 10.6143 15.1363 9.48145ZM4.55034 19.2471L6.23003 15.2627L6.62065 16.0049C7.0894 16.9033 8.0269 17.4893 9.04253 17.4111L9.86284 17.3721H9.9019L10.605 17.8408C10.8003 17.958 10.9957 18.0752 11.23 18.1143L9.74565 21.6299C9.66753 21.8252 9.47222 21.9814 9.23784 21.9814C9.00347 22.0205 8.76909 21.9033 8.6519 21.708L7.4019 19.7939L5.2144 20.1064C4.98003 20.1455 4.74565 20.0674 4.62847 19.8721C4.47222 19.7158 4.47222 19.4814 4.55034 19.2471ZM14.2378 21.6299L12.7535 18.1143C12.9878 18.0752 13.1832 17.958 13.3785 17.8408L14.0816 17.3721H14.1207L14.941 17.4111C15.9566 17.4893 16.8941 16.9033 17.3628 16.0049L17.7535 15.2627L19.4332 19.2471C19.5503 19.4814 19.5113 19.7158 19.355 19.8721C19.2378 20.0674 19.0035 20.1455 18.7691 20.1064L16.5816 19.7939L15.3316 21.708C15.2144 21.9033 14.98 22.0205 14.7457 21.9814C14.5113 21.9814 14.316 21.8252 14.2378 21.6299Z"
    />
  </symbol>
  <symbol id="fontawesome-solid-book" viewBox="0 0 24 24">
    <path
      d="M7 2H18.25H19.5C20.1641 2 20.75 2.58594 20.75 3.25V15.75C20.75 16.4531 20.1641 17 19.5 17V19.5C20.1641 19.5 20.75 20.0859 20.75 20.75C20.75 21.4531 20.1641 22 19.5 22H18.25H7C4.92969 22 3.25 20.3203 3.25 18.25V5.75C3.25 3.67969 4.92969 2 7 2ZM7 17C6.29688 17 5.75 17.5859 5.75 18.25C5.75 18.9531 6.29688 19.5 7 19.5H17V17H7ZM8.25 7.625C8.25 7.97656 8.52344 8.25 8.875 8.25H16.375C16.6875 8.25 17 7.97656 17 7.625C17 7.3125 16.6875 7 16.375 7H8.875C8.52344 7 8.25 7.3125 8.25 7.625ZM8.875 9.5C8.52344 9.5 8.25 9.8125 8.25 10.125C8.25 10.4766 8.52344 10.75 8.875 10.75H16.375C16.6875 10.75 17 10.4766 17 10.125C17 9.8125 16.6875 9.5 16.375 9.5H8.875Z"
    />
  </symbol>
  <symbol id="fontawesome-solid-bookmark" viewBox="0 0 24 24">
    <path
      d="M4.5 3.875C4.5 2.85938 5.32031 2 6.375 2H17.625C18.6406 2 19.5 2.85938 19.5 3.875V21.0625C19.5 21.6094 19.0703 22 18.5234 22C18.3281 22 18.1328 21.9609 17.9766 21.8438L12 17.625L5.98438 21.8438C5.82812 21.9609 5.63281 22 5.4375 22C4.89062 22 4.5 21.6094 4.5 21.0625V3.875Z"
    />
  </symbol>
  <symbol id="fontawesome-solid-box" viewBox="0 0 24 24">
    <path
      d="M3.25 3.25H20.75C21.4141 3.25 22 3.83594 22 4.5V5.75C22 6.45312 21.4141 7 20.75 7H3.25C2.54688 7 2 6.45312 2 5.75V4.5C2 3.83594 2.54688 3.25 3.25 3.25ZM3.25 8.25H20.75V18.25C20.75 19.6562 19.6172 20.75 18.25 20.75H5.75C4.34375 20.75 3.25 19.6562 3.25 18.25V8.25ZM8.25 11.375C8.25 11.7266 8.52344 12 8.875 12H15.125C15.4375 12 15.75 11.7266 15.75 11.375C15.75 11.0625 15.4375 10.75 15.125 10.75H8.875C8.52344 10.75 8.25 11.0625 8.25 11.375Z"
    />
  </symbol>
  <symbol id="fontawesome-solid-chat" viewBox="0 0 24 24">
    <path
      d="M12.0086 19.4805V19.5195C10.5242 19.5195 9.15701 19.2461 7.90701 18.8164C7.47732 19.1289 6.69607 19.5977 5.79763 19.9883C4.86013 20.418 3.72732 20.7695 2.63357 20.7695C2.36013 20.7695 2.12576 20.6133 2.04763 20.3789C1.93045 20.1445 2.00857 19.8711 2.16482 19.6758C2.20388 19.6758 2.20388 19.6367 2.24295 19.6367C2.28201 19.5586 2.36013 19.4805 2.43826 19.4023C2.59451 19.207 2.78982 18.8945 3.0242 18.543C3.41482 17.918 3.76638 17.0586 3.84451 16.082C2.67263 14.7539 2.00857 13.1523 2.00857 11.3555C2.00857 6.90234 6.4617 3.23047 12.0086 3.23047C17.5164 3.23047 22.0086 6.90234 22.0086 11.3555C22.0086 15.8477 17.5164 19.4805 12.0086 19.4805ZM7.00857 10.1055C6.30545 10.1055 5.75857 10.6914 5.75857 11.3555C5.75857 12.0586 6.30545 12.6055 7.00857 12.6055C7.67263 12.6055 8.25857 12.0586 8.25857 11.3555C8.25857 10.6914 7.67263 10.1055 7.00857 10.1055ZM12.0086 10.1055C11.3054 10.1055 10.7586 10.6914 10.7586 11.3555C10.7586 12.0586 11.3054 12.6055 12.0086 12.6055C12.6726 12.6055 13.2586 12.0586 13.2586 11.3555C13.2586 10.6914 12.6726 10.1055 12.0086 10.1055ZM15.7586 11.3555C15.7586 12.0586 16.3054 12.6055 17.0086 12.6055C17.6726 12.6055 18.2586 12.0586 18.2586 11.3555C18.2586 10.6914 17.6726 10.1055 17.0086 10.1055C16.3054 10.1055 15.7586 10.6914 15.7586 11.3555Z"
    />
  </symbol>
  <symbol id="fontawesome-solid-check-circle" viewBox="0 0 24 24">
    <path
      d="M12.0195 22C8.42578 22 5.14453 20.125 3.34766 17C1.55078 13.9141 1.55078 10.125 3.34766 7C5.14453 3.91406 8.42578 2 12.0195 2C15.5742 2 18.8555 3.91406 20.6523 7C22.4492 10.125 22.4492 13.9141 20.6523 17C18.8555 20.125 15.5742 22 12.0195 22ZM16.4336 10.1641H16.3945C16.7852 9.8125 16.7852 9.22656 16.3945 8.83594C16.043 8.48438 15.457 8.48438 15.1055 8.83594L10.7695 13.2109L8.93359 11.375C8.54297 10.9844 7.95703 10.9844 7.60547 11.375C7.21484 11.7266 7.21484 12.3125 7.60547 12.6641L10.1055 15.1641C10.457 15.5547 11.043 15.5547 11.4336 15.1641L16.4336 10.1641Z"
    />
  </symbol>
  <symbol id="fontawesome-solid-check" viewBox="0 0 24 24">
    <path
      d="M20.3789 6.12109C20.8867 6.58984 20.8867 7.41016 20.3789 7.87891L10.3789 17.8789C9.91016 18.3867 9.08984 18.3867 8.62109 17.8789L3.62109 12.8789C3.11328 12.4102 3.11328 11.5898 3.62109 11.1211C4.08984 10.6133 4.91016 10.6133 5.37891 11.1211L9.51953 15.2227L18.6211 6.12109C19.0898 5.61328 19.9102 5.61328 20.3789 6.12109Z"
    />
  </symbol>
  <symbol id="fontawesome-solid-checkbox-checked" viewBox="0 0 24 24">
    <path
      d="M5.75 3.25H18.25C19.6172 3.25 20.75 4.38281 20.75 5.75V18.25C20.75 19.6562 19.6172 20.75 18.25 20.75H5.75C4.34375 20.75 3.25 19.6562 3.25 18.25V5.75C3.25 4.38281 4.34375 3.25 5.75 3.25ZM16.4141 10.1641H16.375C16.7656 9.8125 16.7656 9.22656 16.375 8.83594C16.0234 8.48438 15.4375 8.48438 15.0859 8.83594L10.75 13.2109L8.91406 11.375C8.52344 10.9844 7.9375 10.9844 7.58594 11.375C7.19531 11.7266 7.19531 12.3125 7.58594 12.6641L10.0859 15.1641C10.4375 15.5547 11.0234 15.5547 11.4141 15.1641L16.4141 10.1641Z"
    />
  </symbol>
  <symbol id="fontawesome-solid-checkbox-unchecked" viewBox="0 0 24 24">
    <path
      d="M18.25 5.125H5.75C5.39844 5.125 5.125 5.4375 5.125 5.75V18.25C5.125 18.6016 5.39844 18.875 5.75 18.875H18.25C18.5625 18.875 18.875 18.6016 18.875 18.25V5.75C18.875 5.4375 18.5625 5.125 18.25 5.125ZM5.75 3.25H18.25C19.6172 3.25 20.75 4.38281 20.75 5.75V18.25C20.75 19.6562 19.6172 20.75 18.25 20.75H5.75C4.34375 20.75 3.25 19.6562 3.25 18.25V5.75C3.25 4.38281 4.34375 3.25 5.75 3.25Z"
    />
  </symbol>
  <symbol id="fontawesome-solid-checklist" viewBox="0 0 24 24">
    <path
      d="M7.95215 3.82881C8.34277 4.18037 8.34277 4.76631 7.99121 5.15693L5.17871 8.28193C5.02246 8.43818 4.78809 8.55537 4.51465 8.55537C4.28027 8.59443 4.00684 8.47724 3.85059 8.28193L2.28809 6.71943C1.89746 6.36787 1.89746 5.78193 2.28809 5.39131C2.63965 5.03974 3.22559 5.03974 3.57715 5.39131L4.47559 6.28974L6.62402 3.86787C6.97559 3.47724 7.56152 3.47724 7.95215 3.82881ZM7.95215 10.0788C8.34277 10.4304 8.34277 11.0163 7.99121 11.4069L5.17871 14.5319C5.02246 14.6882 4.78809 14.8054 4.51465 14.8054C4.28027 14.8444 4.00684 14.7272 3.85059 14.5319L2.28809 12.9694C1.89746 12.6179 1.89746 12.0319 2.28809 11.6804C2.63965 11.2897 3.22559 11.2897 3.57715 11.6804L4.47559 12.5397L6.62402 10.1179C6.97559 9.76631 7.56152 9.72724 7.95215 10.0788ZM10.7646 6.05537C10.7646 5.39131 11.3115 4.80537 12.0146 4.80537H20.7646C21.4287 4.80537 22.0146 5.39131 22.0146 6.05537C22.0146 6.75849 21.4287 7.30537 20.7646 7.30537H12.0146C11.3115 7.30537 10.7646 6.75849 10.7646 6.05537ZM10.7646 12.3054C10.7646 11.6413 11.3115 11.0554 12.0146 11.0554H20.7646C21.4287 11.0554 22.0146 11.6413 22.0146 12.3054C22.0146 13.0085 21.4287 13.5554 20.7646 13.5554H12.0146C11.3115 13.5554 10.7646 13.0085 10.7646 12.3054ZM8.26465 18.5554C8.26465 17.8913 8.81152 17.3054 9.51465 17.3054H20.7646C21.4287 17.3054 22.0146 17.8913 22.0146 18.5554C22.0146 19.2585 21.4287 19.8054 20.7646 19.8054H9.51465C8.81152 19.8054 8.26465 19.2585 8.26465 18.5554ZM3.88965 16.6804C4.55371 16.6804 5.13965 17.071 5.49121 17.6179C5.84277 18.2038 5.84277 18.946 5.49121 19.4929C5.13965 20.0788 4.55371 20.4304 3.88965 20.4304C3.18652 20.4304 2.60059 20.0788 2.24902 19.4929C1.89746 18.946 1.89746 18.2038 2.24902 17.6179C2.60059 17.071 3.18652 16.6804 3.88965 16.6804Z"
    />
  </symbol>
  <symbol id="fontawesome-solid-chevron-down" viewBox="0 0 24 24">
    <path
      d="M11.1211 16.6289L3.62109 9.12891C3.11328 8.66016 3.11328 7.83984 3.62109 7.37109C4.08984 6.86328 4.91016 6.86328 5.37891 7.37109L12.0195 13.9727L18.6211 7.37109C19.0898 6.86328 19.9102 6.86328 20.3789 7.37109C20.8867 7.83984 20.8867 8.66016 20.3789 9.12891L12.8789 16.6289C12.4102 17.1367 11.5898 17.1367 11.1211 16.6289Z"
    />
  </symbol>
  <symbol id="fontawesome-solid-chevron-left" viewBox="0 0 24 24">
    <path
      d="M7.37109 11.1211L14.8711 3.62109C15.3398 3.11328 16.1602 3.11328 16.6289 3.62109C17.1367 4.08984 17.1367 4.91016 16.6289 5.37891L10.0273 11.9805L16.6289 18.6211C17.1367 19.0898 17.1367 19.9102 16.6289 20.3789C16.1602 20.8867 15.3398 20.8867 14.8711 20.3789L7.37109 12.8789C6.86328 12.4102 6.86328 11.5898 7.37109 11.1211Z"
    />
  </symbol>
  <symbol id="fontawesome-solid-chevron-right" viewBox="0 0 24 24">
    <path
      d="M16.6289 11.1211C17.1367 11.5898 17.1367 12.4102 16.6289 12.8789L9.12891 20.3789C8.66016 20.8867 7.83984 20.8867 7.37109 20.3789C6.86328 19.9102 6.86328 19.0898 7.37109 18.6211L13.9727 11.9805L7.37109 5.37891C6.86328 4.91016 6.86328 4.08984 7.37109 3.62109C7.83984 3.11328 8.66016 3.11328 9.12891 3.62109L16.6289 11.1211Z"
    />
  </symbol>
  <symbol id="fontawesome-solid-chevron-up" viewBox="0 0 24 24">
    <path
      d="M11.1211 7.37109C11.5898 6.86328 12.4102 6.86328 12.8789 7.37109L20.3789 14.8711C20.8867 15.3398 20.8867 16.1602 20.3789 16.6289C19.9102 17.1367 19.0898 17.1367 18.6211 16.6289L12.0195 10.0273L5.37891 16.6289C4.91016 17.1367 4.08984 17.1367 3.62109 16.6289C3.11328 16.1602 3.11328 15.3398 3.62109 14.8711L11.1211 7.37109Z"
    />
  </symbol>
  <symbol id="fontawesome-solid-clapboard" viewBox="0 0 24 24">
    <path
      d="M19.5 3.25C19.5781 3.25 19.6172 3.28906 19.6953 3.28906L14.7734 8.21094L14.7344 8.25H11.1016L16.0625 3.28906L16.1016 3.25H19.5ZM22 8.25H17.3906L21.4531 4.1875C21.7656 4.61719 22 5.16406 22 5.75V8.25ZM13.4844 3.25L8.52344 8.21094L8.48438 8.25H4.85156L9.85156 3.28906L9.89062 3.25H13.4844ZM4.5 3.25H7.23438L2.27344 8.21094L2.23438 8.25H2V5.75C2 4.38281 3.09375 3.25 4.5 3.25ZM22 9.5V18.25C22 19.6562 20.8672 20.75 19.5 20.75H4.5C3.09375 20.75 2 19.6562 2 18.25V9.5H22Z"
    />
  </symbol>
  <symbol id="fontawesome-solid-clock" viewBox="0 0 24 24">
    <path
      d="M12.0195 2C15.5742 2 18.8555 3.91406 20.6523 7C22.4492 10.125 22.4492 13.9141 20.6523 17C18.8555 20.125 15.5742 22 12.0195 22C8.42578 22 5.14453 20.125 3.34766 17C1.55078 13.9141 1.55078 10.125 3.34766 7C5.14453 3.91406 8.42578 2 12.0195 2ZM11.082 6.6875V12C11.082 12.3125 11.2383 12.625 11.4727 12.7812L15.2227 15.2812C15.6523 15.5938 16.2383 15.4766 16.5508 15.0469C16.8242 14.6172 16.707 14.0312 16.2773 13.7188L12.957 11.5312V6.6875C12.957 6.17969 12.5273 5.75 12.0195 5.75C11.4727 5.75 11.082 6.17969 11.082 6.6875Z"
    />
  </symbol>
  <symbol id="fontawesome-solid-contract" viewBox="0 0 24 24">
    <path
      d="M19.168 2.25879C19.5195 1.90723 20.1055 1.90723 20.457 2.25879L21.707 3.50879C22.0977 3.89941 22.0977 4.48535 21.707 4.83691L18.3086 8.23535L19.832 9.75879C20.1055 10.0322 20.1836 10.4619 20.0664 10.8135C19.9102 11.165 19.5586 11.3604 19.168 11.3604H13.543C13.0352 11.3604 12.6055 10.9697 12.6055 10.4229V4.79785C12.6055 4.44629 12.8398 4.09473 13.1914 3.93848C13.543 3.78223 13.9727 3.86035 14.207 4.13379L15.7305 5.65723L19.168 2.25879ZM4.83203 12.6104H10.457C10.9648 12.6104 11.3945 13.04 11.3945 13.5479V19.1729C11.3945 19.5635 11.1602 19.915 10.8086 20.0713C10.457 20.1885 10.0273 20.1104 9.79297 19.8369L8.26953 18.3135L4.87109 21.7119C4.48047 22.1025 3.89453 22.1025 3.54297 21.7119L2.29297 20.4619C1.90234 20.1104 1.90234 19.5244 2.29297 19.1729L5.69141 15.7744L4.16797 14.2119C3.89453 13.9775 3.81641 13.5479 3.93359 13.1963C4.08984 12.8447 4.44141 12.6104 4.83203 12.6104Z"
    />
  </symbol>
  <symbol id="fontawesome-solid-document" viewBox="0 0 24 24">
    <path
      d="M7 2H13.25V7C13.25 7.70312 13.7969 8.25 14.5 8.25H19.5V19.5C19.5 20.9062 18.3672 22 17 22H7C5.59375 22 4.5 20.9062 4.5 19.5V4.5C4.5 3.13281 5.59375 2 7 2ZM14.5 2L19.5 7H14.5V2ZM8.875 12C8.52344 12 8.25 12.3125 8.25 12.625C8.25 12.9766 8.52344 13.25 8.875 13.25H15.125C15.4375 13.25 15.75 12.9766 15.75 12.625C15.75 12.3125 15.4375 12 15.125 12H8.875ZM8.875 14.5C8.52344 14.5 8.25 14.8125 8.25 15.125C8.25 15.4766 8.52344 15.75 8.875 15.75H15.125C15.4375 15.75 15.75 15.4766 15.75 15.125C15.75 14.8125 15.4375 14.5 15.125 14.5H8.875ZM8.875 17C8.52344 17 8.25 17.3125 8.25 17.625C8.25 17.9766 8.52344 18.25 8.875 18.25H15.125C15.4375 18.25 15.75 17.9766 15.75 17.625C15.75 17.3125 15.4375 17 15.125 17H8.875Z"
    />
  </symbol>
  <symbol id="fontawesome-solid-down-circle" viewBox="0 0 24 24">
    <path
      d="M12.0195 2C15.5742 2 18.8555 3.91406 20.6523 7C22.4492 10.125 22.4492 13.9141 20.6523 17C18.8555 20.125 15.5742 22 12.0195 22C8.42578 22 5.14453 20.125 3.34766 17C1.55078 13.9141 1.55078 10.125 3.34766 7C5.14453 3.91406 8.42578 2 12.0195 2ZM11.5508 17.4688C11.7852 17.7031 12.2148 17.7031 12.4492 17.4688L16.8242 13.0938C16.9805 12.8984 17.0586 12.625 16.9414 12.3906C16.8633 12.1562 16.6289 12 16.3945 12H13.8945V8.25C13.8945 7.58594 13.3086 7 12.6445 7H11.3945C10.6914 7 10.1445 7.58594 10.1445 8.25V12H7.64453C7.37109 12 7.13672 12.1562 7.05859 12.3906C6.94141 12.625 7.01953 12.8984 7.17578 13.0938L11.5508 17.4688Z"
    />
  </symbol>
  <symbol id="fontawesome-solid-download" viewBox="0 0 24 24">
    <path
      d="M13.25 3.25V12.7422L16.1016 9.89062C16.5703 9.38281 17.3906 9.38281 17.8594 9.89062C18.3672 10.3594 18.3672 11.1797 17.8594 11.6484L12.8594 16.6484C12.3906 17.1562 11.5703 17.1562 11.1016 16.6484L6.10156 11.6484C5.59375 11.1797 5.59375 10.3594 6.10156 9.89062C6.57031 9.38281 7.39062 9.38281 7.85938 9.89062L10.75 12.7422V3.25C10.75 2.58594 11.2969 2 12 2C12.6641 2 13.25 2.58594 13.25 3.25ZM4.5 15.75H8.44531L10.2031 17.5469C11.1797 18.5234 12.7812 18.5234 13.7578 17.5469L15.5156 15.75H19.5C20.8672 15.75 22 16.8828 22 18.25V19.5C22 20.9062 20.8672 22 19.5 22H4.5C3.09375 22 2 20.9062 2 19.5V18.25C2 16.8828 3.09375 15.75 4.5 15.75ZM18.875 17.9375C18.3281 17.9375 17.9375 18.3672 17.9375 18.875C17.9375 19.4219 18.3281 19.8125 18.875 19.8125C19.3828 19.8125 19.8125 19.4219 19.8125 18.875C19.8125 18.3672 19.3828 17.9375 18.875 17.9375Z"
    />
  </symbol>
  <symbol id="fontawesome-solid-drag" viewBox="0 0 24 24">
    <path
      d="M4.5 13.25H19.5C20.1641 13.25 20.75 13.8359 20.75 14.5C20.75 15.2031 20.1641 15.75 19.5 15.75H4.5C3.79688 15.75 3.25 15.2031 3.25 14.5C3.25 13.8359 3.79688 13.25 4.5 13.25ZM4.5 8.25H19.5C20.1641 8.25 20.75 8.83594 20.75 9.5C20.75 10.2031 20.1641 10.75 19.5 10.75H4.5C3.79688 10.75 3.25 10.2031 3.25 9.5C3.25 8.83594 3.79688 8.25 4.5 8.25Z"
    />
  </symbol>
  <symbol id="fontawesome-solid-exclamation-circle" viewBox="0 0 24 24">
    <path
      d="M12.0195 22C8.42578 22 5.14453 20.125 3.34766 17C1.55078 13.9141 1.55078 10.125 3.34766 7C5.14453 3.91406 8.42578 2 12.0195 2C15.5742 2 18.8555 3.91406 20.6523 7C22.4492 10.125 22.4492 13.9141 20.6523 17C18.8555 20.125 15.5742 22 12.0195 22ZM12.0195 7C11.4727 7 11.082 7.42969 11.082 7.9375V12.3125C11.082 12.8594 11.4727 13.25 12.0195 13.25C12.5273 13.25 12.957 12.8594 12.957 12.3125V7.9375C12.957 7.42969 12.5273 7 12.0195 7ZM10.7695 15.75C10.7695 16.4531 11.3164 17 12.0195 17C12.6836 17 13.2695 16.4531 13.2695 15.75C13.2695 15.0859 12.6836 14.5 12.0195 14.5C11.3164 14.5 10.7695 15.0859 10.7695 15.75Z"
    />
  </symbol>
  <symbol id="fontawesome-solid-exclamation" viewBox="0 0 24 24">
    <path
      d="M13.2695 4.5V14.5C13.2695 15.2031 12.6836 15.75 12.0195 15.75C11.3164 15.75 10.7695 15.2031 10.7695 14.5V4.5C10.7695 3.83594 11.3164 3.25 12.0195 3.25C12.6836 3.25 13.2695 3.83594 13.2695 4.5ZM12.0195 20.75C11.4336 20.75 10.9258 20.4766 10.6523 19.9688C10.3789 19.5 10.3789 18.9141 10.6523 18.4062C10.9258 17.9375 11.4336 17.625 12.0195 17.625C12.5664 17.625 13.0742 17.9375 13.3477 18.4062C13.6211 18.9141 13.6211 19.5 13.3477 19.9688C13.0742 20.4766 12.5664 20.75 12.0195 20.75Z"
    />
  </symbol>
  <symbol id="fontawesome-solid-expand" viewBox="0 0 24 24">
    <path
      d="M15.4375 2H21.0625C21.5703 2 22 2.42969 22 2.9375V8.5625C22 8.95312 21.7656 9.30469 21.4141 9.46094C21.0625 9.57812 20.6328 9.5 20.3984 9.22656L18.875 7.70312L15.4766 11.1016C15.0859 11.4922 14.5 11.4922 14.1484 11.1016L12.8984 9.85156C12.5078 9.5 12.5078 8.91406 12.8984 8.5625L16.2969 5.16406L14.7734 3.60156C14.5 3.36719 14.4219 2.9375 14.5391 2.58594C14.6953 2.23438 15.0469 2 15.4375 2ZM8.5625 22H2.9375C2.39062 22 2 21.6094 2 21.0625V15.4375C2 15.0859 2.19531 14.7344 2.54688 14.5781C2.89844 14.4609 3.32812 14.5391 3.60156 14.7734L5.125 16.2969L8.52344 12.8984C8.875 12.5469 9.46094 12.5469 9.8125 12.8984L11.0625 14.1484C11.4531 14.5391 11.4531 15.125 11.0625 15.4766L7.66406 18.875L9.1875 20.3984C9.46094 20.6719 9.53906 21.1016 9.42188 21.4531C9.26562 21.8047 8.91406 22 8.52344 22H8.5625Z"
    />
  </symbol>
  <symbol id="fontawesome-solid-eye" viewBox="0 0 24 24">
    <path
      d="M12.0195 3.25C15.1445 3.25 17.6836 4.69531 19.5195 6.41406C21.3555 8.09375 22.5664 10.125 23.1523 11.5312C23.2695 11.8438 23.2695 12.1953 23.1523 12.5078C22.5664 13.875 21.3555 15.9062 19.5195 17.625C17.6836 19.3438 15.1445 20.75 12.0195 20.75C8.85547 20.75 6.31641 19.3438 4.48047 17.625C2.64453 15.9062 1.43359 13.875 0.847656 12.5078C0.730469 12.1953 0.730469 11.8438 0.847656 11.5312C1.43359 10.125 2.64453 8.09375 4.48047 6.41406C6.31641 4.69531 8.85547 3.25 12.0195 3.25ZM6.39453 12C6.39453 14.0312 7.44922 15.8672 9.20703 16.8828C10.9258 17.8984 13.0742 17.8984 14.832 16.8828C16.5508 15.8672 17.6445 14.0312 17.6445 12C17.6445 10.0078 16.5508 8.17188 14.832 7.15625C13.0742 6.14062 10.9258 6.14062 9.20703 7.15625C7.44922 8.17188 6.39453 10.0078 6.39453 12ZM12.0195 9.5C12.0195 9.22656 11.9414 8.99219 11.8633 8.71875C11.7852 8.52344 11.9414 8.25 12.1758 8.25C13.7383 8.32812 15.1836 9.42188 15.6133 11.0625C16.1602 13.0547 14.9883 15.0859 12.957 15.6328C10.9648 16.1797 8.89453 14.9688 8.38672 12.9766C8.30859 12.7031 8.26953 12.4297 8.26953 12.1953C8.23047 11.9609 8.50391 11.8047 8.69922 11.8828C8.97266 11.9609 9.20703 12 9.51953 12C10.8867 12 12.0195 10.9062 12.0195 9.5Z"
    />
  </symbol>
  <symbol id="fontawesome-solid-file" viewBox="0 0 24 24">
    <path
      d="M4.5 4.5C4.5 3.13281 5.59375 2 7 2H13.25V7C13.25 7.70312 13.7969 8.25 14.5 8.25H19.5V19.5C19.5 20.9062 18.3672 22 17 22H7C5.59375 22 4.5 20.9062 4.5 19.5V4.5ZM19.5 7H14.5V2L19.5 7Z"
    />
  </symbol>
  <symbol id="fontawesome-solid-flag" viewBox="0 0 24 24">
    <path
      d="M5.75 3.25V3.875L8.44531 3.21094C9.92969 2.85938 11.4922 3.01562 12.8594 3.71875C14.6562 4.61719 16.8047 4.61719 18.6016 3.71875L18.9922 3.52344C19.7734 3.09375 20.75 3.67969 20.75 4.57812V14.2656C20.75 14.8125 20.3984 15.2422 19.9297 15.4375L18.5625 15.9453C16.7656 16.6484 14.7734 16.5312 13.0156 15.6719C11.5312 14.9297 9.85156 14.7344 8.25 15.125L5.75 15.75V20.75C5.75 21.4531 5.16406 22 4.5 22C3.79688 22 3.25 21.4531 3.25 20.75V16.375V4.5V3.25C3.25 2.58594 3.79688 2 4.5 2C5.16406 2 5.75 2.58594 5.75 3.25Z"
    />
  </symbol>
  <symbol id="fontawesome-solid-graduation-hat" viewBox="0 0 24 24">
    <path
      d="M13.0068 3.24219C13.3193 3.24219 13.6318 3.32031 13.9053 3.4375L24.8818 7.38281C25.2334 7.5 25.5068 7.85156 25.5068 8.24219C25.5068 8.67188 25.2334 9.02344 24.8818 9.14062L13.9053 13.0859C13.6318 13.2031 13.3193 13.2422 12.9678 13.2422C12.6553 13.2422 12.3428 13.2031 12.0693 13.0859L5.81934 10.8203C6.1709 10.4688 6.60059 10.1953 7.06934 10L13.2021 7.57812C13.5537 7.46094 13.71 7.10938 13.5537 6.75781C13.4365 6.44531 13.085 6.28906 12.7725 6.40625L6.63965 8.82812C5.8584 9.14062 5.19434 9.60938 4.68652 10.2344C4.02246 11.1328 3.63184 12.2266 3.63184 13.3984V14.375C3.86621 14.8828 4.02246 15.4688 4.13965 16.0156C4.37402 17.0703 4.56934 18.5938 4.21777 20.2734C4.17871 20.4297 4.10059 20.5859 3.94434 20.6641C3.78809 20.7422 3.63184 20.7812 3.47559 20.7422L0.975586 20.1172C0.741211 20.0781 0.584961 19.9219 0.506836 19.7266C0.467773 19.5312 0.506836 19.2969 0.624023 19.1406C0.936523 18.6719 1.24902 18.1641 1.4834 17.6562C1.95215 16.7578 2.38184 15.625 2.38184 14.4922V13.3984C2.38184 12.1484 2.7334 10.9766 3.3584 9.96094L1.09277 9.14062C0.741211 9.02344 0.506836 8.67188 0.506836 8.24219C0.506836 7.85156 0.741211 7.5 1.09277 7.38281L12.0693 3.4375C12.3428 3.32031 12.6553 3.24219 13.0068 3.24219ZM5.50684 17.9297L6.09277 12.2656L11.6396 14.2578C12.0693 14.4141 12.5381 14.4922 13.0068 14.4922C13.4365 14.4922 13.9053 14.4141 14.335 14.2578L19.8818 12.2656L20.5068 17.9297C20.5068 19.3359 17.1475 20.7422 13.0068 20.7422C8.86621 20.7422 5.50684 19.3359 5.50684 17.9297Z"
    />
  </symbol>
  <symbol id="fontawesome-solid-heart" viewBox="0 0 24 24">
    <path
      d="M3.83594 13.5452C2.66406 12.4515 2 10.889 2 9.24833V9.05301C2 6.31864 3.95312 3.97489 6.64844 3.5452C8.44531 3.2327 10.2422 3.81864 11.5312 5.06864L12 5.53739L12.4688 5.06864C13.7188 3.81864 15.5547 3.2327 17.3125 3.5452C20.0078 3.97489 22 6.31864 22 9.05301V9.24833C22 10.889 21.2969 12.4515 20.125 13.5452L13.0547 20.1468C12.7812 20.4202 12.3906 20.5374 12 20.5374C11.5703 20.5374 11.1797 20.4202 10.9062 20.1468L3.83594 13.5452Z"
    />
  </symbol>
  <symbol id="fontawesome-solid-highlighter" viewBox="0 0 24 24">
    <path
      d="M13.6797 14.3047L19.8516 5.90625L18.7188 4.77344L10.3203 10.9453L13.6797 14.3047ZM6.375 14.5V11.7266C6.375 11.1016 6.64844 10.5547 7.11719 10.2031L17.7812 2.35156C18.0938 2.11719 18.4453 2 18.7969 2C19.2266 2 19.6562 2.19531 19.9688 2.50781L22.1172 4.65625C22.4297 4.96875 22.625 5.39844 22.625 5.82812C22.625 6.21875 22.5078 6.57031 22.2734 6.84375L14.4219 17.5078C14.0703 17.9766 13.5234 18.25 12.8984 18.25H10.125L9.10938 19.2656C8.64062 19.7344 7.82031 19.7344 7.35156 19.2656L5.35938 17.2734C4.89062 16.8047 4.89062 15.9844 5.35938 15.5156L6.375 14.5ZM1.64844 20.2422L4.10938 17.7812L6.84375 20.5156L5.63281 21.7266C5.47656 21.9219 5.24219 22 4.96875 22H2.3125C1.76562 22 1.375 21.6094 1.375 21.0625V20.9062C1.375 20.6328 1.45312 20.3984 1.64844 20.2422Z"
    />
  </symbol>
  <symbol id="fontawesome-solid-home" viewBox="0 0 24 24">
    <path
      d="M23.2275 11.9805C23.2275 12.6836 22.6416 13.2305 21.9775 13.2305H20.7275L20.7666 19.4805C20.7666 19.5977 20.7666 19.7148 20.7666 19.793V20.457C20.7666 21.3164 20.0635 22.0195 19.2041 22.0195H18.5791C18.501 22.0195 18.4619 22.0195 18.4229 21.9805C18.3838 22.0195 18.3057 22.0195 18.2666 22.0195L17.0166 21.9805H16.0791C15.1807 21.9805 14.5166 21.3164 14.5166 20.418V19.4805V16.9805C14.5166 16.3164 13.9307 15.7305 13.2666 15.7305H10.7666C10.0635 15.7305 9.5166 16.3164 9.5166 16.9805V19.4805V20.418C9.5166 21.3164 8.81348 21.9805 7.9541 21.9805H7.0166H5.7666C5.68848 21.9805 5.64941 21.9805 5.57129 21.9805C5.53223 21.9805 5.49316 21.9805 5.4541 21.9805H4.8291C3.93066 21.9805 3.2666 21.3164 3.2666 20.418V16.043C3.2666 16.043 3.2666 16.0039 3.2666 15.9648V13.2305H2.0166C1.31348 13.2305 0.766602 12.6836 0.766602 11.9805C0.766602 11.6289 0.883789 11.3164 1.15723 11.043L11.1572 2.29297C11.4307 2.01953 11.7432 1.98047 12.0166 1.98047C12.29 1.98047 12.6025 2.05859 12.8369 2.25391L22.7979 11.043C23.1104 11.3164 23.2666 11.6289 23.2275 11.9805Z"
    />
  </symbol>
  <symbol id="fontawesome-solid-key" viewBox="0 0 24 24">
    <path
      d="M15.125 15.75C14.3828 15.75 13.6797 15.6719 13.0156 15.4375L11.7266 16.7266C11.5312 16.9219 11.2969 17 11.0625 17H9.5V18.5625C9.5 19.1094 9.07031 19.5 8.5625 19.5H7V21.0625C7 21.6094 6.57031 22 6.0625 22H2.9375C2.39062 22 2 21.6094 2 21.0625V17.9375C2 17.7031 2.07812 17.4688 2.27344 17.2734L8.5625 10.9844C8.32812 10.3203 8.25 9.61719 8.25 8.875C8.25 5.08594 11.2969 2 15.125 2C18.9141 2 22 5.08594 22 8.875C22 12.7031 18.9141 15.75 15.125 15.75ZM16.6875 5.75C16.1016 5.75 15.5938 6.0625 15.3203 6.53125C15.0469 7.03906 15.0469 7.625 15.3203 8.09375C15.5938 8.60156 16.1016 8.875 16.6875 8.875C17.2344 8.875 17.7422 8.60156 18.0156 8.09375C18.2891 7.625 18.2891 7.03906 18.0156 6.53125C17.7422 6.0625 17.2344 5.75 16.6875 5.75Z"
    />
  </symbol>
  <symbol id="fontawesome-solid-keyboard" viewBox="0 0 24 24">
    <path
      d="M3.25 4.5H20.75C22.1172 4.5 23.25 5.63281 23.25 7V17C23.25 18.4062 22.1172 19.5 20.75 19.5H3.25C1.84375 19.5 0.75 18.4062 0.75 17V7C0.75 5.63281 1.84375 4.5 3.25 4.5ZM3.875 7C3.52344 7 3.25 7.3125 3.25 7.625V8.875C3.25 9.22656 3.52344 9.5 3.875 9.5H5.125C5.4375 9.5 5.75 9.22656 5.75 8.875V7.625C5.75 7.3125 5.4375 7 5.125 7H3.875ZM3.25 11.375V12.625C3.25 12.9766 3.52344 13.25 3.875 13.25H5.125C5.4375 13.25 5.75 12.9766 5.75 12.625V11.375C5.75 11.0625 5.4375 10.75 5.125 10.75H3.875C3.52344 10.75 3.25 11.0625 3.25 11.375ZM3.875 14.5C3.52344 14.5 3.25 14.8125 3.25 15.125V16.375C3.25 16.7266 3.52344 17 3.875 17H5.125C5.4375 17 5.75 16.7266 5.75 16.375V15.125C5.75 14.8125 5.4375 14.5 5.125 14.5H3.875ZM7 7.625V8.875C7 9.22656 7.27344 9.5 7.625 9.5H8.875C9.1875 9.5 9.5 9.22656 9.5 8.875V7.625C9.5 7.3125 9.1875 7 8.875 7H7.625C7.27344 7 7 7.3125 7 7.625ZM7.625 10.75C7.27344 10.75 7 11.0625 7 11.375V12.625C7 12.9766 7.27344 13.25 7.625 13.25H8.875C9.1875 13.25 9.5 12.9766 9.5 12.625V11.375C9.5 11.0625 9.1875 10.75 8.875 10.75H7.625ZM7 15.125V16.375C7 16.7266 7.27344 17 7.625 17H16.375C16.6875 17 17 16.7266 17 16.375V15.125C17 14.8125 16.6875 14.5 16.375 14.5H7.625C7.27344 14.5 7 14.8125 7 15.125ZM11.375 7C11.0234 7 10.75 7.3125 10.75 7.625V8.875C10.75 9.22656 11.0234 9.5 11.375 9.5H12.625C12.9375 9.5 13.25 9.22656 13.25 8.875V7.625C13.25 7.3125 12.9375 7 12.625 7H11.375ZM10.75 11.375V12.625C10.75 12.9766 11.0234 13.25 11.375 13.25H12.625C12.9375 13.25 13.25 12.9766 13.25 12.625V11.375C13.25 11.0625 12.9375 10.75 12.625 10.75H11.375C11.0234 10.75 10.75 11.0625 10.75 11.375ZM15.125 7C14.7734 7 14.5 7.3125 14.5 7.625V8.875C14.5 9.22656 14.7734 9.5 15.125 9.5H16.375C16.6875 9.5 17 9.22656 17 8.875V7.625C17 7.3125 16.6875 7 16.375 7H15.125ZM14.5 11.375V12.625C14.5 12.9766 14.7734 13.25 15.125 13.25H16.375C16.6875 13.25 17 12.9766 17 12.625V11.375C17 11.0625 16.6875 10.75 16.375 10.75H15.125C14.7734 10.75 14.5 11.0625 14.5 11.375ZM18.875 7C18.5234 7 18.25 7.3125 18.25 7.625V8.875C18.25 9.22656 18.5234 9.5 18.875 9.5H20.125C20.4375 9.5 20.75 9.22656 20.75 8.875V7.625C20.75 7.3125 20.4375 7 20.125 7H18.875ZM18.25 11.375V12.625C18.25 12.9766 18.5234 13.25 18.875 13.25H20.125C20.4375 13.25 20.75 12.9766 20.75 12.625V11.375C20.75 11.0625 20.4375 10.75 20.125 10.75H18.875C18.5234 10.75 18.25 11.0625 18.25 11.375ZM18.875 14.5C18.5234 14.5 18.25 14.8125 18.25 15.125V16.375C18.25 16.7266 18.5234 17 18.875 17H20.125C20.4375 17 20.75 16.7266 20.75 16.375V15.125C20.75 14.8125 20.4375 14.5 20.125 14.5H18.875Z"
    />
  </symbol>
  <symbol id="fontawesome-solid-left-circle" viewBox="0 0 24 24">
    <path
      d="M22 11.9805C22 15.5742 20.0859 18.8555 17 20.6523C13.875 22.4492 10.0859 22.4492 7 20.6523C3.875 18.8555 2 15.5742 2 11.9805C2 8.42578 3.875 5.14453 7 3.34766C10.0859 1.55078 13.875 1.55078 17 3.34766C20.0859 5.14453 22 8.42578 22 11.9805ZM6.53125 11.5508C6.29688 11.7852 6.29688 12.2148 6.53125 12.4492L10.9062 16.8242C11.1016 16.9805 11.375 17.0586 11.6094 16.9414C11.8438 16.8633 12 16.6289 12 16.3555V13.8555H15.75C16.4141 13.8555 17 13.3086 17 12.6055V11.3555C17 10.6914 16.4141 10.1055 15.75 10.1055H12V7.60547C12 7.37109 11.8438 7.13672 11.6094 7.05859C11.375 6.94141 11.1016 7.01953 10.9062 7.17578L6.53125 11.5508Z"
    />
  </symbol>
  <symbol id="fontawesome-solid-license" viewBox="0 0 24 24">
    <path
      d="M0.75 5.75C0.75 4.38281 1.84375 3.25 3.25 3.25H20.75C22.1172 3.25 23.25 4.38281 23.25 5.75H0.75ZM0.75 7H23.25V18.25C23.25 19.6562 22.1172 20.75 20.75 20.75H3.25C1.84375 20.75 0.75 19.6562 0.75 18.25V7ZM3.25 17.8594C3.25 18.0938 3.40625 18.25 3.64062 18.25H11.5703C11.8047 18.25 11.9609 18.0938 11.9609 17.8594C11.9609 16.6875 11.0625 15.75 9.89062 15.75H5.32031C4.14844 15.75 3.25 16.6875 3.25 17.8594ZM7.625 9.5C6.72656 9.5 5.90625 10.0078 5.4375 10.75C5.00781 11.5312 5.00781 12.5078 5.4375 13.25C5.90625 14.0312 6.72656 14.5 7.625 14.5C8.48438 14.5 9.30469 14.0312 9.77344 13.25C10.2031 12.5078 10.2031 11.5312 9.77344 10.75C9.30469 10.0078 8.48438 9.5 7.625 9.5ZM14.5 10.125C14.5 10.4766 14.7734 10.75 15.125 10.75H20.125C20.4375 10.75 20.75 10.4766 20.75 10.125C20.75 9.8125 20.4375 9.5 20.125 9.5H15.125C14.7734 9.5 14.5 9.8125 14.5 10.125ZM14.5 12.625C14.5 12.9766 14.7734 13.25 15.125 13.25H20.125C20.4375 13.25 20.75 12.9766 20.75 12.625C20.75 12.3125 20.4375 12 20.125 12H15.125C14.7734 12 14.5 12.3125 14.5 12.625ZM14.5 15.125C14.5 15.4766 14.7734 15.75 15.125 15.75H20.125C20.4375 15.75 20.75 15.4766 20.75 15.125C20.75 14.8125 20.4375 14.5 20.125 14.5H15.125C14.7734 14.5 14.5 14.8125 14.5 15.125Z"
    />
  </symbol>
  <symbol id="fontawesome-solid-lightbulb" viewBox="0 0 24 24">
    <path
      d="M15.125 17H8.875C8.48438 15.7891 7.70312 14.6953 6.92188 13.6406C6.72656 13.3672 6.53125 13.0938 6.33594 12.8203C5.55469 11.6875 5.125 10.3594 5.125 8.875C5.125 5.08594 8.17188 2 12 2C15.7891 2 18.875 5.08594 18.875 8.91406C18.875 10.3594 18.4062 11.6875 17.625 12.8203C17.4297 13.0938 17.2344 13.3672 17.0391 13.6406C16.2578 14.6953 15.4766 15.7891 15.125 17ZM12 22C10.2422 22 8.875 20.6328 8.875 18.875V18.25H15.125V18.875C15.125 20.6328 13.7188 22 12 22ZM8.875 8.875C8.875 7.15625 10.2422 5.75 12 5.75C12.3125 5.75 12.625 5.47656 12.625 5.125C12.625 4.8125 12.3125 4.5 12 4.5C9.57812 4.5 7.625 6.49219 7.625 8.875C7.625 9.22656 7.89844 9.5 8.25 9.5C8.5625 9.5 8.875 9.22656 8.875 8.875Z"
    />
  </symbol>
  <symbol id="fontawesome-solid-line-graph" viewBox="0 0 24 24">
    <path
      d="M4.5 4.5V17.625C4.5 17.9766 4.77344 18.25 5.125 18.25H20.75C21.4141 18.25 22 18.8359 22 19.5C22 20.2031 21.4141 20.75 20.75 20.75H5.125C3.36719 20.75 2 19.3828 2 17.625V4.5C2 3.83594 2.54688 3.25 3.25 3.25C3.91406 3.25 4.5 3.83594 4.5 4.5ZM20.3594 7.89844L15.3594 12.8984C14.8906 13.4062 14.0703 13.4062 13.6016 12.8984L11.375 10.6719L7.85938 14.1484C7.39062 14.6562 6.57031 14.6562 6.10156 14.1484C5.59375 13.6797 5.59375 12.8594 6.10156 12.3906L10.4766 8.01562C10.9453 7.50781 11.7656 7.50781 12.2344 8.01562L14.5 10.2422L18.6016 6.14062C19.0703 5.63281 19.8906 5.63281 20.3594 6.14062C20.8672 6.60938 20.8672 7.42969 20.3594 7.89844Z"
    />
  </symbol>
  <symbol id="fontawesome-solid-lock" viewBox="0 0 24 24">
    <path
      d="M8.875 7.625V9.5H15.125V7.625C15.125 5.90625 13.7188 4.5 12 4.5C10.2422 4.5 8.875 5.90625 8.875 7.625ZM6.375 9.5V7.625C6.375 4.53906 8.875 2 12 2C15.0859 2 17.625 4.53906 17.625 7.625V9.5H18.25C19.6172 9.5 20.75 10.6328 20.75 12V19.5C20.75 20.9062 19.6172 22 18.25 22H5.75C4.34375 22 3.25 20.9062 3.25 19.5V12C3.25 10.6328 4.34375 9.5 5.75 9.5H6.375Z"
    />
  </symbol>
  <symbol id="fontawesome-solid-medal" viewBox="0 0 24 24">
    <path
      d="M2.15625 3.51855C2.03906 3.3623 2 3.16699 2 2.97168C2 2.4248 2.42969 1.99512 2.9375 1.99512H7.19531C7.66406 1.99512 8.05469 2.22949 8.28906 2.62012L10.9453 7.07324C9.07031 7.30762 7.39062 8.20605 6.14062 9.49512L2.15625 3.51855ZM21.8047 3.51855L17.8203 9.49512C16.5703 8.20605 14.8906 7.30762 13.0156 7.07324L15.6719 2.62012C15.9062 2.22949 16.2969 1.99512 16.7656 1.99512H21.0234C21.5703 1.99512 22 2.4248 22 2.97168C22 3.16699 21.9219 3.3623 21.8047 3.51855ZM5.125 15.1201C5.125 12.6982 6.41406 10.4326 8.5625 9.18262C10.6719 7.97168 13.2891 7.97168 15.4375 9.18262C17.5469 10.4326 18.875 12.6982 18.875 15.1201C18.875 17.5811 17.5469 19.8467 15.4375 21.0967C13.2891 22.3076 10.6719 22.3076 8.5625 21.0967C6.41406 19.8467 5.125 17.5811 5.125 15.1201ZM12.3125 11.4482C12.1953 11.1748 11.8047 11.1748 11.6484 11.4482L10.7891 13.2061C10.7109 13.3232 10.6328 13.4014 10.5156 13.4014L8.5625 13.6748C8.25 13.7139 8.13281 14.1045 8.32812 14.2998L9.77344 15.7061C9.85156 15.7842 9.89062 15.9014 9.85156 16.0186L9.53906 17.9717C9.46094 18.2842 9.77344 18.4795 10.0469 18.3623L11.8047 17.4248C11.9219 17.3857 12.0391 17.3857 12.1562 17.4248L13.9141 18.3623C14.1875 18.4795 14.5 18.2842 14.4219 17.9717L14.1094 16.0186C14.0703 15.9014 14.1094 15.7842 14.1875 15.7061L15.6328 14.2998C15.8281 14.1045 15.7109 13.7529 15.3984 13.6748L13.4453 13.4014C13.3281 13.4014 13.25 13.3232 13.1719 13.2061L12.3125 11.4482Z"
    />
  </symbol>
  <symbol id="fontawesome-solid-megaphone" viewBox="0 0 24 24">
    <path
      d="M20.75 3.23862V9.01987C21.4531 9.37143 22 10.2699 22 11.3636C22 12.4574 21.4531 13.3949 20.75 13.7464V19.4886C20.75 19.9964 20.4375 20.4652 19.9688 20.6605C19.5 20.8558 18.9531 20.7386 18.6016 20.3871L16.8828 18.6683C15.0078 16.7933 12.4688 15.7386 9.8125 15.7386H9.5V20.7386C9.5 21.4417 8.91406 21.9886 8.25 21.9886H5.75C5.04688 21.9886 4.5 21.4417 4.5 20.7386V15.7386C3.09375 15.7386 2 14.6449 2 13.2386V9.48862C2 8.12143 3.09375 6.98862 4.5 6.98862H8.25H9.5H9.8125C12.4688 6.98862 15.0078 5.93393 16.8828 4.05893L18.6016 2.37924C18.9531 2.02768 19.5 1.91049 19.9688 2.10581C20.4375 2.30112 20.75 2.76987 20.75 3.23862ZM18.25 6.24643C15.9453 8.35581 12.9375 9.48862 9.8125 9.48862H9.5V13.2386H9.8125C12.9375 13.2386 15.9453 14.4105 18.25 16.5199V11.3636V6.24643Z"
    />
  </symbol>
  <symbol id="fontawesome-solid-menu" viewBox="0 0 24 24">
    <path
      d="M3.25 5.75C3.25 5.08594 3.79688 4.5 4.5 4.5H19.5C20.1641 4.5 20.75 5.08594 20.75 5.75C20.75 6.45312 20.1641 7 19.5 7H4.5C3.79688 7 3.25 6.45312 3.25 5.75ZM3.25 12C3.25 11.3359 3.79688 10.75 4.5 10.75H19.5C20.1641 10.75 20.75 11.3359 20.75 12C20.75 12.7031 20.1641 13.25 19.5 13.25H4.5C3.79688 13.25 3.25 12.7031 3.25 12ZM20.75 18.25C20.75 18.9531 20.1641 19.5 19.5 19.5H4.5C3.79688 19.5 3.25 18.9531 3.25 18.25C3.25 17.5859 3.79688 17 4.5 17H19.5C20.1641 17 20.75 17.5859 20.75 18.25Z"
    />
  </symbol>
  <symbol id="fontawesome-solid-minus" viewBox="0 0 24 24">
    <path
      d="M20.125 12C20.125 12.7031 19.5391 13.25 18.875 13.25H5.125C4.42188 13.25 3.875 12.7031 3.875 12C3.875 11.3359 4.42188 10.75 5.125 10.75H18.875C19.5391 10.75 20.125 11.3359 20.125 12Z"
    />
  </symbol>
  <symbol id="fontawesome-solid-mouse" viewBox="0 0 24 24">
    <path
      d="M4.5 15.75V10.75H19.5V15.75C19.5 19.2266 16.6875 22 13.25 22H10.75C7.27344 22 4.5 19.2266 4.5 15.75ZM11.375 2V9.5H4.5V8.25C4.5 4.8125 7.27344 2 10.75 2H11.375ZM13.25 2C16.6875 2 19.5 4.8125 19.5 8.25V9.5H12.625V2H13.25Z"
    />
  </symbol>
  <symbol id="fontawesome-solid-mute" viewBox="0 0 24 24">
    <path
      d="M12.5176 3.3478C12.9473 3.54311 13.2598 4.01186 13.2598 4.48061V19.4806C13.2598 19.9884 12.9473 20.4181 12.5176 20.6525C12.0488 20.8478 11.541 20.7697 11.1504 20.4181L5.87695 15.7306H3.25977C1.85352 15.7306 0.759766 14.6369 0.759766 13.2306V10.7306C0.759766 9.36342 1.85352 8.23061 3.25977 8.23061H5.87695L11.1504 3.58217C11.541 3.23061 12.0488 3.15248 12.5176 3.3478ZM17.3613 8.50405L19.5098 10.6525L21.6582 8.50405C22.0098 8.15248 22.5957 8.15248 22.9473 8.50405C23.3379 8.89467 23.3379 9.48061 22.9473 9.83217L20.7988 11.9806L22.9473 14.129C23.3379 14.5197 23.3379 15.1056 22.9473 15.4572C22.5957 15.8478 22.0098 15.8478 21.6582 15.4572L19.5098 13.3087L17.3613 15.4572C16.9707 15.8478 16.3848 15.8478 16.0332 15.4572C15.6426 15.1056 15.6426 14.5197 16.0332 14.129L18.1816 11.9806L16.0332 9.83217C15.6426 9.48061 15.6426 8.89467 16.0332 8.50405C16.3848 8.15248 16.9707 8.15248 17.3613 8.50405Z"
    />
  </symbol>
  <symbol id="fontawesome-solid-notification" viewBox="0 0 24 24">
    <path
      d="M12.0197 2C12.6837 2 13.2697 2.58594 13.2697 3.25V4.03125C16.1212 4.57812 18.2697 7.11719 18.2697 10.125V10.8672C18.2697 12.7031 18.9337 14.5 20.1447 15.8672L20.4181 16.1797C20.7697 16.5703 20.8478 17.0781 20.6525 17.5469C20.4572 17.9766 19.9884 18.25 19.5197 18.25H4.51967C4.01186 18.25 3.54311 17.9766 3.3478 17.5469C3.15248 17.0781 3.23061 16.5703 3.58217 16.1797L3.85561 15.8672C5.06655 14.5 5.76967 12.7031 5.76967 10.8672V10.125C5.76967 7.11719 7.91811 4.57812 10.7697 4.03125V3.25C10.7697 2.58594 11.3165 2 12.0197 2ZM13.7775 21.2969C13.3087 21.7656 12.6837 22 12.0197 22C11.3556 22 10.6915 21.7656 10.2228 21.2969C9.75405 20.8281 9.51967 20.1641 9.51967 19.5H12.0197H14.5197C14.5197 20.1641 14.2462 20.8281 13.7775 21.2969Z"
    />
  </symbol>
  <symbol id="fontawesome-solid-open-book" viewBox="0 0 24 24">
    <path
      d="M10.4766 20.5732C9.46094 20.1826 7.66406 19.6357 6.375 19.6357C4.85156 19.6357 2.89844 20.1436 1.6875 20.5342C1.21875 20.6904 0.75 20.3389 0.75 19.9092V5.41699C0.75 4.94824 0.984375 4.51855 1.45312 4.3623C2.54688 3.93262 4.38281 3.38574 6.375 3.38574C8.64062 3.38574 10.3984 4.16699 11.1797 4.79199C11.2969 4.90918 11.375 5.06543 11.375 5.22168V19.9482C11.375 20.417 10.9062 20.7295 10.4766 20.5732ZM13.4844 20.5732C13.0547 20.7295 12.625 20.417 12.625 19.9482V5.22168C12.625 5.06543 12.6641 4.90918 12.8203 4.79199C13.5625 4.16699 15.3203 3.38574 17.625 3.38574C19.5781 3.38574 21.4141 3.93262 22.5078 4.3623C22.9766 4.51855 23.25 4.94824 23.25 5.41699V19.9092C23.25 20.3389 22.7422 20.6904 22.2734 20.5342C21.0625 20.1436 19.1094 19.6357 17.625 19.6357C16.2969 19.6357 14.5391 20.1826 13.4844 20.5732Z"
    />
  </symbol>
  <symbol id="fontawesome-solid-page" viewBox="0 0 24 24">
    <path
      d="M7 2H13.25V7C13.25 7.70312 13.7969 8.25 14.5 8.25H19.5V19.5C19.5 20.9062 18.3672 22 17 22H7C5.59375 22 4.5 20.9062 4.5 19.5V4.5C4.5 3.13281 5.59375 2 7 2ZM14.5 2L19.5 7H14.5V2ZM7.625 4.5C7.27344 4.5 7 4.8125 7 5.125C7 5.47656 7.27344 5.75 7.625 5.75H10.125C10.4375 5.75 10.75 5.47656 10.75 5.125C10.75 4.8125 10.4375 4.5 10.125 4.5H7.625ZM7.625 7C7.27344 7 7 7.3125 7 7.625C7 7.97656 7.27344 8.25 7.625 8.25H10.125C10.4375 8.25 10.75 7.97656 10.75 7.625C10.75 7.3125 10.4375 7 10.125 7H7.625ZM8.25 10.75C7.54688 10.75 7 11.3359 7 12V14.5C7 15.2031 7.54688 15.75 8.25 15.75H15.75C16.4141 15.75 17 15.2031 17 14.5V12C17 11.3359 16.4141 10.75 15.75 10.75H8.25ZM8.25 12H15.75V14.5H8.25V12ZM13.875 18.25C13.5234 18.25 13.25 18.5625 13.25 18.875C13.25 19.2266 13.5234 19.5 13.875 19.5H16.375C16.6875 19.5 17 19.2266 17 18.875C17 18.5625 16.6875 18.25 16.375 18.25H13.875Z"
    />
  </symbol>
  <symbol id="fontawesome-solid-paper-plane" viewBox="0 0 24 24">
    <path
      d="M21.4661 2.21488C21.8568 2.48832 22.0521 2.95707 21.9739 3.42582L19.4739 19.6758C19.4349 20.0664 19.2005 20.3789 18.8489 20.5743C18.5364 20.7696 18.1068 20.8086 17.7552 20.6524L13.1068 18.6993L10.4114 21.5899C10.0599 21.9805 9.513 22.0977 9.04425 21.9024C8.5755 21.7461 8.263 21.2774 8.263 20.7305V17.4883C8.263 17.3321 8.30207 17.1758 8.41925 17.0586L14.9427 9.91019C15.1771 9.67582 15.1771 9.28519 14.9427 9.05082C14.7083 8.81644 14.3177 8.81644 14.0833 9.05082L6.15363 16.0821L2.67707 14.3633C2.28644 14.168 2.013 13.7383 2.013 13.2696C1.97394 12.8399 2.20832 12.4102 2.638 12.1758L20.138 2.17582C20.5286 1.94144 21.0755 1.94144 21.4661 2.21488Z"
    />
  </symbol>
  <symbol id="fontawesome-solid-pause" viewBox="0 0 24 24">
    <path
      d="M12.0195 22C8.42578 22 5.14453 20.125 3.34766 17C1.55078 13.9141 1.55078 10.125 3.34766 7C5.14453 3.91406 8.42578 2 12.0195 2C15.5742 2 18.8555 3.91406 20.6523 7C22.4492 10.125 22.4492 13.9141 20.6523 17C18.8555 20.125 15.5742 22 12.0195 22ZM10.7695 9.5C10.7695 8.83594 10.1836 8.25 9.51953 8.25C8.81641 8.25 8.26953 8.83594 8.26953 9.5V14.5C8.26953 15.2031 8.81641 15.75 9.51953 15.75C10.1836 15.75 10.7695 15.2031 10.7695 14.5V9.5ZM15.7695 9.5C15.7695 8.83594 15.1836 8.25 14.5195 8.25C13.8164 8.25 13.2695 8.83594 13.2695 9.5V14.5C13.2695 15.2031 13.8164 15.75 14.5195 15.75C15.1836 15.75 15.7695 15.2031 15.7695 14.5V9.5Z"
    />
  </symbol>
  <symbol id="fontawesome-solid-pen" viewBox="0 0 24 24">
    <path
      d="M16.1719 2.74243C17.1484 1.76587 18.75 1.76587 19.7266 2.74243L21.25 4.26587C22.2266 5.24243 22.2266 6.84399 21.25 7.82056L19.375 9.69556L14.2969 4.61743L16.1719 2.74243ZM13.3984 5.51587L18.4766 10.594L9.375 19.6956C8.98438 20.0862 8.47656 20.3987 7.92969 20.5549L3.20312 21.9612C2.89062 22.0393 2.53906 21.9612 2.30469 21.6877C2.03125 21.4534 1.95312 21.1018 2.07031 20.7893L3.4375 16.0627C3.59375 15.5159 3.90625 15.0081 4.29688 14.6174L13.3984 5.51587Z"
    />
  </symbol>
  <symbol id="fontawesome-solid-person" viewBox="0 0 24 24">
    <path
      d="M17.5859 17.0195C16.6875 15.4961 15.0859 14.4805 13.25 14.4805H10.75C8.875 14.4805 7.27344 15.4961 6.41406 17.0195C7.78125 18.543 9.77344 19.4805 12 19.4805C14.1875 19.4805 16.1797 18.543 17.5859 17.0195ZM2 11.9805C2 8.42578 3.875 5.14453 7 3.34766C10.0859 1.55078 13.875 1.55078 17 3.34766C20.0859 5.14453 22 8.42578 22 11.9805C22 15.5742 20.0859 18.8555 17 20.6523C13.875 22.4492 10.0859 22.4492 7 20.6523C3.875 18.8555 2 15.5742 2 11.9805ZM12 12.6055C12.9766 12.6055 13.9141 12.0977 14.4219 11.1992C14.9297 10.3398 14.9297 9.28516 14.4219 8.38672C13.9141 7.52734 12.9766 6.98047 12 6.98047C10.9844 6.98047 10.0469 7.52734 9.53906 8.38672C9.03125 9.28516 9.03125 10.3398 9.53906 11.1992C10.0469 12.0977 10.9844 12.6055 12 12.6055Z"
    />
  </symbol>
  <symbol id="fontawesome-solid-pie-chart" viewBox="0 0 24 24">
    <path
      d="M12.0527 11.375V2.66406C12.0527 2.3125 12.3262 2 12.6777 2C17.4824 2 21.4277 5.94531 21.4277 10.75C21.4277 11.1016 21.1152 11.375 20.7637 11.375H12.0527ZM1.42773 12.625C1.42773 7.89844 4.94336 3.99219 9.51367 3.36719C9.86523 3.28906 10.1777 3.60156 10.1777 3.95312V13.25L16.2715 19.3828C16.5449 19.6562 16.5059 20.0859 16.2324 20.2812C14.6699 21.375 12.7949 22 10.8027 22C5.60742 22 1.42773 17.8203 1.42773 12.625ZM21.9746 13.25C22.3262 13.25 22.6387 13.5625 22.5605 13.9141C22.2871 16.1016 21.2324 18.0547 19.6699 19.5C19.4355 19.6953 19.084 19.6953 18.8496 19.4609L12.6777 13.25H21.9746Z"
    />
  </symbol>
  <symbol id="fontawesome-solid-play-circle" viewBox="0 0 24 24">
    <path
      d="M2 11.9805C2 8.42578 3.875 5.14453 7 3.34766C10.0859 1.55078 13.875 1.55078 17 3.34766C20.0859 5.14453 22 8.42578 22 11.9805C22 15.5742 20.0859 18.8555 17 20.6523C13.875 22.4492 10.0859 22.4492 7 20.6523C3.875 18.8555 2 15.5742 2 11.9805ZM9.34375 7.76172C9.03125 7.91797 8.875 8.23047 8.875 8.54297V15.418C8.875 15.7695 9.03125 16.082 9.34375 16.2383C9.61719 16.4336 10.0078 16.3945 10.2812 16.2383L15.9062 12.8008C16.1797 12.6055 16.375 12.332 16.375 11.9805C16.375 11.668 16.1797 11.3555 15.9062 11.1992L10.2812 7.76172C10.0078 7.56641 9.61719 7.56641 9.34375 7.72266V7.76172Z"
    />
  </symbol>
  <symbol id="fontawesome-solid-question-circle" viewBox="0 0 24 24">
    <path
      d="M12.0195 22C8.42578 22 5.14453 20.125 3.34766 17C1.55078 13.9141 1.55078 10.125 3.34766 7C5.14453 3.91406 8.42578 2 12.0195 2C15.5742 2 18.8555 3.91406 20.6523 7C22.4492 10.125 22.4492 13.9141 20.6523 17C18.8555 20.125 15.5742 22 12.0195 22ZM8.62109 8.48438V8.52344C8.46484 8.99219 8.69922 9.53906 9.20703 9.73438C9.67578 9.89062 10.2227 9.65625 10.3789 9.14844L10.418 9.10938C10.457 8.99219 10.5742 8.91406 10.6914 8.91406H12.957C13.3086 8.91406 13.582 9.14844 13.582 9.5C13.582 9.69531 13.4648 9.89062 13.2695 10.0078L11.5508 10.9844C11.2383 11.1406 11.082 11.4531 11.082 11.8047V12.3125C11.082 12.8594 11.4727 13.25 12.0195 13.25C12.5273 13.25 12.918 12.8594 12.957 12.3516L14.207 11.6094C14.9492 11.1797 15.457 10.3594 15.457 9.5C15.457 8.13281 14.3242 7 12.957 7H10.6914C9.75391 7 8.93359 7.58594 8.62109 8.48438ZM10.7695 15.75C10.7695 16.4531 11.3164 17 12.0195 17C12.6836 17 13.2695 16.4531 13.2695 15.75C13.2695 15.0859 12.6836 14.5 12.0195 14.5C11.3164 14.5 10.7695 15.0859 10.7695 15.75Z"
    />
  </symbol>
  <symbol id="fontawesome-solid-question" viewBox="0 0 24 24">
    <path
      d="M8.875 8.25C8.875 8.95312 8.28906 9.5 7.625 9.5C6.92188 9.5 6.375 8.95312 6.375 8.25C6.375 5.51562 8.60156 3.25 11.375 3.25H12.625C15.3594 3.25 17.625 5.51562 17.625 8.25V8.40625C17.625 10.125 16.7266 11.6875 15.3203 12.625L13.6797 13.6797C13.4062 13.8359 13.25 14.1484 13.25 14.4609V14.5C13.25 15.2031 12.6641 15.75 12 15.75C11.2969 15.75 10.75 15.2031 10.75 14.5V14.4609C10.75 13.2891 11.3359 12.1953 12.3125 11.5703L13.9531 10.5156C14.6562 10.0469 15.125 9.26562 15.125 8.40625V8.25C15.125 6.88281 13.9922 5.75 12.625 5.75H11.375C9.96875 5.75 8.875 6.88281 8.875 8.25ZM12 20.75C11.4141 20.75 10.9062 20.4766 10.6328 19.9688C10.3594 19.5 10.3594 18.9141 10.6328 18.4062C10.9062 17.9375 11.4141 17.625 12 17.625C12.5469 17.625 13.0547 17.9375 13.3281 18.4062C13.6016 18.9141 13.6016 19.5 13.3281 19.9688C13.0547 20.4766 12.5469 20.75 12 20.75Z"
    />
  </symbol>
  <symbol id="fontawesome-solid-radio-checked" viewBox="0 0 24 24">
    <path
      d="M12.0195 22C8.42578 22 5.14453 20.125 3.34766 17C1.55078 13.9141 1.55078 10.125 3.34766 7C5.14453 3.91406 8.42578 2 12.0195 2C15.5742 2 18.8555 3.91406 20.6523 7C22.4492 10.125 22.4492 13.9141 20.6523 17C18.8555 20.125 15.5742 22 12.0195 22ZM12.0195 8.25C10.6523 8.25 9.44141 8.99219 8.73828 10.125C8.07422 11.2969 8.07422 12.7422 8.73828 13.875C9.44141 15.0469 10.6523 15.75 12.0195 15.75C13.3477 15.75 14.5586 15.0469 15.2617 13.875C15.9258 12.7422 15.9258 11.2969 15.2617 10.125C14.5586 8.99219 13.3477 8.25 12.0195 8.25Z"
    />
  </symbol>
  <symbol id="fontawesome-solid-radio-unchecked" viewBox="0 0 24 24">
    <path
      d="M20.125 11.9805C20.125 9.08984 18.5625 6.43359 16.0625 4.94922C13.5234 3.50391 10.4375 3.50391 7.9375 4.94922C5.39844 6.43359 3.875 9.08984 3.875 11.9805C3.875 14.9102 5.39844 17.5664 7.9375 19.0508C10.4375 20.4961 13.5234 20.4961 16.0625 19.0508C18.5625 17.5664 20.125 14.9102 20.125 11.9805ZM2 11.9805C2 8.42578 3.875 5.14453 7 3.34766C10.0859 1.55078 13.875 1.55078 17 3.34766C20.0859 5.14453 22 8.42578 22 11.9805C22 15.5742 20.0859 18.8555 17 20.6523C13.875 22.4492 10.0859 22.4492 7 20.6523C3.875 18.8555 2 15.5742 2 11.9805Z"
    />
  </symbol>
  <symbol id="fontawesome-solid-right-circle" viewBox="0 0 24 24">
    <path
      d="M2 11.9805C2 8.42578 3.875 5.14453 7 3.34766C10.0859 1.55078 13.875 1.55078 17 3.34766C20.0859 5.14453 22 8.42578 22 11.9805C22 15.5742 20.0859 18.8555 17 20.6523C13.875 22.4492 10.0859 22.4492 7 20.6523C3.875 18.8555 2 15.5742 2 11.9805ZM17.4297 12.4492C17.6641 12.2148 17.6641 11.7852 17.4297 11.5508L13.0547 7.17578C12.8594 7.01953 12.5859 6.94141 12.3516 7.05859C12.1172 7.13672 12 7.37109 12 7.60547V10.1055H8.25C7.54688 10.1055 7 10.6914 7 11.3555V12.6055C7 13.3086 7.54688 13.8555 8.25 13.8555H12V16.3555C12 16.6289 12.1562 16.8633 12.3516 16.9414C12.5859 17.0586 12.8594 16.9805 13.0547 16.8242L17.4297 12.4492Z"
    />
  </symbol>
  <symbol id="fontawesome-solid-search" viewBox="0 0 24 24">
    <path
      d="M18.2549 10.1104C18.2549 11.9072 17.6689 13.5869 16.6924 14.915L21.6143 19.876C22.1221 20.3447 22.1221 21.165 21.6143 21.6338C21.1455 22.1416 20.3252 22.1416 19.8564 21.6338L14.8955 16.6729C13.5674 17.6885 11.8877 18.2354 10.1299 18.2354C5.6377 18.2354 2.00488 14.6025 2.00488 10.1104C2.00488 5.65723 5.6377 1.98535 10.1299 1.98535C14.583 1.98535 18.2549 5.65723 18.2549 10.1104ZM10.1299 15.7354C12.1221 15.7354 13.958 14.6807 14.9736 12.9229C15.9893 11.2041 15.9893 9.05566 14.9736 7.29785C13.958 5.5791 12.1221 4.48535 10.1299 4.48535C8.09863 4.48535 6.2627 5.5791 5.24707 7.29785C4.23145 9.05566 4.23145 11.2041 5.24707 12.9229C6.2627 14.6807 8.09863 15.7354 10.1299 15.7354Z"
    />
  </symbol>
  <symbol id="fontawesome-solid-speech" viewBox="0 0 24 24">
    <path
      d="M8.64166 15.75C7.11822 15.75 5.75103 15.4375 4.5401 14.8516C4.2276 15.0078 3.9151 15.125 3.56353 15.2812C2.82135 15.5547 1.96197 15.75 1.14166 15.75C0.868221 15.75 0.633846 15.5938 0.516659 15.3203C0.438534 15.0859 0.555721 14.8125 0.751034 14.6562V14.6172H0.790096C0.829159 14.5781 0.907284 14.5 0.985409 14.4609C1.1026 14.3438 1.29791 14.1484 1.49322 13.9141C1.68853 13.6406 1.92291 13.2891 2.0401 12.9375C1.06353 11.8047 0.516659 10.3984 0.516659 8.875C0.516659 5.08594 4.14947 2 8.64166 2C13.0948 2 16.7667 5.08594 16.7667 8.875C16.7667 12.7031 13.0948 15.75 8.64166 15.75ZM18.0167 8.875H17.9776C17.9776 8.67969 17.9776 8.48438 17.9776 8.28906C22.1963 8.52344 25.4776 11.5312 25.4776 15.125C25.4776 16.6484 24.9307 18.0547 23.9542 19.1875C24.0713 19.5391 24.3057 19.8516 24.501 20.125C24.6963 20.3984 24.8917 20.5547 25.0088 20.7109C25.087 20.75 25.1651 20.8281 25.2042 20.8281C25.2042 20.8672 25.2432 20.8672 25.2432 20.8672C25.4776 21.0625 25.5557 21.3359 25.4776 21.5703C25.3995 21.8438 25.126 22 24.8917 22C24.0323 22 23.1729 21.8047 22.4307 21.5312C22.0792 21.375 21.7667 21.2578 21.4542 21.1016C20.2432 21.6875 18.876 22 17.3917 22C13.6417 22 10.4776 19.8906 9.5401 16.9609C14.1104 16.5703 18.0167 13.2891 18.0167 8.875Z"
    />
  </symbol>
  <symbol id="fontawesome-solid-speed" viewBox="0 0 24 24">
    <path
      d="M2 11.9805C2 8.42578 3.875 5.14453 7 3.34766C10.0859 1.55078 13.875 1.55078 17 3.34766C20.0859 5.14453 22 8.42578 22 11.9805C22 15.5742 20.0859 18.8555 17 20.6523C13.875 22.4492 10.0859 22.4492 7 20.6523C3.875 18.8555 2 15.5742 2 11.9805ZM13.25 5.73047C13.25 5.06641 12.6641 4.48047 12 4.48047C11.2969 4.48047 10.75 5.06641 10.75 5.73047C10.75 6.43359 11.2969 6.98047 12 6.98047C12.6641 6.98047 13.25 6.43359 13.25 5.73047ZM12 18.2305C13.3672 18.2305 14.5 17.1367 14.5 15.7305C14.5 15.0664 14.2266 14.4414 13.7578 14.0117L16.2969 8.30859C16.4922 7.83984 16.2578 7.29297 15.7891 7.09766C15.3203 6.86328 14.7734 7.09766 14.5781 7.56641L12.0391 13.2305H12C10.5938 13.2305 9.5 14.3633 9.5 15.7305C9.5 17.1367 10.5938 18.2305 12 18.2305ZM8.875 7.60547C8.875 6.94141 8.28906 6.35547 7.625 6.35547C6.92188 6.35547 6.375 6.94141 6.375 7.60547C6.375 8.30859 6.92188 8.85547 7.625 8.85547C8.28906 8.85547 8.875 8.30859 8.875 7.60547ZM5.75 13.2305C6.41406 13.2305 7 12.6836 7 11.9805C7 11.3164 6.41406 10.7305 5.75 10.7305C5.04688 10.7305 4.5 11.3164 4.5 11.9805C4.5 12.6836 5.04688 13.2305 5.75 13.2305ZM19.5 11.9805C19.5 11.3164 18.9141 10.7305 18.25 10.7305C17.5469 10.7305 17 11.3164 17 11.9805C17 12.6836 17.5469 13.2305 18.25 13.2305C18.9141 13.2305 19.5 12.6836 19.5 11.9805Z"
    />
  </symbol>
  <symbol id="fontawesome-solid-star-empty" viewBox="0 0 24 24">
    <path
      fill-rule="evenodd"
      clip-rule="evenodd"
      d="M6.99271 22.3743L11.989 19.681L16.9852 22.3743C17.4149 22.5696 17.9227 22.5696 18.3133 22.2571C18.704 21.9836 18.8993 21.5149 18.8212 21.0461L17.8446 15.343L21.9071 11.3196C22.2587 11.0071 22.3758 10.4993 22.2196 10.0696C22.0633 9.60082 21.6727 9.28832 21.204 9.2102L15.618 8.38989L13.118 3.19457C12.8843 2.76603 12.4563 2.49291 11.989 2.49146C11.5217 2.49291 11.0936 2.76603 10.8599 3.19457L8.3599 8.38989L2.77396 9.2102C2.30521 9.28832 1.91458 9.60082 1.75833 10.0696C1.60208 10.4993 1.71927 11.0071 2.07083 11.3196L6.13333 15.343L5.15677 21.0461C5.07865 21.5149 5.27396 21.9836 5.66458 22.2571C6.05521 22.5696 6.56302 22.5696 6.99271 22.3743ZM11.989 5.89774L10.3521 9.32739L9.84427 10.3821L8.6724 10.5383L4.9224 11.0852L7.65677 13.8196L8.47709 14.6008L8.28177 15.7336L7.65677 19.5227L10.9771 17.7649L11.989 17.22L13.0008 17.7649L16.3212 19.5227L15.6962 15.7336L15.5008 14.6008L16.3212 13.8196L19.0555 11.0852L15.3055 10.5383L14.1337 10.3821L13.6258 9.32739L11.989 5.89774Z"
    />
  </symbol>
  <symbol id="fontawesome-solid-star-half" viewBox="0 0 24 24">
    <path
      d="M12.0164 16.718L13.032 17.2649L16.3523 19.0227L15.7273 15.2336L15.532 14.1008L16.3523 13.3196L19.0867 10.5852L15.3367 10.0383L14.1648 9.88208L13.657 8.82739L12.0164 5.38989V5.42896V16.718ZM18.8523 20.5461C18.9304 21.0149 18.7351 21.4836 18.3445 21.7571C17.9539 22.0696 17.4461 22.0696 17.0164 21.8743L12.0164 19.179L6.97731 21.8743C6.58669 22.0696 6.03981 22.0696 5.68825 21.7571C5.29763 21.4836 5.10231 21.0149 5.18044 20.5461L6.11794 14.843L2.05544 10.8196C1.74294 10.5071 1.58669 9.99927 1.74294 9.56958C1.89919 9.10083 2.28981 8.78833 2.75856 8.71021L8.38356 7.88989L10.8836 2.69458C11.0789 2.26489 11.5086 1.99146 12.0164 1.99146C12.4851 1.99146 12.9148 2.26489 13.1492 2.69458L15.6492 7.88989L21.2351 8.71021C21.7039 8.78833 22.0945 9.10083 22.2508 9.56958C22.407 9.99927 22.2898 10.5071 21.9383 10.8196L17.8758 14.843L18.8523 20.5461Z"
    />
  </symbol>
  <symbol id="fontawesome-solid-star" viewBox="0 0 24 24">
    <path
      d="M13.1012 2.69458L15.6403 7.88989L21.2262 8.71021C21.695 8.78833 22.0856 9.10083 22.2418 9.56958C22.3981 9.99927 22.2809 10.5071 21.9293 10.8196L17.8668 14.843L18.8434 20.5461C18.9215 21.0149 18.7262 21.4836 18.3356 21.7571C17.945 22.0696 17.4372 22.0696 17.0075 21.8743L12.0075 19.179L6.9684 21.8743C6.57778 22.0696 6.06997 22.0696 5.67934 21.7571C5.28872 21.4836 5.0934 21.0149 5.17153 20.5461L6.10903 14.843L2.04653 10.8196C1.73403 10.5071 1.61684 9.99927 1.73403 9.56958C1.89028 9.10083 2.2809 8.78833 2.74965 8.71021L8.37465 7.88989L10.8747 2.69458C11.07 2.26489 11.4997 1.99146 12.0075 1.99146C12.4762 1.99146 12.9059 2.26489 13.1012 2.69458Z"
    />
  </symbol>
  <symbol id="fontawesome-solid-tap-double" viewBox="0 0 24 24">
    <path
      fill-rule="evenodd"
      clip-rule="evenodd"
      d="M13.9984 2C13.17 2 12.4984 2.67157 12.4984 3.5V11.0044C12.4689 11.0061 12.4393 11.0081 12.4096 11.0102C11.9584 11.0408 11.4984 11.072 11.4984 10L11.3816 4.0625C11.3816 3.20312 10.6785 2.5 9.81909 2.5C8.92065 2.5 8.25659 3.20312 8.25659 4.0625V16.6797L6.06909 13.75C5.52221 13.0859 4.54565 12.9297 3.88159 13.4375C3.17846 13.9844 3.02221 14.9609 3.56909 15.625L6.38159 19.375C7.67065 21.1328 9.66284 22.2656 11.8503 22.4609C12.0066 22.5 12.2019 22.5 12.3972 22.5H15.7566C18.491 22.5 20.7566 20.2734 20.7566 17.5V13.125C20.7566 12.1094 20.014 11 18.9984 11H15.4984V3.5C15.4984 2.67157 14.8268 2 13.9984 2ZM12.0066 13.75C12.3191 13.75 12.6316 14.0625 12.6316 14.375V18.125C12.6316 18.4766 12.3191 18.75 12.0066 18.75C11.655 18.75 11.3816 18.4766 11.3816 18.125V14.375C11.3816 14.0625 11.655 13.75 12.0066 13.75ZM13.8816 14.375C13.8816 14.0625 14.155 13.75 14.5066 13.75C14.8191 13.75 15.1316 14.0625 15.1316 14.375V18.125C15.1316 18.4766 14.8191 18.75 14.5066 18.75C14.155 18.75 13.8816 18.4766 13.8816 18.125V14.375ZM17.0066 13.75C17.3191 13.75 17.6316 14.0625 17.6316 14.375V18.125C17.6316 18.4766 17.3191 18.75 17.0066 18.75C16.655 18.75 16.3816 18.4766 16.3816 18.125V14.375C16.3816 14.0625 16.655 13.75 17.0066 13.75Z"
    />
  </symbol>
  <symbol id="fontawesome-solid-tap-single" viewBox="0 0 24 24">
    <path
      d="M8.25854 3.5625C8.25854 2.70312 8.9226 2 9.82104 2C10.6804 2 11.3835 2.70312 11.3835 3.5625V9.38281C11.696 9.07031 12.1257 8.875 12.6335 8.875C13.4148 8.875 14.1179 9.38281 14.3914 10.125C14.7039 9.73438 15.2117 9.5 15.7585 9.5C16.7351 9.5 17.5554 10.2812 17.5945 11.2578C17.946 10.9453 18.3757 10.75 18.8835 10.75C19.8992 10.75 20.7585 11.6094 20.7585 12.625V14.5V15.125V17C20.7585 19.7734 18.4929 22 15.7585 22H15.1335H12.6335H12.5945H12.3992C12.2039 22 12.0085 22 11.8523 21.9609C9.66479 21.7656 7.6726 20.6328 6.38354 18.875L3.57104 15.125C3.02417 14.4609 3.18042 13.4844 3.88354 12.9375C4.5476 12.4297 5.52417 12.5859 6.07104 13.25L8.25854 16.1797V3.5625ZM12.6335 13.875C12.6335 13.5625 12.321 13.25 12.0085 13.25C11.657 13.25 11.3835 13.5625 11.3835 13.875V17.625C11.3835 17.9766 11.657 18.25 12.0085 18.25C12.321 18.25 12.6335 17.9766 12.6335 17.625V13.875ZM14.5085 13.25C14.157 13.25 13.8835 13.5625 13.8835 13.875V17.625C13.8835 17.9766 14.157 18.25 14.5085 18.25C14.821 18.25 15.1335 17.9766 15.1335 17.625V13.875C15.1335 13.5625 14.821 13.25 14.5085 13.25ZM17.6335 13.875C17.6335 13.5625 17.321 13.25 17.0085 13.25C16.657 13.25 16.3835 13.5625 16.3835 13.875V17.625C16.3835 17.9766 16.657 18.25 17.0085 18.25C17.321 18.25 17.6335 17.9766 17.6335 17.625V13.875Z"
    />
  </symbol>
  <symbol id="fontawesome-solid-thumbs-up" viewBox="0 0 24 24">
    <path
      d="M14.2266 3.28652C15.2422 3.52089 15.9062 4.49746 15.7109 5.51308L15.5938 5.94277C15.3984 6.99746 15.0078 7.97402 14.5 8.87246H20.125C21.1406 8.87246 22 9.73183 22 10.7475C22 11.4896 21.5703 12.1146 20.9844 12.4271C21.4141 12.7787 21.6875 13.2865 21.6875 13.8725C21.6875 14.81 21.0234 15.5521 20.1641 15.7475C20.3203 16.0209 20.4375 16.3334 20.4375 16.685C20.4375 17.5443 19.8906 18.2475 19.1094 18.4818C19.1484 18.599 19.1875 18.7553 19.1875 18.8725C19.1875 19.9271 18.3281 20.7475 17.3125 20.7475H13.4844C12.7422 20.7475 12.0391 20.5521 11.4141 20.1225L9.89062 19.1459C8.875 18.4428 8.25 17.2709 8.25 16.0209V14.4975V12.6225V11.685C8.25 10.5131 8.75781 9.45839 9.65625 8.75527L9.92969 8.52089C10.9453 7.66152 11.6875 6.52871 11.9219 5.20058L12 4.77089C12.2344 3.75527 13.2109 3.09121 14.2266 3.28652ZM3.25 9.49746H5.75C6.41406 9.49746 7 10.0834 7 10.7475V19.4975C7 20.2006 6.41406 20.7475 5.75 20.7475H3.25C2.54688 20.7475 2 20.2006 2 19.4975V10.7475C2 10.0834 2.54688 9.49746 3.25 9.49746Z"
    />
  </symbol>
  <symbol id="fontawesome-solid-trophy" viewBox="0 0 24 24">
    <path
      d="M16.375 2C17.3906 2 18.25 2.85938 18.2109 3.91406C18.1719 4.10938 18.1719 4.30469 18.1719 4.5H22.3125C22.8203 4.5 23.25 4.92969 23.25 5.4375C23.25 9.07031 21.9219 11.5703 20.1641 13.2891C18.4453 14.9688 16.3359 15.8281 14.7734 16.2578C13.8359 16.4922 13.25 17.2734 13.25 18.0547C13.25 18.8359 13.9141 19.5 14.6953 19.5H15.75C16.4141 19.5 17 20.0859 17 20.75C17 21.4531 16.4141 22 15.75 22H8.25C7.54688 22 7 21.4531 7 20.75C7 20.0859 7.54688 19.5 8.25 19.5H9.26562C10.0859 19.5 10.75 18.8359 10.75 18.0547C10.75 17.2734 10.125 16.4922 9.1875 16.2578C7.625 15.8281 5.51562 14.9688 3.79688 13.2891C2.03906 11.5703 0.75 9.07031 0.75 5.4375C0.75 4.92969 1.14062 4.5 1.6875 4.5H5.78906C5.78906 4.30469 5.78906 4.10938 5.75 3.91406C5.71094 2.85938 6.57031 2 7.625 2H16.375ZM2.625 6.375H2.66406C2.85938 8.99219 3.875 10.75 5.125 11.9609C5.98438 12.8203 7 13.4062 7.97656 13.8359C7.07812 12.2734 6.29688 9.92969 5.94531 6.375H2.625ZM18.875 11.9609C20.125 10.75 21.1406 8.99219 21.3359 6.375H18.0156C17.6641 9.92969 16.8828 12.2734 15.9844 13.8359C16.9609 13.4062 17.9766 12.8203 18.875 11.9609Z"
    />
  </symbol>
  <symbol id="fontawesome-solid-unlock" viewBox="0 0 24 24">
    <path
      d="M8.875 7.625V9.5H18.25C19.6172 9.5 20.75 10.6328 20.75 12V19.5C20.75 20.9062 19.6172 22 18.25 22H5.75C4.34375 22 3.25 20.9062 3.25 19.5V12C3.25 10.6328 4.34375 9.5 5.75 9.5H6.375V7.625C6.375 4.53906 8.875 2 12 2C14.2266 2 16.1797 3.32812 17.0781 5.24219C17.3516 5.86719 17.0781 6.60938 16.4531 6.88281C15.8672 7.19531 15.0859 6.92188 14.8125 6.29688C14.3047 5.24219 13.2109 4.5 12 4.5C10.2422 4.5 8.875 5.90625 8.875 7.625Z"
    />
  </symbol>
  <symbol id="fontawesome-solid-up-circle" viewBox="0 0 24 24">
    <path
      d="M12.0195 22C8.42578 22 5.14453 20.125 3.34766 17C1.55078 13.9141 1.55078 10.125 3.34766 7C5.14453 3.91406 8.42578 2 12.0195 2C15.5742 2 18.8555 3.91406 20.6523 7C22.4492 10.125 22.4492 13.9141 20.6523 17C18.8555 20.125 15.5742 22 12.0195 22ZM12.4492 6.57031C12.2148 6.33594 11.7852 6.33594 11.5508 6.57031L7.17578 10.9453C7.01953 11.1406 6.94141 11.4141 7.05859 11.6484C7.13672 11.8828 7.37109 12 7.64453 12H10.1445V15.75C10.1445 16.4531 10.6914 17 11.3945 17H12.6445C13.3086 17 13.8945 16.4531 13.8945 15.75V12H16.3945C16.6289 12 16.8633 11.8438 16.9414 11.6484C17.0586 11.4141 16.9805 11.1406 16.8242 10.9453L12.4492 6.57031Z"
    />
  </symbol>
  <symbol id="fontawesome-solid-volume" viewBox="0 0 24 24">
    <path
      d="M15.0078 3.3478C15.4375 3.54311 15.75 4.01186 15.75 4.48061V19.4806C15.75 19.9884 15.4375 20.4181 15.0078 20.6525C14.5391 20.8478 14.0312 20.7697 13.6406 20.4181L8.36719 15.7306H5.75C4.34375 15.7306 3.25 14.6369 3.25 13.2306V10.7306C3.25 9.36342 4.34375 8.23061 5.75 8.23061H8.36719L13.6406 3.58217C14.0312 3.23061 14.5391 3.15248 15.0078 3.3478ZM19.3438 9.08998C20.2031 9.79311 20.75 10.8087 20.75 11.9806C20.75 13.1915 20.2031 14.2072 19.3438 14.9103C18.9531 15.2228 18.3672 15.1837 18.0156 14.754C17.7031 14.3634 17.7812 13.7775 18.1719 13.465C18.6016 13.1134 18.875 12.5665 18.875 11.9806C18.875 11.3947 18.6016 10.8869 18.1719 10.5353C17.7812 10.2228 17.7031 9.63686 18.0156 9.20717C18.3672 8.81655 18.9531 8.77748 19.3438 9.08998Z"
    />
  </symbol>
  <symbol id="fontawesome-solid-xmark-circle" viewBox="0 0 24 24">
    <path
      d="M12.0195 22C8.42578 22 5.14453 20.125 3.34766 17C1.55078 13.9141 1.55078 10.125 3.34766 7C5.14453 3.91406 8.42578 2 12.0195 2C15.5742 2 18.8555 3.91406 20.6523 7C22.4492 10.125 22.4492 13.9141 20.6523 17C18.8555 20.125 15.5742 22 12.0195 22ZM8.85547 8.83594C8.46484 9.22656 8.46484 9.8125 8.85547 10.1641L10.6914 12L8.85547 13.8359C8.46484 14.2266 8.46484 14.8125 8.85547 15.1641C9.20703 15.5547 9.79297 15.5547 10.1445 15.1641L11.9805 13.3281L13.8164 15.1641C14.207 15.5547 14.793 15.5547 15.1445 15.1641C15.5352 14.8125 15.5352 14.2266 15.1445 13.8359L13.3086 12L15.1445 10.1641C15.5352 9.8125 15.5352 9.22656 15.1445 8.83594C14.793 8.48438 14.207 8.48438 13.8164 8.83594L11.9805 10.6719L10.1445 8.83594C9.79297 8.48438 9.20703 8.48438 8.85547 8.83594Z"
    />
  </symbol>
  <symbol id="fontawesome-solid-xmark" viewBox="0 0 24 24">
    <path
      d="M17.8789 7.87891L13.7773 11.9805L17.8789 16.1211C18.3867 16.5898 18.3867 17.4102 17.8789 17.8789C17.4102 18.3867 16.5898 18.3867 16.1211 17.8789L12.0195 13.7773L7.87891 17.8789C7.41016 18.3867 6.58984 18.3867 6.12109 17.8789C5.61328 17.4102 5.61328 16.5898 6.12109 16.1211L10.2227 11.9805L6.12109 7.87891C5.61328 7.41016 5.61328 6.58984 6.12109 6.12109C6.58984 5.61328 7.41016 5.61328 7.87891 6.12109L12.0195 10.2227L16.1211 6.12109C16.5898 5.61328 17.4102 5.61328 17.8789 6.12109C18.3867 6.58984 18.3867 7.41016 17.8789 7.87891Z"
    />
  </symbol>
  <symbol id="fontawesome-solid-zoom-in" viewBox="0 0 24 24">
    <path
      d="M19.5 9.75C19.5 11.9016 18.8016 13.8891 17.625 15.5016L23.5594 21.4406C24.1453 22.0266 24.1453 22.9781 23.5594 23.5641C22.9734 24.15 22.0219 24.15 21.4359 23.5641L15.5016 17.625C13.8891 18.8062 11.9016 19.5 9.75 19.5C4.36406 19.5 0 15.1359 0 9.75C0 4.36406 4.36406 0 9.75 0C15.1359 0 19.5 4.36406 19.5 9.75ZM8.625 13.875C8.625 14.4984 9.12656 15 9.75 15C10.3734 15 10.875 14.4984 10.875 13.875V10.875H13.875C14.4984 10.875 15 10.3734 15 9.75C15 9.12656 14.4984 8.625 13.875 8.625H10.875V5.625C10.875 5.00156 10.3734 4.5 9.75 4.5C9.12656 4.5 8.625 5.00156 8.625 5.625V8.625H5.625C5.00156 8.625 4.5 9.12656 4.5 9.75C4.5 10.3734 5.00156 10.875 5.625 10.875H8.625V13.875Z"
    />
  </symbol>
  <symbol id="fontawesome-solid-zoom-out" viewBox="0 0 24 24">
    <path
      d="M19.5 9.75C19.5 11.9016 18.8016 13.8891 17.625 15.5016L23.5594 21.4406C24.1453 22.0266 24.1453 22.9781 23.5594 23.5641C22.9734 24.15 22.0219 24.15 21.4359 23.5641L15.5016 17.625C13.8891 18.8062 11.9016 19.5 9.75 19.5C4.36406 19.5 0 15.1359 0 9.75C0 4.36406 4.36406 0 9.75 0C15.1359 0 19.5 4.36406 19.5 9.75ZM6.375 8.625C5.75156 8.625 5.25 9.12656 5.25 9.75C5.25 10.3734 5.75156 10.875 6.375 10.875H13.125C13.7484 10.875 14.25 10.3734 14.25 9.75C14.25 9.12656 13.7484 8.625 13.125 8.625H6.375Z"
    />
  </symbol>
</svg>
